<svg xmlns="http://www.w3.org/2000/svg" width="190" height="75" viewBox="0 0 190 75">
  <defs>
    <style>
      .cls-1 {
        fill: #531261;
      }
    </style>
  </defs>
  <g id="UI">
    <g id="_0_blood_drops" data-name="0 blood drops">
      <path class="cls-1" d="M46.18,36.51h.09L25,0,3.73,36.51h.09a25,25,0,1,0,42.36,0ZM25,69.45A20.22,20.22,0,0,1,8,38.54H7.92L25,9.23,42.08,38.54H42A20.22,20.22,0,0,1,25,69.45Z"/>
      <path class="cls-1" d="M116.18,36.51h.09L95,0,73.73,36.51h.09a25,25,0,1,0,42.36,0ZM95,69.45A20.22,20.22,0,0,1,78,38.54h-.07L95,9.23l17.08,29.31H112A20.22,20.22,0,0,1,95,69.45Z"/>
      <path class="cls-1" d="M186.18,36.51h.09L165,0,143.73,36.51h.09a25,25,0,1,0,42.36,0ZM165,69.45a20.22,20.22,0,0,1-17-30.91h-.07L165,9.23l17.08,29.31H182a20.22,20.22,0,0,1-17,30.91Z"/>
    </g>
  </g>
</svg>
