<svg xmlns="http://www.w3.org/2000/svg" width="190" height="75" viewBox="0 0 190 75">
  <defs>
    <style>
      .cls-1 {
        fill: #531261;
      }

      .cls-2 {
        fill: #fff;
      }
    </style>
  </defs>
  <g id="UI">
    <g id="_1_blood_drop" data-name="1 blood drop">
      <g id="blood_drop" data-name="blood drop">
        <path class="cls-1" d="M186.18,36.51h.09L165,0,143.73,36.51h.09a25,25,0,1,0,42.36,0Z"/>
        <path class="cls-2" d="M145.58,49.52a1.25,1.25,0,0,1,2.43,0c2.74,10.86,7.22,14.59,10.87,16.4s4.55.9,4.55,1.81c0,.66-4.65.23-5.46,0-6.38-1.81-8-4.34-9.11-5.42C146.12,59.61,144.43,54.17,145.58,49.52Z"/>
      </g>
      <path class="cls-1" d="M46.18,36.51h.09L25,0,3.73,36.51h.09a25,25,0,1,0,42.36,0ZM25,69.45A20.22,20.22,0,0,1,8,38.54H7.92L25,9.23,42.08,38.54H42A20.22,20.22,0,0,1,25,69.45Z"/>
      <path class="cls-1" d="M116.18,36.51h.09L95,0,73.73,36.51h.09a25,25,0,1,0,42.36,0ZM95,69.45A20.22,20.22,0,0,1,78,38.54h-.07L95,9.23l17.08,29.31H112A20.22,20.22,0,0,1,95,69.45Z"/>
    </g>
  </g>
</svg>
