<svg xmlns="http://www.w3.org/2000/svg" xmlns:xlink="http://www.w3.org/1999/xlink" width="1920" height="1080" viewBox="0 0 1920 1080">
  <defs>
    <style>
      .cls-1 {
        fill: #3099c3;
      }

      .cls-2 {
        fill: #3984bc;
      }

      .cls-3 {
        fill: #1f429c;
      }

      .cls-4 {
        fill: url(#linear-gradient);
      }

      .cls-5 {
        fill: #5da9d3;
      }

      .cls-6 {
        fill: #277fa6;
      }

      .cls-7 {
        fill: #277099;
      }

      .cls-8 {
        fill: #2d609e;
      }

      .cls-9 {
        fill: #9cd4e5;
      }

      .cls-10 {
        fill: #f1aaf5;
      }

      .cls-11 {
        fill: #9aa3ea;
      }

      .cls-12 {
        fill: #3d569b;
      }

      .cls-13 {
        fill: #838cd3;
      }

      .cls-14 {
        fill: #bbaaf3;
      }

      .cls-15 {
        fill: #979fdc;
      }

      .cls-16 {
        fill: #f1a6b7;
      }

      .cls-17 {
        fill: #e69bac;
      }

      .cls-18 {
        fill: #cd8c9b;
      }

      .cls-19 {
        fill: #b97585;
      }
    </style>
    <linearGradient id="linear-gradient" x1="960" y1="713.74" x2="960" y2="-160.19" gradientUnits="userSpaceOnUse">
      <stop offset="0.2" stop-color="#ffaad2"/>
      <stop offset="0.22" stop-color="#e79edb"/>
      <stop offset="0.28" stop-color="#a87ef1"/>
      <stop offset="0.31" stop-color="#816aff"/>
      <stop offset="0.35" stop-color="#6e62ec"/>
      <stop offset="0.41" stop-color="#5257cf"/>
      <stop offset="0.48" stop-color="#3b4eb9"/>
      <stop offset="0.56" stop-color="#2b47a8"/>
      <stop offset="0.64" stop-color="#22439f"/>
      <stop offset="0.75" stop-color="#1f429c"/>
      <stop offset="0.89" stop-color="#14327e"/>
      <stop offset="1" stop-color="#0e296d"/>
    </linearGradient>
  </defs>
  <g id="sky_bg_game" data-name="sky bg game">
    <polyline class="cls-1" points="1920 1080 -0.06 1080 -0.06 0 1920 0"/>
    <polyline class="cls-2" points="1920 1080 -0.06 1080 -0.06 0 1920 0"/>
    <rect class="cls-3" width="1920" height="754"/>
    <rect class="cls-4" y="-35" width="1920" height="776"/>
  </g>
  <g id="bg">
    <g id="bg-2" data-name="bg">
      <path class="cls-5" d="M1413.73,359.63c-1,2.15,175.55,119.16,152.27,143.27-44.94,46.56-429.33,117.82-457.44,98.83-7.67-2.34-89.58,16.19-115.56-1.83-13.84-14.35-250.59-60.18-263-61-24.46-13.63-28.3-59.72,9-90,18.7-15.18,99.89-18.07,89.28-27.6,141.28-58.19,277.89-145.77,436.28-133.79C1319.82,293.34,1363.62,338.6,1413.73,359.63Z"/>
      <path class="cls-6" d="M828.29,421.29c31.75,28.53,71.86,47.4,108.58,67.87,12.34.81,11.86,13.77,19.5,19.88,33.54,22.77,64.27,48.85,97.12,71.25,16.38,5.74,26.66,28.83,45.88,22.31,10.14-5.53,19.6,7.61,30.55,7.69,20.31,6.86,7.76,24.49,4.94,38.18-22.07,35.28-118.49,2.95-156.79,4.06-46.29.39-169.44,1.59-215.07,11.37-11.76-79.11-87.29-27.06-146-69-20.72-32.6-233.59-75-262-102-36.24-40.08-18-118,24-177,19.64-27.55,98-71,81.42-63.59,60.91-27.22,98.78-57.26,156.64-10.52C697.26,288.46,770.9,347.89,828.29,421.29Z"/>
      <path class="cls-2" d="M828.29,421.29c31.75,28.53,71.86,47.4,108.58,67.87,12.34.81,11.86,13.77,19.5,19.88,33.54,22.77,64.27,48.85,97.12,71.25,16.38,5.74,26.66,28.83,45.88,22.31,10.14-5.53,19.6,7.61,30.55,7.69,20.31,6.86,7.76,24.49,4.94,38.18-22.07,35.28-118.49,2.95-156.79,4.06-46.29.39-169.44,1.59-215.07,11.37-11.76-79.11-87.29-27.06-146-69-20.72-32.6-233.59-75-262-102-36.24-40.08-18-118,24-177,19.64-27.55,98-71,81.42-63.59,60.91-27.22,98.78-57.26,156.64-10.52C697.26,288.46,770.9,347.89,828.29,421.29Z"/>
      <path class="cls-7" d="M839.93,659.83c19,22,34.82,40.12,26.75,71.17.26,22.67-25.91,15.35-39.12,25.46-9.28,8.07-23.84,4.09-32.23,11.35-8,11.82-19.66,16.81-33.62,17.37-23.71,3.57-47.59,2.57-71.3,3.28-9.95,4.48-20.87,7.89-31.69,2.77-30.68-12.4-43.26,25.79-52,48-69.3,13.73-150.5,17.8-221.59,3.36-27.05-8.75-30.36,33.4-56.87,29.91-57,10.39-167.26,31.37-195-34.17-5.24-68-102-16.61-142.56-22.21.74-283.6-.27-567.22.37-850.83,125.67-.33,251.34.05,377-.37,18.77,8.84,18.8,91.55,28.61,116.73,12.5,55.39,17.88,115.74,52.49,162.31,62.61,54.72,132.29,104.32,189,165.81,28.28,26.89,49.47,58.41,70.11,90.91C766.3,541.73,828.89,582,839.93,659.83Z"/>
      <path class="cls-8" d="M839.93,659.83c19,22,34.82,40.12,26.75,71.17.26,22.67-25.91,15.35-39.12,25.46-9.28,8.07-23.84,4.09-32.23,11.35-8,11.82-19.66,16.81-33.62,17.37-23.71,3.57-47.59,2.57-71.3,3.28-9.95,4.48-20.87,7.89-31.69,2.77-30.68-12.4-43.26,25.79-52,48-69.3,13.73-150.5,17.8-221.59,3.36-27.05-8.75-30.36,33.4-56.87,29.91-57,10.39-167.26,31.37-195-34.17-5.24-68-102-16.61-142.56-22.21.74-283.6-.27-567.22.37-850.83,125.67-.33,251.34.05,377-.37,18.77,8.84,18.8,91.55,28.61,116.73,12.5,55.39,17.88,115.74,52.49,162.31,62.61,54.72,132.29,104.32,189,165.81,28.28,26.89,49.47,58.41,70.11,90.91C766.3,541.73,828.89,582,839.93,659.83Z"/>
      <path class="cls-9" d="M1457,749c-4.75-20.3-16.69-37.13-37.88-35-34.71-.05-70.86,7.82-105.21-2.06-9.72-2.6-13.49-11.71-9.35-21.16.88-13.66-66.37-10.54-81.4-28.06-28.5-8-61.37,2.3-88.3-14.22.52-11.67,11.92-20,4.57-32.47,24-20.14,57.63-27.22,75.36-54.11,7.79-8.76,17.91-15.08,26-23.42,62.9-53.71,136.27-101.39,172.91-178.84C1450.72,252.11,1502.6,152,1560,54.51c15.57-29.5,28.71-87.83,62-100.61,96.86,6.87,212.14-12.67,299,8-.24,258.89-3.79,528.21-3.86,787.09,0,9.31,31.45,21.29,21.86,20.91-7.53-.29-59.49-25.52-66-21-37.21,59.86-37.47,40.51-103,43-88-5-39.56,25.5-72-27-19.24-17.95-82.15,21.16-108,13C1578.46,774.26,1471.26,809.88,1457,749Z"/>
      <path class="cls-10" d="M659.41,20.25c9.14-.94,16.59-.35,28.59,4.65a54.55,54.55,0,0,0,8,5c22.81,11.27,26.82,32.62,33.28,55.55,3.21,11.38-1.43,23.16-3.87,34.5-6,28.09-23.07,43-51.42,46.63A92.8,92.8,0,0,1,634.7,163c-6.86-2.1-19.27-2.46-24.7-7-15.81-13.34-26-21.8-30-41-.72-16.24,3.82-31.17,6.9-46.26,1.51-7.4,6-14,12.41-19A44.59,44.59,0,0,0,609.37,39,22.57,22.57,0,0,1,617,32c9-5.09,20.93-7.29,31.3-11.11C651.91,19.53,655.71,20.55,659.41,20.25Z"/>
      <path class="cls-5" d="M1698.7,762.9c-17.59-35.28-55.18-22.66-68-27-31.83-10.77-61-33.85-73-32-21.67,3.38-57,30.3-105.7,79-59,59-31.3,56.11-2,71,25.75,13.1,65.17,17.65,137.7,11,26.86-2.46,102.38,22.22,119.3-7,11-19,10-3,23-16C1747,824.91,1702.86,771.25,1698.7,762.9Z"/>
    </g>
    <g id="trees">
      <path class="cls-11" d="M161,757.9c11.71,4,31.52,12.8,62,3,56-18,57,13,111.9,8.57,46.42-3.75,97.8,2.25,128.85-41.81C491,698.45,456.56,685,478,647.9c1.66-21.82,37.59-53.49,25.73-77.65,13-27.33,22.78-63.68,6.35-94.46-6.53-42-23.3-21.39-34.6-36.74C495,397.1,444,386,448,344.9c1.49-15.29-11.73-29.95-14.54-43,19.54-47.51-23.09-114.45-73.47-84C283.67-106.82,94,734.9,161,757.9Z"/>
      <path class="cls-12" d="M344.75,597.23c10.49-34,40.85-74.91,12.25-8.33,54.3-22.94,23.4-5.82-7,19-10.52,8.6-10,34-16,44-3.64,6.07,18-9.94,27.41-9.41-8.57,6.92-10.48,17.53-21.49,20.86C327.78,667,319.6,677.86,308.3,683.3c-17.57,8.46-31.26,22.9-48.8,31.36-2.37,1.14-2.54,3.05-2.54,5.19.48,59.53,3.45,151.23,1,211,.61,17-2,24-2,24s-21-3-28,0C213,961.35,234.57,711.82,237.31,687c3.79-27.67,26.86-12.73,21.29,11.22C277.9,676.6,300,675.9,318,660.9c10.37-8.63,11.22-29,17.38-41.27C345.93,603.81,325.67,616.73,344.75,597.23Z"/>
      <path class="cls-13" d="M93.52,738.42c-42,1.93-63-9.63-74.49-21.16-12.36-12.44-20.92-30-36.39-32.36-4.13-.63-14-31-20.64-26-8.3-42.78-6.49-60.43,26-90.33-15-28.44-7.42-59.54-.74-88.91-19.45-18.58-39.93-38.92-21.84-72.61,2.81-6,4.79-11,1.85-18.15-16.42-22.69,45.16-54.46,21-51.44-50.71,3.71-34.4-27.72-49.19-41.19-30.82,1.16-43.51-37.61-19.06-54.61,11.77-12.24,36.68-6.65,44-20.87,13.25-16.2-39-48.14-15-53.89,4-1.28,2-19.47,0-23-11-30.08,56.45-3.78,19.85-9.71-42.42-17.37-17.09-42.54-18.73-68-14.07-46.2-30.31-45.79-2.35-92.6C-28.2-68.34,36.87-40.29,79.86-48c5.22,9.13,10.62,18.16,11.88,30.59C144.31-75.72,233.87-37.82,304.4-48,336.77-33,334.71-4.38,348,17.81c-9.84,21.48-1.83,49.37-29.17,62.76-8.89,13.13-14.66,26.86-33,29.29-32.69,1.13-112.81,40-32.68,35.45,47.47-19.49,84.18,24.74,98.65,62.69,25.91,9.15,23.27,60.08-.87,70.62-16.62,15.18-31.76,30.77-36,52.93,7.93,1,18.72-5.37,27.11-7.92,20.85,11.25,29,35.57,17.09,58.19-11,21.09-41.47-5.19-47.54,17.75-30.78,54.42-3.17,32.51,14.81,59.86,2.21,4.64,7,4.19,6-1.58,7.23,2.58,14.74,5.24,16.37,13.88,18.58,38.95,4.14,55.74-14.27,84.29,11.85,15.79,27.57,23.6,15.46,36.88,7.63,5.75-15.54,26.46-19.54,29-6.79,10.15-34-3.68-26,12.41,19.09,31.83-21.37,46.92-45.88,49.56-1.53-11.79-.61.06-15.61,3.06-11.78.13-13.14,2.23-24,7-10.38,8-14.05-5.53-8,7,3.81,7.9-11,14-12.9,19.76-1,2.94-5.18,12.1-40.13,17.33A230.83,230.83,0,0,1,93.52,738.42ZM-50.61,29.35c6.14-7.9,20.5-8.24,21.13-15.52C-42.64-22.23-48.18,3.22-50.61,29.35Z"/>
      <path class="cls-12" d="M93.52,738.42l.24-51.48c0-2.36.08-4.77-2.74-5.77-13.3-4.72-24.56-12.78-35.46-21.47-1.8-1.43-3.63-3-6.24-2.45-4.93-7.2-12.54-11-19.66-15.43l.07.07c-.56-1.33-1.66-1.56-2.93-1.45l.12.13-1.33-1.12c-2.38-4.39-6.25-7.54-9.94-10.56C9.45,623.82,7.14,617,5.17,609.83c-.54-2-.79-3.76,1.25-4.82,1.89-1,3,.62,4,1.79C24.67,622.13,40.14,636,57.87,647.14c10.38,6.53,18.74,15.74,29.92,21.36,6.36,3.19,6.1.86,6-4-.17-11.61-.06-23.22,0-34.83.09-34.74,3.52-69.37,3.16-104.17-.11-11.35-4.42-18.26-12.68-24.2-12.57-9-25.4-17.7-36.53-28.62-19.46-19.1-33.94-42.12-50.5-63.5-3.87-5-4.31-12.14-9.33-16.77-1.69-1.57-1.43-3.77.56-5.46,2.69-2.3,4.08,0,5.82,1.46C11,406.9,18.11,421.22,31,438.9c15.77,21.65,45.21,39.54,68,54,2.14-8.61.18-12.84,1-21,1.7-16.9,1.81-40.67-1-57-1-25-4.06-50-10-53-15.67-8-43.75-30.24-59-39a177,177,0,0,0-36-15c-6.31-1.8-5.44,2.47-7.87-2.93-1.48-3.29-.12-4.1,3.08-3.86C5,302.3,19.48,307.63,32.94,315.68,48.85,325.2,65.88,332.74,81.37,343c3.94,2.61,16,14.74,16.63,9.89,2-15-1-50-9.78-57.52C86.89,294.23,67,267.9,61,244.9c-.61-2.33,27,38,32,36,7.43-3,14-137,21-69,.54,5.29-9.31,85.86-7,105,1.68,13.94,3.87,29.64,4,44,2.74-4.69,18.59-11.14,21-16,6.83-13.73,11.7-24.22,21-36,1.18-1.49,3.15-3,5.17-2.78,4.54.54,20.4-21.95,29.83-29.22.67-.51,25.5-12.68,25-12l-39.72,39.72a348.71,348.71,0,0,0-29.84,33.55c-10.35,13.11-17.33,28.45-26.21,42.55-2.35,3.73-1.49,8.3-1,12.3,3.81,29.31,2.34,58.76,2.66,88.16a23,23,0,0,0,.53,2.77C130,466.13,142,450.35,153.86,434.5c7.73-10.34,17.44-19.17,25.57-29.25,10-12.41,19.28-25.42,28.89-38.15a40.6,40.6,0,0,1,3.94-4.35,165.6,165.6,0,0,0,24.66-29.18c7.11-10.74,19.06-15.91,28.9-23.5,1.39-1.08,3.56-2.15,4.73.28,1.05,2.19-.16,3.89-2.08,5.28a185.74,185.74,0,0,0-26.31,22.59c-1,1-2,2-2.91,3-4.48,5-4.09,15.37-8.32,16.71-7.34,2.32-8.33,8.32-12.11,12.48-4.33,4.75-7.68,10.4-11.41,15.7-.18.26.08.83.35,2.94,34.76-17.57,73.34-25.07,105.16-48.29-6.08,20.24-22.76,27.09-39.62,33.31-13.41,4.95-27.26,8.48-40.09,15.25-7.65,4-16.56,5.7-24.91,8.4-.66.22-1.76,0-2,.39-3.44,5.64-10.67,6.06-14.74,10.45-19.48,21.08-37.93,43-54.29,66.65-5.93,8.56-11.6,17.31-17.42,25.94-1.13,1.69-.93,3.55-.94,5.39,0,20.89.1,41.79-.08,62.68,0,5.48,1.46,6.55,6.43,4.13a93.18,93.18,0,0,1,28.57-8.14c8.81-1.2,16-6,23.3-10.39,12.52-7.5,24.91-15.2,37.49-22.6,2.83-1.67,7-4.68,9.35-2,3,3.4-.09,7.37-2.92,10.27-8,8.22-18,13.76-27.71,19.59-3.18,1.9-6.74,3.31-9.57,5.62-12.07,9.87-26.89,11.75-41.36,14.66-6.65,1.34-12.71,4.29-19.07,6.44-3.33,1.12-4.52,3.35-4.49,6.88.13,20.19-1.41,40.53.48,60.56,2.16,22.71-.39,48,2.67,70.69.71,5.26,8.24,269.76,11.58,297.46-11.77,0-23.59-.05-35.41,0-2.91,0-3.52-1.51-3.42-3.93,1.14-28.09-1.3-56.25,1.43-84.31.23-2.36.37-6.25.37-8.62,0-24.95,1.55-50-.32-74.81C93.41,813.28,94.35,775.85,93.52,738.42Z"/>
      <path class="cls-14" d="M1931,377.9c-22.46,7.14-263.85-20.27-260-29-1.84-1-51.17-72-53-73-23.42-13-95.83,78.29-117.79,93.79-9.16,6.46-14.66,16-22,24-17.8,19.4-24.24,42.15-17.51,68,.66,2.54,1,4.67-.06,7.31-9.22,22.38-3.55,42.67,15.81,57.11,3.28,2.45,9.36,4.62,9.44,7.08.12,3.63-4,7.38-6.28,11.1-13.71,22.41-5.94,48.42,17.88,59.56,10.07,4.7,20.8,6.25,31.83,5.93,3.6-.11,6.12.35,6.64,4.95,1.47,13,8.52,22.79,18.57,30.66a24.36,24.36,0,0,1,5.08,4.65c12.22,16.73,24.49,33,40,47.42,18.44,17.07,38.86,25.15,63,26.73.24-3.41,20,1.38,20,1.38,4.83-.49,9.65-1.18,14.49-1.42,15.69-.79,39-1.14,53-8.32,8.81-4.54,50.17-.22,51.11,7,15.74,7.84,29.18,4.92,35.53-4.14,4.32-6.17,8.92-7.36,14.81-7.5a1.08,1.08,0,0,0,1.55.63c3.37-1.53,13.35-1.8,19.48,2.34-1.42-4.56,13.26-6.84,13.61-2.57a39.56,39.56,0,0,0,14.86-1.75c8.86-2.82,43.44-81.22,46-84C1847.7,564.85,1971.6,365,1931,377.9Z"/>
      <path class="cls-12" d="M1662.61,724.26c4.24-38.37,3.46-29.07-15.57-58.73-19.29-29.75-52.76-51.36-71.35-79.11,10.25-6.18,19.3,11,29.44,13.3,1.78-8.4-2.19-15.5-4.16-22.48,1.18-13.91-17-36-11.25-40.85,21.48,7.72,21.16,47.12,24.24,67.28,8.55,27.85,41.83,41.29,49.49,71.16,1.8-8.67-.62-15.51,2.28-21.77,11-5.92,9.69,5.84,12.14,12.09,10.17,16.76,1.83,41.07,4.69,60.49.34,72.72-8.31,144.15-3.09,216.78.11,4.46-21,3.6-25.47,3.48-4-.1-4.37-9-3-15,2-23-.54-49.66,2.65-70.47C1659.16,814.74,1659,769.44,1662.61,724.26Z"/>
      <path class="cls-12" d="M1889,681c-3.27,21.85-4,37.88,1,59.88,1.32,5.79,3.93,15.5,4,20,.41,39.88-5.41,78.86-8.18,118.55-5.07,27.95,5.75,62.66-9.44,87-24.62,15.72-5.69-85.18-9.15-99.28-1.09-51.3,28.31-114.72-14.46-155.88-5.39-26.68,9.83-4.36,19.71,3-3.47-11.19-1-19.71,4.09-27.69C1876,656.54,1888.15,637.22,1889,681Z"/>
      <path class="cls-15" d="M1774.14,672.67c-29.2.55-34.52,4.81-67.83-12.64-40.77,5.58-74.44-26.28-48.1-67.25-.77-18.16-26.24,6-28.63-46.31-12.23-9.31-3.24-33.37-15.24-37.19-33.13-.37-76-24.64-59.34-66.38-14.76-67.17,55-56,42-93-7.73-22,4.07-37.85,8.6-56.09,4.11-18.54,21.54-20.52,33-30.44,10.11-24.16,33.56-36.7,47.69-57.19,12.88-27.14,39.45-22.5,64.33-20,19.68-15.82,25.07-50.14,59-58.77,20.86-5.3,81.34,7.44,97.34,17.44,46,28.75,10.41,140.12,19,161-10.7-4.15,2,260,0,361-.55,28-80.21,30.15-102.44-.68C1814.14,663.12,1789.51,672.93,1774.14,672.67Z"/>
      <path class="cls-12" d="M1774.14,672.67c-2.26-7,8.65-21.46,0-24.11-3.6.43-4.86-3.14-4.92-5.65-1.94-25.33-34.08-37.73-32-64,.46-3.21,5.24-4.88,6.46-1.23,9.14,20,24.89,35.63,35.57,54.47,10.81-32.39-5.26-62.34-10.35-94-11-29.85-35.83-49.93-36.74-84.15,34.39,35.78,57.65,75.7,66.83,124.71,18.62-24.07,8.8-54.57,19-81.94,4.24-20.31-1.79-41.4,2.87-61.62,18.73-38.07,3.61,86.61-.41,91.91-1.44,17.32-.11,37.56-10.54,52.28-5.21,6.15-9,17.28-4.73,23.61,10.58-5.68,92-95.9,55.92-38-14.53,21.71-37.6,34.3-55.16,53.36-12.11,32.94-10.75,70-4.76,104.53,4.17,97.57,2.37,195.76,1.28,293.66-.78,12.17-20.45,2.95-28.74,5.86-3.29.07-5.08-.46-5-4.45a936.18,936.18,0,0,1,4.46-97.2C1782.59,851.76,1771.54,750.18,1774.14,672.67Z"/>
    </g>
  </g>
  <g id="fg01">
    <g>
      <path class="cls-16" d="M264.08,1084c9-33,38.45-76.89,78.23-69.26,6.26-3.21,16.28,9.78,17.38,1.51,5.15-37.39,12.4-74.22,24.93-109.88,72.3-171.8,228.46-297,402.89-354.93,50-20.54,105.26-4.94,157.29-16.18,72.78-12.3,146.17-2,216.43,20.84,196.94,60.39,327.58,108,370.43,331,11.08,43.91,19.29,88.79,18.14,134.21,0,3.35.67,4.36,4,2.86,12.31-5.58,24.85-8.56,38.5-5.65,39.41-9.55,61.73,23.93,63.64,60.18.43,9.46-17.91,2.12-24,4.2,1.51-13.58-61.75-21.22-73.37.34"/>
      <path class="cls-17" d="M384.18,1083.35c2.7-21.09,5.59-42.15,8.06-63.27,3.61-31,11.65-60.84,18.67-91,3.63-15.58,11.9-27.92,21.28-40.13,16.83-21.91,30.64-46.22,46.62-68.81,17-24,37.29-44.55,59.84-62.67,12.19-9.79,23.93-20.23,36.24-29.85,13.52-10.57,29.72-16.44,43.3-27,6.89-5.35,13.12-11.75,21.4-14.94a4.29,4.29,0,0,0,2.47-5.55c-1.86-4.32.24-5.93,3.45-7.49,17.22-8.36,33.35-19.51,53-21.34,5-.47,10-3.41,14.56-6,7.74-4.41,16-7.57,23.92-11.41,2.45-1.18,8.91-.3,5.77-7.26-.6-1.34,1-1.85,2-1.7,20,3.19,36.7-9.45,55.35-13,26.1-5,51.85-11.92,78.59-12.71,5.38-.16,10.82-1.37,16.27-1.09,13.63.67,27.11,0,40.17-4.63a14.56,14.56,0,0,1,6.85-.72c11.36,1.49,21.46-2,31.2-7.92,7.69-4.67,9.92-3.87,13.6,4.59,1.26,2.9,2.82,3.31,5.3,3.31,10.5,0,20.7-2.89,31.2-3.31,15.09-.6,30.05-2.49,44.72,3.67,11.56,4.85,24,6,36.27,6.23,16.43.32,32.86-.06,49.29.11,25,.26,49.21,5.28,71.61,17.13,16.14,8.53,30.68,20.09,44.36,32.52a42.27,42.27,0,0,0,20.6,10.35c23.41,4.69,46.13,11.82,67.28,23.2,25.43,13.68,50.5,28.08,70,51.32,8.41,10,17.06,19.23,21.72,32.17,3.48,9.65,12.41,15.42,18.09,23.67s11.45,16.4,14,26.94c5.31,22.08,16.38,41.86,24,63.07,3.54,9.88,5.2,20.17,6.47,30.45,1.43,11.68,2.49,23.34,6.54,34.45a65.49,65.49,0,0,1,3.84,23.51c-.26,18.5,2.43,36.7,5.71,54.81,1,5.34.47,10.67.52,16,.12,14.73.07,29.47.09,44.21l0-.06q-126.61,0-253.21,0c-2,0-4.27-.78-5.94,1.23-5.73-2.6-11.7-1.1-17.58-1.18l-412.23,0H806.68q-139.54,0-279.08-.07-71.67,0-143.33.15Z"/>
      <path class="cls-18" d="M1632,1082.93c0-4.23.22-8.46,0-12.67-.46-8.58-4.08-20.63-14.87-25.26-6.94-3-35.44,2-39,2-6-.08-18.53,34.61-19.49,36.27"/>
      <path class="cls-18" d="M345.31,1083.09l-59.51.1a4.44,4.44,0,0,1-1.14-.23,15.07,15.07,0,0,1,5.32-8.73c8.07-6,13.23-14.55,18.48-23,1-1.6,2-2.84,3.84-3C328.14,1054.7,341.07,1064.28,345.31,1083.09Z"/>
      <g>
        <path class="cls-18" d="M657.67,650.3c-3.69.36-6.15-1.82-7.37-5-1.1-2.92-1.06-6.32,1.79-8.44,2.12-1.57,2.74-3.52,3-6.1a4.66,4.66,0,0,1,4.79-4.39c2.7,0,4.62,1.13,5.32,4.45a31.1,31.1,0,0,0,3,8.55C670.91,644.34,665,650.28,657.67,650.3Z"/>
        <path class="cls-18" d="M1374.06,653.28a7.14,7.14,0,0,1-5.9,6.27c-3.43.63-12.91-6.51-12.66-9.6.33-4.34,3.72-5.77,7.13-6.14C1367,643.33,1373.86,649,1374.06,653.28Z"/>
        <path class="cls-18" d="M920.92,579.42c-1.85-.48-4,.8-4.85-1.26-.76-1.87,1.17-3.2,2-4.57,3-4.79,6.79-7.73,12.76-5.15,4.11,1.78,4.07,3.92,1.39,6.91C929.07,578.91,924.7,578.67,920.92,579.42Z"/>
        <path class="cls-18" d="M784.79,594.66c4.93-3.68,9.23-7.87,15-6.68,1.92.4,5.48.32,5,3.74-.38,2.53-2.68,4.93-5.4,4.79C794.49,596.25,789.65,595.31,784.79,594.66Z"/>
        <path class="cls-18" d="M1171.87,578.28c-.57,2.89-2.09,4.9-5,4.88s-4.92-1.79-4.77-4.86,2.28-5.42,5.3-5.39C1170.27,572.94,1171.66,575.25,1171.87,578.28Z"/>
        <path class="cls-18" d="M1013.43,572.46c-2.9.41-5.59-.17-6.15-2.75-.85-3.85,2.75-1.75,4.2-2.65a7.89,7.89,0,0,1,2.3-1c2-.47,4.73-4,5.81-1.35,1.37,3.31-1.62,6-4.76,7.34A10.19,10.19,0,0,1,1013.43,572.46Z"/>
        <path class="cls-19" d="M1475,926c-2.94-5-8.47-6.8-4.84-9.2,4.62-3,12.22-.62,15.66,5,2.86,4.65,1.6,10.94-2.73,13.62C1478.37,938.3,1478.4,931.76,1475,926Z"/>
        <path class="cls-19" d="M699.61,715.17c-5.14,2-2.87,9-7.52,11-3.82,1.69-5.63-1.66-7.73-4.11-.67-.78-1.49-1.76-2.37-1.93-4.81-.91-6.5-4-5.11-8.65,1.24-4.19,8.29-8.38,11.73-7C693.31,706.37,696.12,710.66,699.61,715.17Z"/>
        <path class="cls-19" d="M1272.59,816.6c6.48-3,9-.61,11.7,5.5,1.91,4.34,3.22,9.69-.82,11.62-5.29,2.52-9.47-.4-11.91-5.79S1267.32,819.08,1272.59,816.6Z"/>
        <path class="cls-19" d="M576.46,796.38c-2,.08-4-.23-4.6-2.53-.7-2.81-1.08-6.05,1.53-8,4.45-3.26,9.09-6.24,13.82-9a4.73,4.73,0,0,1,5.88.59c1.6,1.54,1.45,3.69.92,5.59C592.56,788.24,581.49,796.54,576.46,796.38Z"/>
        <path class="cls-19" d="M982.79,713.28c5.87,0,11.08,6.7,10.65,14.06-.25,4.24-2.86,7-6.94,7.13-3.88.17-11.88-9.92-11.29-14.44S978.3,712.84,982.79,713.28Z"/>
        <path class="cls-19" d="M1020.62,662.38c-5.88-.09-10.7-4.27-10.47-9.07.2-4.21,5.32-8.51,9.89-8.3,5.56.25,10.22,4.19,10.28,8.68C1030.4,659.13,1026.66,662.48,1020.62,662.38Z"/>
        <path class="cls-19" d="M783.85,762.81c0-6.27,2.64-9.28,8.15-9.32,4.61,0,9.38,4.45,9.4,8.83,0,5.17-4.41,9.89-9.29,9.91C787,772.24,783.84,768.67,783.85,762.81Z"/>
        <path class="cls-19" d="M854.58,658.57c1-5.32,5.06-7.78,9.88-9.29s8,1.13,10.74,4.88a2,2,0,0,1,.32.57c.8,2.87-1.46,4.44-3,5.23-4.69,2.4-8.57,7.77-14.56,5.85C855.42,665,854.86,661.86,854.58,658.57Z"/>
        <path class="cls-19" d="M973,641c-3.91-.27-8,.85-11.59-1.79-1.55-1.15-3.18-2.36-2.84-4.74.29-2.07,1.93-3,3.52-3.39a41.89,41.89,0,0,1,18-.24,5.93,5.93,0,0,1,4.57,7c-.61,3.62-3.53,3.13-6,3.17C976.73,641,974.85,641,973,641Z"/>
        <path class="cls-19" d="M1139.91,846c-5.08.52-7.73-2.65-8.17-7.6-.39-4.25,4.76-8.41,9.64-8.49,5.24-.09,9.26,3.38,9,7.79S1145.36,846,1139.91,846Z"/>
        <path class="cls-19" d="M878.67,755.17c.32,6-3,8.38-7.56,8.88-4.24.45-8.9-4.72-8.89-9.23,0-5.79,3.79-7.57,8.22-7.9C875.38,746.55,878.66,750.27,878.67,755.17Z"/>
        <path class="cls-19" d="M648.86,874.11c-4.74.08-6.71-2.53-6.6-7.42.12-5.37,3.42-8.69,8.87-8.66,4.46,0,7,2.57,7.51,7.08S654,874,648.86,874.11Z"/>
        <path class="cls-19" d="M1198.57,749.61c-.44,4.59-2.6,7.51-7,7.84s-8.64-3.9-8.1-8.2c.57-4.5,2.56-8.11,7.7-7.79C1196,741.76,1198.16,744.75,1198.57,749.61Z"/>
        <path class="cls-19" d="M695.54,801.75c-3-.21-5.92-2.39-6.38-7.06s5-9.1,10.58-9c2.73,0,4.38,1.15,4.41,4.3C704.22,797.55,701.71,801.63,695.54,801.75Z"/>
        <path class="cls-19" d="M550.71,889a27.78,27.78,0,0,1,5,.06,5.26,5.26,0,0,1-.11,10.37,64.74,64.74,0,0,1-8.13.18c-3.35,0-6-1.34-6.12-5.09-.14-4.17,2.6-5.67,6.23-5.64h3.13Z"/>
        <path class="cls-19" d="M1089.59,712.08c2.11.24,5,2.56,5.1,7.19s-2.37,8.5-7,8.4-6.93-3.85-6.73-8.66C1081.17,715,1082.7,711.66,1089.59,712.08Z"/>
        <path class="cls-19" d="M1330.3,708c-4.29.29-7.79-.62-8-6.52-.17-4.33,2.21-6.12,5.6-6.64,3-.46,9.51,5.32,9.6,8.15C1337.64,708.51,1333.86,707.93,1330.3,708Z"/>
        <path class="cls-19" d="M949.46,759c0,2.37-.3,4.64-3.05,5s-8.28-7.29-8.26-11.59c0-2.78,1.27-4.87,4-5.12C945.73,747,949.6,753.33,949.46,759Z"/>
        <path class="cls-19" d="M892.41,693.24c-3.57-.06-6-1.71-6.1-5.78-.13-5.1,3.41-6.12,7.11-6.21,3.43-.09,5.39,2.13,5.42,5.78C898.89,691.47,896.39,693.23,892.41,693.24Z"/>
        <path class="cls-19" d="M1052.72,634.23c3,.1,5.32,1.85,5.36,5.92s-2,6.23-5.8,6.06a6.48,6.48,0,0,1-6.58-6.53C1045.54,635.56,1048.48,634.19,1052.72,634.23Z"/>
        <path class="cls-19" d="M507.2,837.82c5,.18,7.34,1.93,7.37,6s-2.29,7.26-5.82,7.07-5.47-3.43-5.53-7.55C503.16,839.36,504.85,837.62,507.2,837.82Z"/>
        <path class="cls-19" d="M1021.44,760.2c.25,4.74-.05,8.9-4.36,9-3.88.1-4.51-3.69-4.48-7.31,0-4.35,2-7.91,5.8-8C1022.7,753.83,1021,758.44,1021.44,760.2Z"/>
        <path class="cls-19" d="M1409.37,824.74c3.28,1.3,6.46,2.53,6.33,6.67-.12,3.34-2.33,5.57-5.43,4.94-2.78-.57-6.88-.42-6.93-5.14C1403.3,827,1406.69,826.11,1409.37,824.74Z"/>
        <path class="cls-19" d="M1144.94,647.55c-3.67-.79-6.46-2.67-6.64-6.39-.14-3,1.48-5.54,5-5.56a6.41,6.41,0,0,1,6.76,5.63C1150.51,644.72,1147.43,646.32,1144.94,647.55Z"/>
        <path class="cls-19" d="M1474.91,836.66c2.68,1.31,5.2,3,5.25,6.54,0,3.33-2,5.46-5.13,5.27-3.48-.21-5-2.8-4.79-6.38A5.37,5.37,0,0,1,1474.91,836.66Z"/>
      </g>
    </g>
  </g>
</svg>
