<svg xmlns="http://www.w3.org/2000/svg" width="1920" height="1080" viewBox="0 0 1920 1080">
  <defs>
    <style>
      .cls-1 {
        fill: #010744;
        opacity: 0.71;
      }

      .cls-2 {
        fill: #ce33a6;
      }

      .cls-3 {
        fill: #fff;
      }

      .cls-4 {
        fill: #520d63;
      }

      .cls-5 {
        fill: #460456;
      }

      .cls-6 {
        fill: #3d0b47;
      }

      .cls-7 {
        fill: #8c3c9e;
      }
    </style>
  </defs>
  <g id="Game_Over_2" data-name="Game Over 2">
    <rect class="cls-1" x="-15" y="-14.66" width="1952" height="1107"/>
    <g>
      <path class="cls-2" d="M806.65,377.11q4.36,0,4.37,5.87a82.93,82.93,0,0,0,1.4,12.48,81.92,81.92,0,0,1,1.41,12.48c0,1.45-.62,2.18-1.85,2.18q-3.35,0-3.35-3.07a1.79,1.79,0,0,1,.07-.35,2.84,2.84,0,0,0,.07-.34,13.32,13.32,0,0,0-3.56,2,13.9,13.9,0,0,1-3.28,1.91,14.8,14.8,0,0,1-3.31.48,6.67,6.67,0,0,0-3.25.82h.27q-9.23-2.06-13.81-6.43-3.69-3.48-5.19-11.82Q774,379.44,774,348.8a147.59,147.59,0,0,1,.68-17.09q.69-5.06,1.47-8.92a40.8,40.8,0,0,1,1.92-6.7,44.39,44.39,0,0,1,2.83-5.77,18.88,18.88,0,0,1,3.83-4.79,17,17,0,0,1,11.56-4.17c2.77,0,4.17.8,4.17,2.4,0,1.14-.69,1.7-2.06,1.7l-4-.75q-10.74,0-13.88,19.62-1.77,10.67-1.77,27.89-.42,11.08-.41,15.35t.06,6.63q.07,2.35.31,5.91a47.76,47.76,0,0,0,.82,6.39q.58,2.85,1.4,6.12a22.37,22.37,0,0,0,2.22,5.71,26.83,26.83,0,0,0,3.25,4.48q3.82,4.23,10.73,4.24t11.42-7q0-10.45-1.26-14.25c-.85-2.53-1.63-3.79-2.36-3.79l-5.61.54c-2.14,0-3.21-.79-3.21-2.39q0-1.29,4.13-2.19A32.8,32.8,0,0,1,806.65,377.11Z"/>
      <path class="cls-2" d="M859.28,367.74l1.58,36.5v1.51a3.27,3.27,0,0,1-.41,2.05,3.56,3.56,0,0,1-2.4,1,3.15,3.15,0,0,1-2.11-.69,2.12,2.12,0,0,1-.83-1.71,3.52,3.52,0,0,0,.41-1.64l-.41-2.8V388q0-1.85-7.38-3.18a69.36,69.36,0,0,0-10.94-1.33q-1.37,0-2.46,5.09t-2.12,11.18q-1,6.09-2.05,7.59c-2.18,0-3.62-.57-4.3-1.71q2.17-3.15,4.2-15.31t3.25-17.67q1.23-5.51,4.41-23.9t4.3-23.55q1.14-5.16,1.75-7.62c.41-1.64.93-3.57,1.57-5.81q2.25-8.07,4-8.06,2.19,0,2.91,1t1.23,4.65q.51,3.64,1,9.29c.35,3.76.65,7.21.93,10.36q1.29,14.76,1.6,19.41a20.3,20.3,0,0,0,1.27,6.7c-.18,2.83-.28,5.25-.28,7.28A10.89,10.89,0,0,0,859.28,367.74Zm-23,11.89a44.21,44.21,0,0,0,14.15,2,8.37,8.37,0,0,0,2.53-.28l.68.28a1.15,1.15,0,0,0,1.3-1.3,397.62,397.62,0,0,0-5.47-63.1c0-.27-.15-.77-.31-1.5A8.55,8.55,0,0,1,849,314a38.64,38.64,0,0,0-1.84,6.15l.41.82q-.48.48-1.58,4.82t-3,17.91q-1.95,13.57-2.8,17.43c-.57,2.58-1.17,4.91-1.81,7a42.62,42.62,0,0,0-2,10.66Z"/>
      <path class="cls-2" d="M911.37,302.53c.28-1.51,1.39-2.26,3.35-2.26a1.67,1.67,0,0,1,1.1.68,2,2,0,0,1,.61,1.23q-.48,9.38-.48,18t1.13,29.74q1.13,21.12,1.13,28.37c0,4.83-.05,7.82-.14,9a39.57,39.57,0,0,0,.35,6.18,111,111,0,0,1,.47,11.21c0,4.52-.68,7.09-2,7.73V412l-.54.55-2.67-1.1V411a3.84,3.84,0,0,1,.41-1.71l-.55-1.23q.28-8.34.28-12.78l-1-46,.28-15.72c0-1.59-.08-3.83-.24-6.7s-.27-4.78-.31-5.74a1.34,1.34,0,0,0-.28,1q-.41,9.09-4,27.61a195,195,0,0,1-5.81,26.05,19.58,19.58,0,0,1-.75,2.05,12.91,12.91,0,0,0-1.23,4.51l.41.68c-.09.32-.3,1.53-.62,3.63-.73,4.6-2,6.9-3.83,6.9q-3.07,0-3.28-10.87a36.58,36.58,0,0,0-.37-4.61q-.37-2.83-6.22-30.49t-6.67-28.81q-.54,12.64-.55,28.3l.41,44.5.69,13.33a5,5,0,0,1-1.1,3.62q-4,0-4-7.31l.75-23.38-.55-28.37L876,316.2c0-5.34,0-9.34-.13-12l2.66-1.51q3.28.42,12.31,44.78,1.85,9.3,2.87,13.74t1.43,6.32c.28,1.25.57,2.75.89,4.48a42.73,42.73,0,0,1,1.1,7.65,100.15,100.15,0,0,0,2.66-11.55l2-9.84q.81-4,3.79-20.13t3.93-20.61a88.5,88.5,0,0,0,2.19-14.29Z"/>
      <path class="cls-2" d="M940.22,404.59l8.41-.48c4.38,0,6.56.75,6.56,2.25A5.66,5.66,0,0,1,951,409a30.38,30.38,0,0,1-5.81.59h-3.28c-4.19,0-6.61-.34-7.24-1a3,3,0,0,1-1-2.08l1.3-5.2V401a31.75,31.75,0,0,1-.55-6.15l.68-14.29-.82-29.94.69-27.82a46.78,46.78,0,0,0-.89-7.49,56.69,56.69,0,0,1-1-7.28l2.53-3.89,9.78-1.23.47.41c2.19,0,3.46.28,3.8.85a3.47,3.47,0,0,1,.51,1.81q0,2.67-5.06,2.67l-3.76-.28c-2.05,0-3.07.55-3.07,1.64l1.09,23.79-.68,17.5-.28.28.82.48,7.73-1.44a2.56,2.56,0,0,1,1.64.79,2.2,2.2,0,0,1,.89,1.6c0,1.87-.71,2.81-2.12,2.81l-3.21-.14q-5.34,0-5.34,2.66l1,11.76-.48.82v28.44q.75.89.75,3.9Z"/>
      <path class="cls-2" d="M1020.48,366.51l-1.3,18.05.27.54a37.89,37.89,0,0,0-1.09,8.48,21.84,21.84,0,0,1-1.51,7.76,21.55,21.55,0,0,1-4.47,7.18,8.72,8.72,0,0,1-6.4,3.17,9.43,9.43,0,0,1-6.35-2.59,20.69,20.69,0,0,1-4.89-6.67,54.47,54.47,0,0,1-3.42-9.64A106.05,106.05,0,0,1,989,381.86q-.82-5.37-1.37-11.11-.81-9.57-.82-16.58t.62-16q.62-9,.68-11.55c.05-1.74.09-3.26.14-4.58s.16-2.91.34-4.76a43.22,43.22,0,0,1,.72-4.85,25.13,25.13,0,0,1,1.33-4.27,11.91,11.91,0,0,1,2.19-3.62,10.18,10.18,0,0,1,8-3.22,12.8,12.8,0,0,1,8.51,2.81c.32.5,1.15,1.61,2.5,3.35a22.86,22.86,0,0,1,3,5q1,2.36,2.22,11.59A310.57,310.57,0,0,1,1020.48,366.51ZM1001.13,305q-10.32,0-10.32,41.49V352a160.65,160.65,0,0,0,1.47,20.88Q993.75,384,995.35,391a41.67,41.67,0,0,0,4.52,11.9c1.93,3.28,4.09,4.92,6.46,4.92q4.78,0,7-9.74a107.06,107.06,0,0,0,2.6-17.33c.31-6.93.48-11.44.48-13.54v-3.35c0-1.73,0-3.2,0-4.41s-.06-3.19-.1-5.94-.14-5.21-.28-7.35-.31-4.74-.54-7.79-.55-5.78-1-8.17-.88-4.95-1.4-7.66a41.87,41.87,0,0,0-1.91-7,41.2,41.2,0,0,0-2.57-5.47Q1005.64,305,1001.13,305Z"/>
      <path class="cls-2" d="M1069.15,313.39c1,.32,1.57.92,1.57,1.78a20.94,20.94,0,0,1-.34,3.35q-.35,2.06-1,4.68c-.41,1.76-.72,3.13-.92,4.11s-1,4.53-2.39,10.66-2.34,10.83-2.84,14.12-1,8-1.64,14-1,10.13-1.3,12.14a74.51,74.51,0,0,1-1.74,8.17q-1.33,5.16-1.61,6.66a33.19,33.19,0,0,0-.41,3.86c-.09,1.58-.23,3.06-.41,4.45a38.55,38.55,0,0,1-.82,4.27q-1.1,4.79-4.38,4.78l-1.57-1.29q0-22.85-12.44-77.66c-.14-.64-.52-2.1-1.16-4.38q-2.6-9.28-2.6-9.91a1.78,1.78,0,0,1,.62-1.23,1.88,1.88,0,0,1,1.36-.61c.5,0,1,.4,1.58,1.19a10.79,10.79,0,0,1,1.36,3.15c.37,1.3.69,2.56,1,3.79s.52,2.47.75,3.73.51,2.54.86,3.86.78,3.2,1.33,5.64,1,4.66,1.47,6.66.91,4.41,1.44,7.22.94,5,1.26,6.63.73,4,1.23,7.14.87,5.34,1.09,6.6.61,3.63,1.13,7.14.84,5.71,1,6.6.45,3.28,1,7.17.9,6.17,1,6.81q2.87-9.51,4.78-26.87t5.61-35.72q3.69-18.35,4.3-22Zm-20.58,19.76v.27h-.13C1048.44,333.24,1048.48,333.15,1048.57,333.15Zm3.9,66-.14.27.14.27Z"/>
      <path class="cls-2" d="M1090.41,404.59l8.41-.48q6.56,0,6.56,2.25a5.69,5.69,0,0,1-4.17,2.63,30.46,30.46,0,0,1-5.81.59h-3.28c-4.2,0-6.61-.34-7.25-1a3,3,0,0,1-1-2.08l1.3-5.2V401a32.59,32.59,0,0,1-.54-6.15l.68-14.29-.82-29.94.68-27.82a45.64,45.64,0,0,0-.89-7.49,54.48,54.48,0,0,1-1-7.28l2.53-3.89,9.77-1.23.48.41c2.19,0,3.45.28,3.79.85a3.39,3.39,0,0,1,.52,1.81q0,2.67-5.06,2.67l-3.76-.28c-2.05,0-3.08.55-3.08,1.64l1.1,23.79-.69,17.5-.27.28.82.48,7.72-1.44a2.54,2.54,0,0,1,1.64.79,2.17,2.17,0,0,1,.89,1.6c0,1.87-.7,2.81-2.12,2.81l-3.21-.14q-5.32,0-5.33,2.66l1,11.76-.47.82v28.44q.75.89.75,3.9Z"/>
      <path class="cls-2" d="M1119.05,306.15l-.27-2.53c0-.82.93-1.23,2.8-1.23q5.75,0,8.78,3.21a16.06,16.06,0,0,1,4,6.91q1,3.69,1.54,5.6a26.29,26.29,0,0,1,1.16,6.5q0,7-3.9,16.95a48.68,48.68,0,0,0-2.53,7q0,6.84,5.47,27.58t9,29.43c0,3.06-.62,4.58-1.85,4.58a2.81,2.81,0,0,1-2.36-1.26c-.61-.84-1-1.33-1.13-1.47q-.4-5.47-3.59-15.21c-2.11-6.5-3.41-10.82-3.89-13s-1.33-6.57-2.57-13.23-2.32-11.76-3.28-15.31l-1.09-.82-2.67,1.09v52.5l.28,3.49c0,1.87-.85,2.8-2.53,2.8a2.34,2.34,0,0,1-1.71-.65,2.18,2.18,0,0,1-.68-1.67l.47-.75.55-85Zm3.9.68-.69,30.56a71.54,71.54,0,0,0,.41,8.95h.28c.68,0,1.9-.95,3.65-2.87a28.93,28.93,0,0,0,3.63-4.58,17.44,17.44,0,0,0,1.6-5.67,44.53,44.53,0,0,0,.62-6.6,42.52,42.52,0,0,0-.38-5.5,58.94,58.94,0,0,0-1.19-6.22,14.31,14.31,0,0,0-2.6-5.57,5.25,5.25,0,0,0-4.17-2.22v-.42Z"/>
    </g>
    <g>
      <path class="cls-3" d="M602.77,709.42l.59,14c0,.87-.45,1.3-1.37,1.3l-1-.56a57.28,57.28,0,0,1-.8-10.37l.31-13.4a4.61,4.61,0,0,1-.46-1.65c.5-.82.74-3,.74-6.64q0-12.84-.42-14c.47-1.19.82-1.79,1.06-1.79h3.16a5.32,5.32,0,0,1,2.34.79,14.74,14.74,0,0,1,2.37,1.56c1.2,1.1,1.79,3.94,1.79,8.51,0,4.06-.17,6.51-.52,7.37a16.82,16.82,0,0,1-1.13,2.25,5.49,5.49,0,0,1-1.51,1.6,17.74,17.74,0,0,1-5.13,2.39Zm-.07-28.89.35,10.37-.28,6.78.45.71q5.28,0,5.52-11.08v-1.93c0-.78,0-1.43-.07-2a10.22,10.22,0,0,0-.33-1.79,4.7,4.7,0,0,0-.72-1.59,3.92,3.92,0,0,0-3.34-1.44,1.45,1.45,0,0,0-1.27.46A2.67,2.67,0,0,0,602.7,680.53Z"/>
      <path class="cls-3" d="M621.4,721.66l6.78.21h.22a1,1,0,0,1,.73.4,1.25,1.25,0,0,1,.36.83c0,.54-.39.84-1.16.91-1.25,0-3.24-.07-6-.07l.14.07-2.67.25q-1,0-1.2-1.65a13.33,13.33,0,0,0,.14-2.39l.42-38.39.36-4.75c0-.33.17-.49.52-.49l1.2.28-.07,5.7.07,15.67q-.21,5.91-.21,6l.14,6.12-.21.6.07-.07-.07.56a2.26,2.26,0,0,0,.21,1l-.21,6.89v.46a8.63,8.63,0,0,0,.07,1.45C621.09,721.55,621.21,721.66,621.4,721.66Z"/>
      <path class="cls-3" d="M645.17,712.59l-1.9.07a5.85,5.85,0,0,0-2.25-.42,5.59,5.59,0,0,0-1.34.07.34.34,0,0,0-.14.24,1.15,1.15,0,0,1-.07.25l-.14,1.44a36.07,36.07,0,0,1-.67,4.4q-1,5-2.07,5a1.59,1.59,0,0,1-1-.38,1.08,1.08,0,0,1-.49-.85,62.12,62.12,0,0,0,1.89-8.19c.66-3.66,1.07-5.93,1.23-6.84s.47-2.72.92-5.46.74-4.55.88-5.42.52-2.74,1.14-5.62,1-4.77,1.12-5.66.28-2.1.44-3.62a34.16,34.16,0,0,1,1-6.26l1,.07A1.78,1.78,0,0,0,646,675a1.51,1.51,0,0,1,.88.3.91.91,0,0,1,.42.79q0,3.43.88,13.32t1.39,12.78q.51,2.89,1.17,5.7a19.65,19.65,0,0,1,.67,4.27l-.35,1a27.65,27.65,0,0,0,.6,4.76,27.82,27.82,0,0,1,.6,4.43c0,.86-.19,1.39-.57,1.6-1,0-1.58-.14-1.81-.42a2.19,2.19,0,0,1-.33-1.35c0-.62,0-1.38-.12-2.29s-.17-1.62-.25-2.16-.22-1.39-.42-2.55-.32-1.9-.37-2.23A13.3,13.3,0,0,0,645.17,712.59ZM640.1,709c0,.49.58.9,1.73,1.23a21.63,21.63,0,0,0,5.83.74h.74a10.34,10.34,0,0,1-.46-3.24v-1.65a109.54,109.54,0,0,0-1.11-13,125.5,125.5,0,0,1-1.17-12.72q-3.76,18.58-4.66,23A37.52,37.52,0,0,0,640.1,709Z"/>
      <path class="cls-3" d="M668,707.77l.07,11.43c0,3.47-.51,5.2-1.51,5.2a1,1,0,0,1-.6-.28,1.42,1.42,0,0,1-.46-.53q.71-1.76.7-12.58c0-1.41-.08-3.41-.26-6s-.28-4.3-.3-5.09l-.46-.92.22-.88Q664.5,696,662,689q-3.59-10-3.66-11.64l1-.77q.71.1,2.11,4.59c.94,3,1.85,6,2.76,9s1.54,4.55,1.91,4.64l.28-1.3-.14-.35q.54-.63,1.39-5.12c.58-3,1.19-5.82,1.85-8.51s1.29-4,1.9-4,.91.26.91.77a18,18,0,0,1-.77,3.5c-.52,1.82-1,3.47-1.44,5s-.78,2.66-1,3.49-.47,1.85-.75,3.09a28.35,28.35,0,0,0-.85,6.57,4,4,0,0,1,.36,1.23l-.43,2.08Z"/>
      <path class="cls-3" d="M698.53,712.59l-1.9.07a5.85,5.85,0,0,0-2.25-.42,5.47,5.47,0,0,0-1.33.07.34.34,0,0,0-.14.24,2.33,2.33,0,0,1-.07.25l-.14,1.44a38.14,38.14,0,0,1-.67,4.4q-1,5-2.08,5a1.61,1.61,0,0,1-1-.38,1.11,1.11,0,0,1-.49-.85,61.8,61.8,0,0,0,1.9-8.19c.66-3.66,1.07-5.93,1.23-6.84s.47-2.72.92-5.46l.87-5.42q.23-1.31,1.15-5.62c.62-2.89,1-4.77,1.12-5.66s.28-2.1.44-3.62a34.16,34.16,0,0,1,1-6.26l1,.07a1.8,1.8,0,0,0,1.3-.42,1.48,1.48,0,0,1,.87.3.9.9,0,0,1,.43.79q0,3.43.88,13.32t1.38,12.78c.34,1.93.74,3.83,1.18,5.7a19.65,19.65,0,0,1,.67,4.27l-.35,1a27.65,27.65,0,0,0,.6,4.76,28.68,28.68,0,0,1,.59,4.43c0,.86-.18,1.39-.56,1.6-1,0-1.59-.14-1.81-.42a2.19,2.19,0,0,1-.33-1.35c0-.62,0-1.38-.13-2.29s-.16-1.62-.24-2.16-.23-1.39-.42-2.55-.33-1.9-.37-2.23A13.45,13.45,0,0,0,698.53,712.59ZM693.47,709c0,.49.57.9,1.72,1.23A21.75,21.75,0,0,0,701,711h.74a10.34,10.34,0,0,1-.46-3.24v-1.65a109.54,109.54,0,0,0-1.11-13A126.21,126.21,0,0,1,699,680.39q-3.75,18.58-4.65,23A37.52,37.52,0,0,0,693.47,709Z"/>
      <path class="cls-3" d="M728.87,709l.28,11q-3.72,3.72-7.34,3.72c-3.19,0-5.28-.65-6.28-2s-1.78-4.35-2.36-9.14a99.53,99.53,0,0,1-.86-10.21q0-3,.36-6.7c.23-2.43.42-4.76.56-7a33.55,33.55,0,0,1,.74-5.58q1.71-7.59,8.15-7.59,2.22,0,2.22,1a.9.9,0,0,1-.48.79,1.77,1.77,0,0,1-1,.3l-1.38-.14c-1.61,0-2.88,1-3.79,3.09a24,24,0,0,0-1.85,6.37c-.24,1.94-.43,3.49-.54,4.64s-.2,2.46-.25,3.93c-.07,2.23-.1,4.3-.1,6.23a39.81,39.81,0,0,0,.21,4.6,6.63,6.63,0,0,1,.73,2.87q.18,2,.3,4a25.49,25.49,0,0,0,.57,4,5.71,5.71,0,0,0,1.88,3.2,5.85,5.85,0,0,0,3.93,1.23q4.33,0,4.33-11.5V705a3.52,3.52,0,0,0-2.53-.74l-1.37.07c-1.15,0-1.73-.28-1.73-.84,0-.82.58-1.23,1.73-1.23q6.65,0,6.64,1.44Z"/>
      <path class="cls-3" d="M746.17,712.59l-1.9.07a5.85,5.85,0,0,0-2.25-.42,5.59,5.59,0,0,0-1.34.07.38.38,0,0,0-.14.24.77.77,0,0,1-.07.25l-.14,1.44a35.81,35.81,0,0,1-.66,4.4q-1,5-2.08,5a1.61,1.61,0,0,1-1-.38,1.08,1.08,0,0,1-.49-.85,61.8,61.8,0,0,0,1.9-8.19c.65-3.66,1.06-5.93,1.23-6.84s.47-2.72.91-5.46.74-4.55.88-5.42.52-2.74,1.14-5.62,1-4.77,1.13-5.66.27-2.1.44-3.62c.4-3.75.71-5.84,1-6.26l1,.07A1.77,1.77,0,0,0,747,675a1.48,1.48,0,0,1,.88.3.91.91,0,0,1,.42.79q0,3.43.88,13.32t1.39,12.78q.51,2.89,1.18,5.7a20.29,20.29,0,0,1,.67,4.27l-.35,1a27.41,27.41,0,0,0,.59,4.76,27.82,27.82,0,0,1,.6,4.43c0,.86-.19,1.39-.56,1.6-1,0-1.59-.14-1.81-.42a2.12,2.12,0,0,1-.34-1.35c0-.62,0-1.38-.12-2.29s-.16-1.62-.25-2.16-.22-1.39-.42-2.55-.32-1.9-.37-2.23A13.3,13.3,0,0,0,746.17,712.59ZM741.11,709c0,.49.57.9,1.72,1.23a21.7,21.7,0,0,0,5.84.74h.73a10.66,10.66,0,0,1-.45-3.24v-1.65a109.54,109.54,0,0,0-1.11-13,126.21,126.21,0,0,1-1.18-12.72q-3.76,18.58-4.66,23A38.39,38.39,0,0,0,741.11,709Z"/>
      <path class="cls-3" d="M771.62,722.75l-2.39-.25a3,3,0,0,0-1.33.41,4,4,0,0,1-1.85.4c-.72,0-1.17-.23-1.35-.7l-1.2.07c-1,0-1.69-.25-2-.74a.92.92,0,0,1,.41-.76,2.53,2.53,0,0,0,.54-.47h2.08l.28-.28.24-1.51-.52-15.75.35-16.81c0-3.26-.12-6-.35-8.33a8.13,8.13,0,0,0-2.15-.21l-1.72.14c-.92,0-1.37-.41-1.37-1.23,0-.21.21-.41.65-.6a2.78,2.78,0,0,1,1.07-.28q10,0,10,2.18a1.31,1.31,0,0,1-.18.56l-1.65.14a3.63,3.63,0,0,0-2.07-.42l-.35.21a18.75,18.75,0,0,1,.21,3.83l-.21,17.13.49,15.78-.07,2.22a5.17,5.17,0,0,0,.21,2l-.07.17c0,.47.53.71,1.58.71l2.11-.07c1.43,0,2.14.34,2.14,1a1.32,1.32,0,0,1-.45,1A1.65,1.65,0,0,1,771.62,722.75Z"/>
      <path class="cls-3" d="M800,679.47l-.14-1.79c0-1,.34-1.51,1-1.51a1.31,1.31,0,0,1,1.14.66,2.57,2.57,0,0,1,.44,1.41v4.82l-.39.59q0,5.63-.77,21.78t-1.51,17.67l-1,.26a5.15,5.15,0,0,1-1.21.23c-.24,0-.45-.16-.64-.47a4.13,4.13,0,0,1-.43-1.25,4.31,4.31,0,0,0-.3-1l.07-.21a36.83,36.83,0,0,0-1.88-6.84q-1.42-3.84-1.85-5.18a55.42,55.42,0,0,1-1.93-5.38q-6.48-20.09-8.16-21.69a20.83,20.83,0,0,0-.56,5.06l.14,5.66-.14,3.48c0,.54.09,2.21.28,5H782q0,12,.49,13.25v6.47a2.5,2.5,0,0,1,.28,1.26c0,1.13-.44,1.69-1.33,1.69s-1.52-1.29-1.52-3.87l.29-4.71-.46-20.7.46-12.77v-1.26a9,9,0,0,1,.05-1.27c0-.21.07-.46.1-.75a2.82,2.82,0,0,1,.16-.69c.07-.16.15-.35.25-.56a2.8,2.8,0,0,1,.74-1l.21.25.7-.18a1.41,1.41,0,0,1,1,1.13,2.6,2.6,0,0,0,.09.4,3.65,3.65,0,0,1,.09.37,96.1,96.1,0,0,0,5.17,14.31c2.62,6.11,4.22,10,4.78,11.79s1.07,3.59,1.51,5.54a35.18,35.18,0,0,0,3.24,9.46l.14-.21A386.74,386.74,0,0,0,800,679.47Zm-1.51,43.91a.06.06,0,0,1,.07.07Z"/>
      <path class="cls-3" d="M810.8,715.7a1.83,1.83,0,0,1-.47-1.21,1.85,1.85,0,0,1,.58-1.29,1.7,1.7,0,0,1,1.25-.61,1.59,1.59,0,0,1,1.21.61,1.92,1.92,0,0,1,.55,1.25c0,1.2-.67,1.79-2,1.79A1.45,1.45,0,0,1,810.8,715.7Zm.71-27.21a1.79,1.79,0,0,1-.48-1.21,1.9,1.9,0,0,1,.58-1.29,1.72,1.72,0,0,1,1.25-.61,1.63,1.63,0,0,1,1.23.61,1.84,1.84,0,0,1,.56,1.25c0,1.2-.68,1.79-2,1.79A1.41,1.41,0,0,1,811.51,688.49Z"/>
    </g>
    <g>
      <path class="cls-3" d="M1164.23,704l.28,11q-3.72,3.72-7.34,3.72c-3.19,0-5.28-.65-6.28-2s-1.78-4.35-2.35-9.14a97.45,97.45,0,0,1-.87-10.21q0-3,.36-6.7c.23-2.43.42-4.76.56-7a33.55,33.55,0,0,1,.74-5.58q1.71-7.59,8.15-7.59,2.22,0,2.22,1a.9.9,0,0,1-.48.79,1.77,1.77,0,0,1-1,.3l-1.38-.14c-1.61,0-2.88,1-3.79,3.09a24,24,0,0,0-1.85,6.37c-.24,1.94-.43,3.49-.54,4.64s-.2,2.46-.25,3.93c-.07,2.23-.1,4.3-.1,6.23a39.81,39.81,0,0,0,.21,4.6,6.63,6.63,0,0,1,.73,2.87q.18,2,.3,4a25.49,25.49,0,0,0,.57,4,5.71,5.71,0,0,0,1.88,3.2,5.85,5.85,0,0,0,3.93,1.23q4.33,0,4.33-11.5V700a3.52,3.52,0,0,0-2.53-.74l-1.37.07c-1.15,0-1.73-.28-1.73-.84,0-.82.58-1.23,1.73-1.23q6.64,0,6.64,1.44Z"/>
      <path class="cls-3" d="M1188.28,690.5l.14,8.58q0,16.21-5.2,19.72a4.88,4.88,0,0,1-2.85.88q-8.44,0-8.44-26.51a97.58,97.58,0,0,1,1.41-17.75c.7-3.66,1.77-5.48,3.2-5.48a1.41,1.41,0,0,1,.93.38,3.42,3.42,0,0,0,1.19.65,14,14,0,0,0,2.08.51l1.88.35c1,.17,1.89,1.09,2.78,2.78q3,5.13,3,15.54Zm-14.1,2.6.14,5.7a53.61,53.61,0,0,0,1.55,13,13,13,0,0,0,1.67,4,3.11,3.11,0,0,0,2.53,1.72,3.44,3.44,0,0,0,2.5-1.06,7.32,7.32,0,0,0,1.7-2.93,38.74,38.74,0,0,0,1.06-3.83,30.79,30.79,0,0,0,.59-4.38q.28-3.87.29-6.89l-.81-17-.28-.56.14-.35a8.78,8.78,0,0,0-1.76-5.45,5.22,5.22,0,0,0-4.29-2.32h-3q-.6,0-1.06,6.42c-.3,4.27-.5,6.65-.6,7.11Z"/>
      <path class="cls-3" d="M1217.18,673.17l-3.9-.49-.36.42.14.28a27,27,0,0,0-.14,4.11q0,3.84,1.2,17.92t1.19,21.11a1.44,1.44,0,0,1-1.37,1.37l-.81-.6-.14-5.24.14-2.53a4.77,4.77,0,0,0-.28-1.72q0-6.12-.86-17.82t-.93-17.3q-5.65,0-6-1.37a1.31,1.31,0,0,1,1.37-.81l9.78.67,1.3-.07c.87,0,1.3.3,1.3.91a1,1,0,0,1-.53.83A2,2,0,0,1,1217.18,673.17Z"/>
      <path class="cls-3" d="M1241.26,690.5l.14,8.58q0,16.21-5.2,19.72a4.88,4.88,0,0,1-2.85.88q-8.44,0-8.44-26.51a97.58,97.58,0,0,1,1.41-17.75c.7-3.66,1.77-5.48,3.2-5.48a1.41,1.41,0,0,1,.93.38,3.42,3.42,0,0,0,1.19.65,14,14,0,0,0,2.08.51l1.88.35c1,.17,1.89,1.09,2.78,2.78q3,5.13,3,15.54Zm-14.1,2.6.14,5.7a53.61,53.61,0,0,0,1.55,13,13,13,0,0,0,1.67,4,3.11,3.11,0,0,0,2.53,1.72,3.44,3.44,0,0,0,2.5-1.06,7.32,7.32,0,0,0,1.7-2.93,36.18,36.18,0,0,0,1.06-3.83,30.79,30.79,0,0,0,.59-4.38q.28-3.87.29-6.89l-.81-17-.28-.56.14-.35a8.78,8.78,0,0,0-1.76-5.45,5.22,5.22,0,0,0-4.29-2.32h-3q-.6,0-1.06,6.42c-.3,4.27-.5,6.65-.6,7.11Z"/>
      <path class="cls-3" d="M1269.31,670.32a1.12,1.12,0,0,1,.64-.31,8.23,8.23,0,0,1,1.51.42q0,5.63.46,16.82t.45,18c0,4.55.16,8.9.46,13l-.46.81c0-.49-.78-.74-2.21-.74q-.36-16-.35-19.3l-.18-.28.25-.63a18.14,18.14,0,0,0-.25-2.68l-1.12-.28a4.66,4.66,0,0,1-1.45.21l-4.6-.73-.74.28-.21,9.07.21.31.42,12c0,1.24-.4,1.86-1.19,1.86-1.06,0-1.58-1.44-1.58-4.32l.14-13.19a48.83,48.83,0,0,0-.22-7c.24-.47.36-2.06.36-4.78l-.53-16.84a1.4,1.4,0,0,1,.37-.93,1.09,1.09,0,0,1,.86-.44c1,0,1.44,1.39,1.44,4.18l-.28,17.58c0,.56,1.92.85,5.77.85a3.09,3.09,0,0,0,2-.51c.41-.34.62-1.29.62-2.83s-.16-4.53-.48-9-.47-7.73-.47-9.93A1,1,0,0,1,1269.31,670.32Zm-1.47,22,.14.14h-.14Z"/>
      <path class="cls-3" d="M1296.42,690.5l.14,8.58q0,16.21-5.2,19.72a4.88,4.88,0,0,1-2.85.88q-8.44,0-8.44-26.51a97.58,97.58,0,0,1,1.41-17.75c.7-3.66,1.77-5.48,3.2-5.48a1.41,1.41,0,0,1,.93.38,3.42,3.42,0,0,0,1.19.65,14,14,0,0,0,2.08.51l1.88.35c1,.17,1.89,1.09,2.78,2.78q3,5.13,3,15.54Zm-14.1,2.6.14,5.7a53.61,53.61,0,0,0,1.55,13,13,13,0,0,0,1.67,4,3.11,3.11,0,0,0,2.53,1.72,3.44,3.44,0,0,0,2.5-1.06,7.32,7.32,0,0,0,1.7-2.93,36.18,36.18,0,0,0,1.06-3.83,30.79,30.79,0,0,0,.59-4.38q.29-3.87.29-6.89l-.81-17-.28-.56.14-.35a8.78,8.78,0,0,0-1.76-5.45,5.22,5.22,0,0,0-4.29-2.32h-3q-.6,0-1.06,6.42c-.3,4.27-.5,6.65-.6,7.11Z"/>
      <path class="cls-3" d="M1333.12,704l-.14,7.56a29.2,29.2,0,0,0,.71,7.48,3.06,3.06,0,0,1,.14.92,3,3,0,0,1-.44,1.3,1.32,1.32,0,0,1-1.15.81q-1.44,0-1.44-4.61,0-15-.23-18.3c-.15-2.19-.31-4-.49-5.32a27.58,27.58,0,0,1-.26-3.13l.28-8.93a13.19,13.19,0,0,0-.28-3.41q-1.41,1.13-8.65,30.34a7.39,7.39,0,0,0-.16,1.05q-.09.81-.21,1.5a14.34,14.34,0,0,1-.33,1.42c-.31,1.08-.8,1.62-1.48,1.62a2.08,2.08,0,0,1-1.67-.58,2.76,2.76,0,0,1-.47-1.78q0-3-3.73-17.86t-5-16.13q-.18,3.86-.64,11.84-.95,16.63-1,22.33t.08,6.64a1.42,1.42,0,0,1-1.52.95,1.47,1.47,0,0,1-.73-.38c-.33-.26-.5-.47-.5-.64q0-7.59,1.13-22.71t1.12-22.71l-.42-1.37c0-.73.65-1.09,1.93-1.09a1.36,1.36,0,0,1,1.41,1.12,8.44,8.44,0,0,1,.3,1.82,18.7,18.7,0,0,0,.26,2.1,28.13,28.13,0,0,0,1.85,4.86,44.43,44.43,0,0,1,2,5c.23.87.53,1.93.91,3.2q1.15,4.11,1.55,6.19l.95,1.9c.14.79.41,2,.8,3.51a38.79,38.79,0,0,1,1.27,7.77q.84-1.26,4.54-14.89t4-15.41q.33-1.8.48-2.73a12.57,12.57,0,0,1,.28-1.47c.09-.37.22-.81.38-1.32a1.85,1.85,0,0,1,1.76-1.48,2.26,2.26,0,0,1,1.13.42c.44.28.66.58.66.88Q1332.17,702.39,1333.12,704Zm-3.3-26.05h-.07l-.11.07.18.07Z"/>
      <path class="cls-3" d="M1341.31,717.75l.07-1.83-.24-.28a8.58,8.58,0,0,0,.53-2.95l-.36-9.5.5-21.69-.28-8.61a1.82,1.82,0,0,1,2.07-2,1.35,1.35,0,0,1,1.16.46c.16,0,.86.14,2.07.28,3,.33,4.47.92,4.54,1.79,0,.38-.46.83-1.37,1.37a24.83,24.83,0,0,0-5.84-1.37l-.35.42c0,.68.07,1.71.07,3.1l-.28,11.18c0,1.33.34,2,1,2l2.42-.14c1.83,0,2.77.43,2.82,1.3a2.36,2.36,0,0,1-.37,1.3,1.46,1.46,0,0,1-1.32.56,1.71,1.71,0,0,1-1.41-.56l-2.35-.35h-.32l-.35.35v.21c.09,1.24.14,3.14.14,5.7l-.14,10.23q0,7.17,1,7.94a3.71,3.71,0,0,0,2.32.53l2.68-.14c1.4,0,2.11.32,2.11,1,0,.87-1,1.3-3.13,1.3h-5.94C1341.87,719.26,1341.38,718.76,1341.31,717.75Z"/>
      <path class="cls-3" d="M1359.19,710.7a1.83,1.83,0,0,1-.47-1.21,1.85,1.85,0,0,1,.58-1.29,1.68,1.68,0,0,1,1.24-.61,1.61,1.61,0,0,1,1.22.61,1.9,1.9,0,0,1,.54,1.25c0,1.2-.67,1.79-2,1.79A1.45,1.45,0,0,1,1359.19,710.7Zm.7-27.21a1.83,1.83,0,0,1-.47-1.21A1.85,1.85,0,0,1,1360,681a1.7,1.7,0,0,1,1.25-.61,1.66,1.66,0,0,1,1.23.61,1.88,1.88,0,0,1,.56,1.25c0,1.2-.68,1.79-2,1.79A1.45,1.45,0,0,1,1359.89,683.49Z"/>
    </g>
    <g>
      <path class="cls-3" d="M673.56,517.93l.07-2.89q0-4.21-.49-9.8c-.33-3.73-.52-6.05-.6-7-.21-.44-.32-3.45-.35-9s-.07-8.66-.15-9.27a11.4,11.4,0,0,0-.6-2.18,6,6,0,0,1-.48-2q0-1.72,5.42-1.72h.35c1.83,0,3.8,1,5.9,3a16.84,16.84,0,0,1,4.14,5.45,21.24,21.24,0,0,1,1.28,5.82q.32,3.39.44,6.2a11.94,11.94,0,0,0,.47,3.55l-.14,1.94.21.35-.21.6.21.35a3.79,3.79,0,0,0-.42,2,20.67,20.67,0,0,1-.14,2.46c-.09.75-.19,1.34-.28,1.76s-.25,1.05-.48,1.88-.55,2.16-1,4q-2,7.74-6.54,11.43t-5.39,3.69a4.2,4.2,0,0,1-1.69-.37,1.41,1.41,0,0,1-1-1.07,5.16,5.16,0,0,0,1.13-2.89Zm.22-40.47.63,12q0,4.65.54,13.77t.55,12.34q0,3.21-.14,7.08l.14.28v2h.35a14.9,14.9,0,0,0,4.78-4.13,22.75,22.75,0,0,0,3.22-5.62,41.43,41.43,0,0,0,1.88-6.42,55.57,55.57,0,0,0,1.16-11q0-21.06-11.6-21.06C674.33,476.65,673.82,476.92,673.78,477.46Z"/>
      <path class="cls-3" d="M712.41,500.63l.14,8.58q0,16.2-5.2,19.72a4.84,4.84,0,0,1-2.85.88q-8.43,0-8.44-26.51a97.51,97.51,0,0,1,1.41-17.75q1-5.49,3.2-5.49a1.37,1.37,0,0,1,.93.39,3.55,3.55,0,0,0,1.2.65,13.53,13.53,0,0,0,2.07.51l1.88.35c1,.17,1.89,1.09,2.78,2.78q3,5.13,3,15.54Zm-14.1,2.6.15,5.7A53.67,53.67,0,0,0,700,522a13.19,13.19,0,0,0,1.67,4,3.1,3.1,0,0,0,2.53,1.73,3.48,3.48,0,0,0,2.5-1.06,7.3,7.3,0,0,0,1.7-2.94,33.37,33.37,0,0,0,1.06-3.83,32.28,32.28,0,0,0,.6-4.37c.18-2.58.28-4.88.28-6.89l-.81-17-.28-.56.14-.35a8.76,8.76,0,0,0-1.76-5.45,5.22,5.22,0,0,0-4.29-2.32h-3c-.4,0-.75,2.13-1.06,6.41s-.5,6.65-.59,7.12Z"/>
      <path class="cls-3" d="M740.4,484.6l-.14-1.79c0-1,.33-1.52,1-1.52a1.35,1.35,0,0,1,1.14.67,2.57,2.57,0,0,1,.44,1.41v4.81l-.39.6q0,5.63-.77,21.78t-1.51,17.67l-1,.26a5.87,5.87,0,0,1-1.21.23c-.24,0-.45-.16-.64-.48a4,4,0,0,1-.44-1.24,3.51,3.51,0,0,0-.3-1l.07-.21a35,35,0,0,0-1.88-6.84q-1.43-3.85-1.84-5.19a51.44,51.44,0,0,1-1.94-5.38q-6.47-20.07-8.15-21.69a20.48,20.48,0,0,0-.56,5.07l.14,5.66-.14,3.48c0,.53.09,2.21.28,5h-.21c0,8,.16,12.41.49,13.26v6.47a2.48,2.48,0,0,1,.28,1.26c0,1.13-.45,1.69-1.34,1.69s-1.51-1.29-1.51-3.87l.28-4.71-.45-20.71.45-12.76v-1.26a8.39,8.39,0,0,1,.06-1.27c0-.21.07-.46.1-.76a2.72,2.72,0,0,1,.16-.68c.07-.16.15-.35.25-.56a2.7,2.7,0,0,1,.73-1l.21.24.71-.17a1.42,1.42,0,0,1,1,1.12,2.61,2.61,0,0,0,.09.41,3.06,3.06,0,0,1,.09.37,95.66,95.66,0,0,0,5.17,14.3q3.93,9.18,4.78,11.8c.56,1.75,1.06,3.59,1.51,5.54A35,35,0,0,0,738.6,524l.14-.21A383.12,383.12,0,0,0,740.4,484.6Zm-1.52,43.91s.08,0,.08.07Z"/>
      <path class="cls-3" d="M754,479.18a3.67,3.67,0,0,1-2.11-3.16,1.89,1.89,0,0,1,.86-1.6,3.17,3.17,0,0,1,1.88-.61c1.11,0,1.9.69,2.4,2.07l-.15.21a3,3,0,0,1,.15,1.18,8.88,8.88,0,0,1-.88,2.93,15.15,15.15,0,0,1-2.29,3.73,3.87,3.87,0,0,1-2.6,1.72l-1.16-.56.14-.63Q754,481.43,754,479.18Z"/>
      <path class="cls-3" d="M775.38,483.3l-3.91-.49-.35.42.14.28a27,27,0,0,0-.14,4.11q0,3.84,1.2,17.91t1.19,21.12a1.46,1.46,0,0,1-1.37,1.37l-.81-.6-.14-5.24.14-2.53a4.74,4.74,0,0,0-.28-1.72q0-6.12-.86-17.83t-.93-17.29q-5.65,0-6-1.38a1.32,1.32,0,0,1,1.37-.8l9.78.66,1.3-.07c.86,0,1.3.31,1.3.92a1,1,0,0,1-.53.82A1.89,1.89,0,0,1,775.38,483.3Z"/>
      <path class="cls-3" d="M802,495.74l-.15,4.61q0,3.27,2.47,12,3,10.47,5.06,13.29a5.77,5.77,0,0,1,1.4,2.67q0,1.44-1.23,1.44-1.68,0-4.06-6.47a115.13,115.13,0,0,1-4-13.38,63.18,63.18,0,0,1-1.72-9.4l-.18-.28q-.24.53-1.14,2.34c-.6,1.2-1,2.06-1.25,2.58a13,13,0,0,0-1,5.1l-.35,5.17v9.21l.49,4.11a.72.72,0,0,1-.37.63,1.82,1.82,0,0,1-1,.25,1.46,1.46,0,0,1-1-.3,1.64,1.64,0,0,1-.33-1.21V514.55l.67-9.07.7-13.92v-10a1.23,1.23,0,0,1,1.14-.8,1.59,1.59,0,0,1,1.18.42,1.32,1.32,0,0,1,.42.95,7.68,7.68,0,0,0-.63,3.55q0,2.38-.14,7.49c-.1,3.39-.14,5.94-.14,7.63q.71-.29,5.6-9.94t5.4-9.65c1.22,0,1.86.4,1.93,1.2A100.12,100.12,0,0,0,802,495.74Z"/>
      <path class="cls-3" d="M828.71,527.88l-2.39-.25a3,3,0,0,0-1.34.4,3.9,3.9,0,0,1-1.84.41c-.72,0-1.17-.24-1.36-.7l-1.19.07c-1,0-1.69-.25-2-.74a.9.9,0,0,1,.4-.76,4,4,0,0,0,.55-.47h2.07l.28-.28.25-1.52-.53-15.75.35-16.8a82,82,0,0,0-.35-8.33,8,8,0,0,0-2.14-.21l-1.72.14q-1.38,0-1.38-1.23c0-.21.22-.41.65-.6a2.86,2.86,0,0,1,1.08-.28q10,0,10,2.18a1.31,1.31,0,0,1-.18.56l-1.65.14a3.69,3.69,0,0,0-2.08-.42l-.35.21a18.75,18.75,0,0,1,.21,3.83l-.21,17.12.49,15.79-.07,2.21a4.92,4.92,0,0,0,.22,2l-.07.17c0,.47.52.71,1.58.71l2.11-.08c1.43,0,2.14.34,2.14,1a1.3,1.3,0,0,1-.46,1A1.63,1.63,0,0,1,828.71,527.88Z"/>
      <path class="cls-3" d="M848,528.09c0,.61-.41.91-1.23.91q-4.32.46-6.39.46l-.14.14H838c-.69,0-1.09-.55-1.24-1.65a10.5,10.5,0,0,0,.18-2.18l.28-31q0-6.09.07-7.12c0-.69.08-1.45.11-2.27s0-1.58.07-2.28l0-1.09c0-.19.11-.36.41-.51a1.12,1.12,0,0,1,.93-.07.89.89,0,0,1,.6.79l-.14,27.28v10.23q-.08,2.38-.07,7.56,1.86,0,7.27-.35a1.59,1.59,0,0,1,1,.19A1,1,0,0,1,848,528.09Zm5.1-1.09,7.28.07a1.6,1.6,0,0,1,1.39.37,1.48,1.48,0,0,1,.47,1.07c0,.4-.44.67-1.33.81-1.39-.05-3.6-.07-6.65-.07l-.14.14c-.54,0-1.12-.07-1.76-.07-1,0-1.54-.57-1.68-1.69a21.27,21.27,0,0,1-.07-2.14l.28-30.59c0-4.06,0-6.63.14-7.74l.14-5.09q0-.42.51-.42a4.77,4.77,0,0,1,1.56.42c0,2.18.06,4.08.18,5.69l-.25,21.87.14,6.15-.21.56.07-.07-.07.57a2.29,2.29,0,0,0,.21,1Z"/>
      <path class="cls-3" d="M888.33,517.72l-1.89.07a5.68,5.68,0,0,0-2.25-.43,6.29,6.29,0,0,0-1.34.07.36.36,0,0,0-.14.25,1.15,1.15,0,0,1-.07.25l-.14,1.44a37.69,37.69,0,0,1-.67,4.39q-1,5-2.07,5a1.52,1.52,0,0,1-1-.39,1.08,1.08,0,0,1-.5-.84,61,61,0,0,0,1.9-8.19q1-5.49,1.23-6.84c.17-.9.47-2.72.92-5.47s.74-4.54.88-5.41.52-2.74,1.14-5.63,1-4.77,1.12-5.66.28-2.09.44-3.62a34,34,0,0,1,.95-6.25l1,.07a1.78,1.78,0,0,0,1.3-.43,1.51,1.51,0,0,1,.88.3.94.94,0,0,1,.42.79q0,3.45.88,13.33t1.39,12.78q.51,2.9,1.17,5.69a19.82,19.82,0,0,1,.67,4.27l-.35,1a27.76,27.76,0,0,0,.6,4.76,27.82,27.82,0,0,1,.6,4.43c0,.86-.19,1.39-.57,1.6-1,0-1.58-.14-1.81-.42a2.19,2.19,0,0,1-.33-1.35c0-.63,0-1.39-.12-2.29s-.17-1.62-.25-2.16-.22-1.39-.42-2.55-.32-1.9-.37-2.23A12.91,12.91,0,0,0,888.33,517.72Zm-5.06-3.56c0,.5.58.91,1.72,1.24a21.77,21.77,0,0,0,5.84.73h.74a10.24,10.24,0,0,1-.46-3.23v-1.65a109.38,109.38,0,0,0-1.11-13,125.64,125.64,0,0,1-1.17-12.73q-3.76,18.6-4.66,23A37.46,37.46,0,0,0,883.27,514.16Z"/>
      <path class="cls-3" d="M922.86,484.6l-.14-1.79c0-1,.34-1.52,1-1.52a1.33,1.33,0,0,1,1.14.67,2.57,2.57,0,0,1,.44,1.41v4.81l-.39.6q0,5.63-.77,21.78t-1.51,17.67l-1,.26a5.75,5.75,0,0,1-1.21.23c-.24,0-.45-.16-.64-.48a4.33,4.33,0,0,1-.44-1.24,4,4,0,0,0-.29-1l.07-.21a35.77,35.77,0,0,0-1.89-6.84c-.94-2.57-1.56-4.3-1.84-5.19a53,53,0,0,1-1.93-5.38q-6.48-20.07-8.16-21.69a20.48,20.48,0,0,0-.56,5.07l.14,5.66-.14,3.48c0,.53.09,2.21.28,5h-.21c0,8,.16,12.41.49,13.26v6.47a2.48,2.48,0,0,1,.28,1.26c0,1.13-.44,1.69-1.34,1.69s-1.51-1.29-1.51-3.87L903,520l-.45-20.71.45-12.76v-1.26a8.39,8.39,0,0,1,.06-1.27c0-.21.07-.46.1-.76a2.72,2.72,0,0,1,.16-.68c.07-.16.15-.35.25-.56a2.7,2.7,0,0,1,.73-1l.22.24.7-.17a1.41,1.41,0,0,1,1,1.12,2.61,2.61,0,0,0,.09.41,3.06,3.06,0,0,1,.09.37,95.66,95.66,0,0,0,5.17,14.3q3.93,9.18,4.78,11.8c.56,1.75,1.06,3.59,1.51,5.54a35,35,0,0,0,3.23,9.45l.15-.21A386.39,386.39,0,0,0,922.86,484.6Zm-1.51,43.91a.06.06,0,0,1,.07.07Z"/>
      <path class="cls-3" d="M954.29,527.88l-2.39-.25a3,3,0,0,0-1.34.4,4,4,0,0,1-1.85.41,1.3,1.3,0,0,1-1.35-.7l-1.19.07c-1,0-1.69-.25-2-.74a.9.9,0,0,1,.4-.76,4,4,0,0,0,.55-.47h2.07l.28-.28.25-1.52-.53-15.75.35-16.8a82,82,0,0,0-.35-8.33,8,8,0,0,0-2.14-.21l-1.73.14c-.91,0-1.37-.41-1.37-1.23,0-.21.22-.41.65-.6a2.82,2.82,0,0,1,1.08-.28q10,0,10,2.18a1.27,1.27,0,0,1-.17.56l-1.65.14a3.69,3.69,0,0,0-2.08-.42l-.35.21a18.75,18.75,0,0,1,.21,3.83l-.21,17.12.49,15.79-.07,2.21a5.2,5.2,0,0,0,.21,2l-.07.17c0,.47.53.71,1.59.71l2.1-.08c1.43,0,2.15.34,2.15,1a1.3,1.3,0,0,1-.46,1A1.63,1.63,0,0,1,954.29,527.88Z"/>
      <path class="cls-3" d="M982.69,484.6l-.14-1.79c0-1,.34-1.52,1-1.52a1.33,1.33,0,0,1,1.14.67,2.49,2.49,0,0,1,.44,1.41v4.81l-.38.6q0,5.63-.78,21.78t-1.51,17.67l-1,.26a5.81,5.81,0,0,1-1.22.23q-.35,0-.63-.48a4,4,0,0,1-.44-1.24,3.87,3.87,0,0,0-.3-1l.07-.21a35,35,0,0,0-1.88-6.84q-1.42-3.85-1.84-5.19a51.44,51.44,0,0,1-1.94-5.38q-6.46-20.07-8.15-21.69a20.46,20.46,0,0,0-.57,5.07l.14,5.66-.14,3.48c0,.53.1,2.21.28,5h-.21c0,8,.17,12.41.5,13.26v6.47a2.58,2.58,0,0,1,.28,1.26c0,1.13-.45,1.69-1.34,1.69s-1.51-1.29-1.51-3.87l.28-4.71-.46-20.71.46-12.76v-1.26a10.76,10.76,0,0,1,0-1.27c0-.21.07-.46.11-.76a2.34,2.34,0,0,1,.16-.68l.24-.56a2.83,2.83,0,0,1,.74-1l.21.24.7-.17a1.44,1.44,0,0,1,1,1.12,2.61,2.61,0,0,0,.09.41,3.06,3.06,0,0,1,.09.37,96.54,96.54,0,0,0,5.16,14.3q3.95,9.18,4.78,11.8c.57,1.75,1.07,3.59,1.52,5.54A35,35,0,0,0,980.9,524l.14-.21A386.39,386.39,0,0,0,982.69,484.6Zm-1.51,43.91c.05,0,.07,0,.07.07Z"/>
      <path class="cls-3" d="M1013,484.6l-.14-1.79c0-1,.34-1.52,1-1.52a1.33,1.33,0,0,1,1.14.67,2.57,2.57,0,0,1,.44,1.41v4.81l-.39.6q0,5.63-.77,21.78t-1.51,17.67l-1,.26a5.75,5.75,0,0,1-1.21.23c-.24,0-.45-.16-.64-.48a4.33,4.33,0,0,1-.44-1.24,4,4,0,0,0-.29-1l.07-.21a36.42,36.42,0,0,0-1.88-6.84q-1.43-3.85-1.85-5.19a53,53,0,0,1-1.93-5.38q-6.48-20.07-8.16-21.69a20.48,20.48,0,0,0-.56,5.07l.14,5.66-.14,3.48c0,.53.09,2.21.28,5h-.21c0,8,.16,12.41.49,13.26v6.47a2.48,2.48,0,0,1,.28,1.26c0,1.13-.44,1.69-1.33,1.69s-1.52-1.29-1.52-3.87l.28-4.71-.45-20.71.45-12.76v-1.26a8.39,8.39,0,0,1,.06-1.27c0-.21.07-.46.1-.76a2.72,2.72,0,0,1,.16-.68c.07-.16.15-.35.25-.56a2.62,2.62,0,0,1,.74-1l.21.24.7-.17a1.41,1.41,0,0,1,1,1.12,2.61,2.61,0,0,0,.09.41,3.06,3.06,0,0,1,.09.37,95.66,95.66,0,0,0,5.17,14.3q3.93,9.18,4.78,11.8c.56,1.75,1.07,3.59,1.51,5.54a35,35,0,0,0,3.24,9.45l.14-.21A386.39,386.39,0,0,0,1013,484.6Zm-1.51,43.91a.06.06,0,0,1,.07.07Z"/>
      <path class="cls-3" d="M1039,500.63l.14,8.58q0,16.2-5.2,19.72a4.88,4.88,0,0,1-2.85.88q-8.44,0-8.44-26.51a97.51,97.51,0,0,1,1.41-17.75q1.05-5.49,3.2-5.49a1.39,1.39,0,0,1,.93.39,3.6,3.6,0,0,0,1.19.65,14,14,0,0,0,2.08.51l1.88.35c1,.17,1.89,1.09,2.78,2.78q3,5.13,3,15.54Zm-14.1,2.6.14,5.7a53.67,53.67,0,0,0,1.55,13,13,13,0,0,0,1.67,4,3.1,3.1,0,0,0,2.53,1.73,3.48,3.48,0,0,0,2.5-1.06,7.3,7.3,0,0,0,1.7-2.94,38,38,0,0,0,1.06-3.83,30.84,30.84,0,0,0,.59-4.37q.29-3.87.28-6.89l-.8-17-.29-.56.15-.35a8.76,8.76,0,0,0-1.76-5.45,5.22,5.22,0,0,0-4.29-2.32h-3c-.39,0-.75,2.13-1.05,6.41s-.5,6.65-.6,7.12Z"/>
      <path class="cls-3" d="M1049.1,499.36l-.28,14.52c0,4.06.39,7,1.16,8.72a7.2,7.2,0,0,0,3.41,4,6.6,6.6,0,0,0,2.73.6,3.12,3.12,0,0,0,2.12-.64c.73,0,1.09.26,1.09.78s-.32.79-1,1.25a8.92,8.92,0,0,1-1.78,1h-2.39a9.72,9.72,0,0,0-1.69-.63,7.66,7.66,0,0,1-2.26-1.15,7,7,0,0,1-2-2.49,13.83,13.83,0,0,1-1.3-4.06,52.28,52.28,0,0,1-.63-8.51v-8.23a81.5,81.5,0,0,1,.7-13.15q1.41-7.2,3.84-9.1a7.84,7.84,0,0,1,1.95-1,16.91,16.91,0,0,0,1.81-.79h2.88l.19,0,.2.05.19.06.18.05.16.07a.42.42,0,0,1,.14.09,1,1,0,0,1,.31.73l-1,1.06h-3a3.2,3.2,0,0,0-2.57,1.39,10.1,10.1,0,0,0-1.67,3.29,30.46,30.46,0,0,0-.93,4.39,52.67,52.67,0,0,0-.53,7.28Z"/>
      <path class="cls-3" d="M1066.15,527.88l.07-1.83-.24-.28a8.6,8.6,0,0,0,.53-3l-.36-9.49.5-21.69-.28-8.61a1.82,1.82,0,0,1,2.07-2,1.38,1.38,0,0,1,1.16.45c.16.05.86.14,2.07.29q4.44.48,4.54,1.79c0,.37-.46.83-1.37,1.37a24.32,24.32,0,0,0-5.84-1.37l-.35.42c0,.68.07,1.71.07,3.09l-.28,11.18q0,2,1,2l2.42-.14c1.83,0,2.77.43,2.82,1.3a2.38,2.38,0,0,1-.37,1.3,1.48,1.48,0,0,1-1.32.56,1.74,1.74,0,0,1-1.41-.56l-2.35-.35h-.32l-.35.35v.21c.09,1.24.14,3.14.14,5.69l-.14,10.24q0,7.17,1,7.94a3.78,3.78,0,0,0,2.32.53l2.68-.14c1.4,0,2.11.31,2.11,1,0,.86-1.05,1.3-3.13,1.3h-5.94C1066.71,529.39,1066.22,528.88,1066.15,527.88Z"/>
      <path class="cls-3" d="M1103.56,484.6l-.14-1.79c0-1,.34-1.52,1-1.52a1.33,1.33,0,0,1,1.14.67,2.49,2.49,0,0,1,.44,1.41v4.81l-.39.6q0,5.63-.77,21.78t-1.51,17.67l-1,.26a5.75,5.75,0,0,1-1.21.23.77.77,0,0,1-.63-.48A3.8,3.8,0,0,1,1100,527a4.31,4.31,0,0,0-.3-1l.07-.21a35.67,35.67,0,0,0-1.88-6.84q-1.43-3.85-1.85-5.19a53,53,0,0,1-1.93-5.38q-6.47-20.07-8.16-21.69a21,21,0,0,0-.56,5.07l.14,5.66-.14,3.48c0,.53.09,2.21.28,5h-.21c0,8,.16,12.41.49,13.26v6.47a2.48,2.48,0,0,1,.28,1.26c0,1.13-.44,1.69-1.33,1.69s-1.51-1.29-1.51-3.87l.28-4.71-.46-20.71.46-12.76v-1.26a8.87,8.87,0,0,1,0-1.27c0-.21.07-.46.11-.76a2.38,2.38,0,0,1,.15-.68l.25-.56a2.72,2.72,0,0,1,.74-1l.21.24.7-.17a1.44,1.44,0,0,1,1,1.12,3.54,3.54,0,0,0,.08.41,3.06,3.06,0,0,1,.09.37,96.82,96.82,0,0,0,5.17,14.3q3.94,9.18,4.78,11.8c.56,1.75,1.07,3.59,1.51,5.54a35.31,35.31,0,0,0,3.24,9.45l.14-.21A386.39,386.39,0,0,0,1103.56,484.6Zm-1.51,43.91s.07,0,.07.07Z"/>
      <path class="cls-3" d="M1124.58,483.3l-3.9-.49-.35.42.14.28a27,27,0,0,0-.14,4.11q0,3.84,1.2,17.91t1.19,21.12a1.46,1.46,0,0,1-1.37,1.37l-.81-.6-.14-5.24.14-2.53a4.74,4.74,0,0,0-.28-1.72q0-6.12-.86-17.83t-.93-17.29c-3.78,0-5.79-.46-6-1.38a1.32,1.32,0,0,1,1.37-.8l9.77.66,1.31-.07c.86,0,1.3.31,1.3.92a1,1,0,0,1-.53.82A1.9,1.9,0,0,1,1124.58,483.3Z"/>
      <path class="cls-3" d="M1171.9,514.09l-.14,7.56a29.29,29.29,0,0,0,.71,7.49,2.44,2.44,0,0,1-.3,2.22,1.29,1.29,0,0,1-1.14.8q-1.46,0-1.45-4.6,0-15-.22-18.3c-.16-2.19-.32-4-.5-5.33a27.44,27.44,0,0,1-.26-3.12l.28-8.93a13.19,13.19,0,0,0-.28-3.41q-1.41,1.13-8.65,30.34a7.39,7.39,0,0,0-.16,1.05c-.06.54-.13,1-.21,1.49a13.88,13.88,0,0,1-.33,1.43c-.31,1.08-.8,1.62-1.48,1.62a2.08,2.08,0,0,1-1.67-.58,2.83,2.83,0,0,1-.47-1.78q0-3-3.73-17.86t-5-16.14q-.18,3.87-.63,11.85-1,16.64-1,22.33c0,3.79,0,6,.07,6.64a1.34,1.34,0,0,1-2.25.56c-.33-.26-.5-.47-.5-.63q0-7.59,1.13-22.71t1.12-22.71l-.42-1.37c0-.73.65-1.09,1.94-1.09a1.35,1.35,0,0,1,1.4,1.12,7.87,7.87,0,0,1,.3,1.81,18.85,18.85,0,0,0,.26,2.11,29.07,29.07,0,0,0,1.85,4.85,44.33,44.33,0,0,1,2,5c.23.87.54,1.93.91,3.2q1.15,4.11,1.55,6.18l1,1.9c.14.8.41,2,.81,3.52a39.37,39.37,0,0,1,1.26,7.77q.84-1.27,4.54-14.89t4-15.42c.22-1.19.38-2.1.48-2.72a13.25,13.25,0,0,1,.28-1.48c.09-.36.22-.8.38-1.32.36-1,.94-1.47,1.76-1.47a2.26,2.26,0,0,1,1.13.42c.44.28.67.57.67.88Q1171,512.52,1171.9,514.09ZM1168.6,488h-.07l-.11.07.18.07Z"/>
      <path class="cls-3" d="M1195.92,500.63l.14,8.58q0,16.2-5.21,19.72a4.83,4.83,0,0,1-2.84.88q-8.44,0-8.44-26.51a98.49,98.49,0,0,1,1.4-17.75c.71-3.66,1.77-5.49,3.2-5.49a1.42,1.42,0,0,1,.94.39,3.6,3.6,0,0,0,1.19.65,13.7,13.7,0,0,0,2.08.51l1.88.35c1,.17,1.88,1.09,2.77,2.78q3,5.13,3,15.54Zm-14.1,2.6.14,5.7a53.18,53.18,0,0,0,1.55,13,13,13,0,0,0,1.67,4,3.09,3.09,0,0,0,2.53,1.73,3.45,3.45,0,0,0,2.49-1.06,7.19,7.19,0,0,0,1.71-2.94,35.49,35.49,0,0,0,1-3.83,32.28,32.28,0,0,0,.6-4.37q.29-3.87.28-6.89l-.81-17-.28-.56.14-.35a8.7,8.7,0,0,0-1.76-5.45,5.21,5.21,0,0,0-4.28-2.32h-3c-.4,0-.75,2.13-1,6.41s-.51,6.65-.6,7.12Z"/>
      <path class="cls-3" d="M1214.62,483.3l-3.9-.49-.35.42.14.28a25.55,25.55,0,0,0-.14,4.11q0,3.84,1.19,17.91t1.2,21.12a1.48,1.48,0,0,1-1.38,1.37l-.8-.6-.14-5.24.14-2.53a4.73,4.73,0,0,0-.29-1.72q0-6.12-.86-17.83t-.93-17.29c-3.77,0-5.79-.46-6-1.38a1.31,1.31,0,0,1,1.37-.8l9.77.66,1.3-.07c.87,0,1.3.31,1.3.92a.94.94,0,0,1-.53.82A1.89,1.89,0,0,1,1214.62,483.3Z"/>
      <path class="cls-3" d="M1232.9,480.45a1.16,1.16,0,0,1,.63-.32,7.6,7.6,0,0,1,1.51.43q0,5.63.46,16.82t.46,18q0,6.84.46,13l-.46.81c0-.5-.79-.74-2.22-.74q-.35-16-.35-19.3l-.17-.28.24-.64a17.74,17.74,0,0,0-.24-2.67l-1.13-.28a4.55,4.55,0,0,1-1.44.21l-4.61-.74-.73.28-.21,9.07.21.32.42,12c0,1.25-.4,1.87-1.2,1.87-1,0-1.58-1.44-1.58-4.33l.14-13.18a51.76,51.76,0,0,0-.21-7c.24-.47.35-2.06.35-4.78l-.52-16.84a1.43,1.43,0,0,1,.36-.93,1.1,1.1,0,0,1,.87-.44c1,0,1.44,1.39,1.44,4.18l-.28,17.58q0,.84,5.76.84a3.11,3.11,0,0,0,2-.51c.41-.34.61-1.28.61-2.83s-.16-4.53-.47-9-.48-7.72-.48-9.93A1,1,0,0,1,1232.9,480.45Zm-1.48,22,.14.14h-.14Z"/>
      <path class="cls-3" d="M1243.45,527.07a2.12,2.12,0,0,1,.74-1.46,2.2,2.2,0,0,1,1.61-.76,1.68,1.68,0,0,1,1.43.76,3.14,3.14,0,0,1,.54,1.88,1.7,1.7,0,0,1-1.79,1.9.57.57,0,0,0-.46-.39C1244.72,528.88,1244,528.24,1243.45,527.07Zm2.07-10-.07-.28V499.57l.18-12.3L1245.1,476a1.7,1.7,0,0,1,.76-1.34,2.54,2.54,0,0,1,1.58-.59c.55,0,.82.3.82.91q0,5.76-.75,17.21t-.76,17.21l.07,3.16a12.14,12.14,0,0,1-.56,4.26l.21.35Z"/>
      <path class="cls-3" d="M861,565.44a46.07,46.07,0,0,1,.59-5.61,59.15,59.15,0,0,1,1.75-7.93q1.15-3.93,2.32-4l.47.37a6.16,6.16,0,0,1-.75,2.53c-2.05,3.93-3.07,8.79-3.07,14.61q0,15.21,3.63,23.86c.13.29.45.91,1,1.86a9.84,9.84,0,0,1,1,2.26c-.23.39-.46.59-.67.59a1.14,1.14,0,0,1-.52-.11.94.94,0,0,1-.39-.4l-.27-.43a2.48,2.48,0,0,1-.4-1,50.84,50.84,0,0,1-3.43-12.39A88,88,0,0,1,861,565.44Z"/>
      <path class="cls-3" d="M882.66,567.5l.09,5.72q0,10.8-3.47,13.15a3.23,3.23,0,0,1-1.9.58q-5.62,0-5.62-17.67a64.84,64.84,0,0,1,.94-11.84c.46-2.43,1.18-3.65,2.13-3.65a.9.9,0,0,1,.62.26,2.39,2.39,0,0,0,.8.43,9.21,9.21,0,0,0,1.38.34l1.25.23c.64.11,1.26.73,1.85,1.85q2,3.44,2,10.36Zm-9.4,1.73.09,3.8a36.13,36.13,0,0,0,1,8.7,8.61,8.61,0,0,0,1.12,2.69,2,2,0,0,0,1.68,1.15,2.34,2.34,0,0,0,1.67-.7,5,5,0,0,0,1.13-2,22.56,22.56,0,0,0,.71-2.56,20.88,20.88,0,0,0,.4-2.91c.12-1.72.18-3.25.18-4.6l-.54-11.34-.18-.38.09-.23a5.84,5.84,0,0,0-1.17-3.63,3.5,3.5,0,0,0-2.86-1.55h-2c-.26,0-.5,1.43-.7,4.28s-.34,4.43-.4,4.74Z"/>
      <path class="cls-3" d="M887.72,555.85q0-1.83,1-1.83a6.12,6.12,0,0,1,3.87,1.19,4.1,4.1,0,0,1,1.52,3.48v3.49a12.5,12.5,0,0,1-1.87,5.3,8.26,8.26,0,0,0-.63,1.25q0,.1,1.81,7.59c1.21,5,1.85,7.57,1.91,7.73s.22.48.47,1a3,3,0,0,1,.38,1.29.48.48,0,0,1-.54.54l-.71-.24c-.75-.84-1.57-4-2.46-9.37q-1.29-7.83-2.2-7.83h-.19c-.7,0-1,.23-1,.68q0,2.63.3,8.73a65.31,65.31,0,0,0,.52,6.83l-.35.8h-.71l-.35-.38Q887.73,565.31,887.72,555.85Zm1.36.66.19,11.62.09.1a2.07,2.07,0,0,0,1.64-1,6.88,6.88,0,0,0,1.1-2.31,17.59,17.59,0,0,0,.78-4.27,19.07,19.07,0,0,0-.1-2.19,6.64,6.64,0,0,0-.4-1.56,2.61,2.61,0,0,0-2.74-1.69q-.28,0-.42.45A2.5,2.5,0,0,0,889.08,556.51Z"/>
      <path class="cls-3" d="M915,585.66l-1.59-.16a2,2,0,0,0-.89.27,2.65,2.65,0,0,1-1.23.27c-.48,0-.78-.16-.9-.47l-.8,0c-.69,0-1.13-.17-1.31-.5a.6.6,0,0,1,.27-.5,1.77,1.77,0,0,0,.36-.32h1.38l.19-.18.16-1-.35-10.5.24-11.21a54.5,54.5,0,0,0-.24-5.55,5.52,5.52,0,0,0-1.43-.14l-1.15.09c-.61,0-.91-.27-.91-.82,0-.14.14-.27.43-.4a2,2,0,0,1,.72-.18q6.68,0,6.68,1.45a.94.94,0,0,1-.12.38l-1.1.09A2.41,2.41,0,0,0,912,556l-.24.14a12,12,0,0,1,.14,2.55l-.14,11.42.33,10.52-.05,1.48a3.49,3.49,0,0,0,.14,1.33l0,.12c0,.31.35.47,1,.47l1.41-.05c.95,0,1.43.23,1.43.68a.86.86,0,0,1-.31.69A1.08,1.08,0,0,1,915,585.66Z"/>
      <path class="cls-3" d="M927.7,555.94l-2.6-.32-.23.28.09.18a18.46,18.46,0,0,0-.09,2.75q0,2.55.79,11.94t.8,14.07a.87.87,0,0,1-.28.64.91.91,0,0,1-.63.28l-.54-.4-.1-3.49.1-1.69a3.12,3.12,0,0,0-.19-1.15q0-4.08-.57-11.88c-.39-5.21-.59-9-.63-11.53-2.51,0-3.85-.31-4-.92a.88.88,0,0,1,.92-.54l6.51.45.87-.05c.58,0,.87.2.87.61a.65.65,0,0,1-.35.55A1.31,1.31,0,0,1,927.7,555.94Z"/>
      <path class="cls-3" d="M945.47,564.24l-.09,3.07a35.52,35.52,0,0,0,1.64,8q2,7,3.37,8.86a3.79,3.79,0,0,1,.94,1.78c0,.64-.28,1-.82,1-.75,0-1.65-1.43-2.71-4.31a77.41,77.41,0,0,1-2.66-8.92A41.84,41.84,0,0,1,944,567.4l-.11-.18-.77,1.56c-.4.8-.67,1.37-.83,1.72a8.63,8.63,0,0,0-.7,3.4l-.24,3.44v6.14l.33,2.75a.49.49,0,0,1-.24.42,1.27,1.27,0,0,1-.7.16,1,1,0,0,1-.66-.2,1.07,1.07,0,0,1-.23-.81v-9l.45-6,.47-9.28V554.8a.81.81,0,0,1,.76-.54,1,1,0,0,1,.78.28.88.88,0,0,1,.29.63,5,5,0,0,0-.43,2.37c0,1.06,0,2.72-.09,5s-.09,4-.09,5.09c.31-.13,1.56-2.34,3.73-6.63s3.38-6.43,3.6-6.43c.81,0,1.24.27,1.29.8A67.2,67.2,0,0,0,945.47,564.24Z"/>
      <path class="cls-3" d="M963.26,585.66l-1.6-.16a2,2,0,0,0-.89.27,2.6,2.6,0,0,1-1.23.27.87.87,0,0,1-.9-.47l-.8,0c-.68,0-1.12-.17-1.31-.5a.6.6,0,0,1,.27-.5,1.77,1.77,0,0,0,.36-.32h1.39l.18-.18.17-1-.35-10.5.23-11.21c0-2.17-.08-4-.23-5.55a5.57,5.57,0,0,0-1.43-.14l-1.15.09c-.61,0-.92-.27-.92-.82,0-.14.15-.27.44-.4a2,2,0,0,1,.71-.18c4.46,0,6.68.48,6.68,1.45a1.07,1.07,0,0,1-.11.38l-1.11.09a2.41,2.41,0,0,0-1.38-.28l-.23.14a12.72,12.72,0,0,1,.14,2.55l-.14,11.42.33,10.52,0,1.48a3.49,3.49,0,0,0,.14,1.33l-.05.12c0,.31.35.47,1.06.47l1.4-.05c1,0,1.43.23,1.43.68a.89.89,0,0,1-.3.69A1.11,1.11,0,0,1,963.26,585.66Z"/>
      <path class="cls-3" d="M976.15,585.8c0,.41-.27.61-.82.61-1.92.21-3.35.31-4.27.31l-.09.09h-1.5c-.45,0-.73-.37-.82-1.1a6.94,6.94,0,0,0,.12-1.45l.18-20.68c0-2.7,0-4.28,0-4.74s0-1,.07-1.51,0-1.06,0-1.53l0-.72c0-.13.07-.24.27-.34a.79.79,0,0,1,.62,0,.61.61,0,0,1,.4.53l-.09,18.18v6.83c0,1.06-.05,2.74-.05,5,.83,0,2.44-.07,4.85-.23a1.1,1.1,0,0,1,.66.13A.66.66,0,0,1,976.15,585.8Zm3.4-.72,4.85,0a1.09,1.09,0,0,1,.92.25,1,1,0,0,1,.32.71c0,.27-.3.45-.89.54-.92,0-2.4,0-4.43,0l-.09.09c-.36,0-.75,0-1.18,0-.65,0-1-.37-1.12-1.12,0-.28,0-.76,0-1.43l.19-20.39q0-4,.09-5.16l.1-3.4c0-.18.11-.28.34-.28a3.43,3.43,0,0,1,1,.28c0,1.46,0,2.72.12,3.8l-.17,14.58.1,4.1-.14.38,0-.05,0,.37a1.4,1.4,0,0,0,.14.68Z"/>
      <path class="cls-3" d="M994.71,555.45l-1-.28a1.75,1.75,0,0,0-1.31.6,3.74,3.74,0,0,0-.84,1.49A9.15,9.15,0,0,0,991,560c0,.65,0,1.12,0,1.4s.09.61.17,1,.15.64.18.79.12.48.27,1l.25.83.35.86c.31.57.72,1.27,1.22,2.13s.87,1.49,1.12,1.93.54,1,.87,1.72a10.51,10.51,0,0,1,.7,1.94,15.86,15.86,0,0,1,.59,4,23.51,23.51,0,0,1-.14,2.84,11.6,11.6,0,0,1-.53,2.19,8.8,8.8,0,0,1-.95,2,4.09,4.09,0,0,1-3.61,2l-.23.11c-.94-.17-1.46-.56-1.55-1.17l.23-.37,1.74.32a2.53,2.53,0,0,0,1.9-.85,5.35,5.35,0,0,0,1.19-2.17,16.28,16.28,0,0,0,.7-4.51,12.5,12.5,0,0,0-.59-3.91,19.52,19.52,0,0,0-1.44-3.37l-1.69-3a14.9,14.9,0,0,1-2-7.25,9.37,9.37,0,0,1,.66-3.49q1.18-3.07,3.14-3.07a2.27,2.27,0,0,1,1.18.41,1.13,1.13,0,0,1,.64.93C995.34,555.33,995.13,555.45,994.71,555.45Zm.33-.19v0h.05A0,0,0,0,0,995,555.26Z"/>
      <path class="cls-3" d="M1014.07,575.68l0,7.62c0,2.31-.34,3.46-1,3.46a.72.72,0,0,1-.4-.18,1,1,0,0,1-.3-.35c.31-.79.47-3.58.47-8.4,0-.93-.06-2.27-.18-4s-.18-2.87-.2-3.4l-.3-.61.14-.59c-.41-.93-1.16-3-2.25-6.07q-2.4-6.67-2.44-7.76l.65-.51q.48.08,1.41,3.06t1.84,6c.6,2,1,3,1.28,3.09l.19-.87-.1-.23a12,12,0,0,0,.93-3.41q.57-3,1.23-5.67c.44-1.79.86-2.69,1.26-2.69s.61.17.61.52a11.92,11.92,0,0,1-.51,2.33l-1,3.32c-.3,1-.52,1.77-.67,2.32s-.32,1.23-.51,2.06a19.05,19.05,0,0,0-.56,4.38,2.68,2.68,0,0,1,.24.82l-.28,1.39Z"/>
      <path class="cls-3" d="M1032.12,567.5l.09,5.72q0,10.8-3.47,13.15a3.23,3.23,0,0,1-1.9.58q-5.62,0-5.62-17.67a64.84,64.84,0,0,1,.94-11.84c.46-2.43,1.18-3.65,2.13-3.65a.9.9,0,0,1,.62.26,2.5,2.5,0,0,0,.8.43,9.21,9.21,0,0,0,1.38.34l1.25.23c.64.11,1.26.73,1.86,1.85q2,3.44,2,10.36Zm-9.4,1.73.09,3.8a36.13,36.13,0,0,0,1,8.7,8.61,8.61,0,0,0,1.12,2.69,2,2,0,0,0,1.68,1.15,2.34,2.34,0,0,0,1.67-.7,5,5,0,0,0,1.14-2,24.8,24.8,0,0,0,.7-2.56,20.88,20.88,0,0,0,.4-2.91c.12-1.72.18-3.25.18-4.6l-.53-11.34-.19-.38.09-.23a5.84,5.84,0,0,0-1.17-3.63,3.49,3.49,0,0,0-2.86-1.55h-2c-.26,0-.5,1.43-.7,4.28s-.33,4.43-.4,4.74Z"/>
      <path class="cls-3" d="M1047,564.48l0,1c-.06.81-.1,1.9-.13,3.28s0,2.68-.07,3.91-.06,2.57-.12,4a33.81,33.81,0,0,1-.38,3.87q-.66,4.08-2.13,5.43a2.9,2.9,0,0,1-3.73.31,5.2,5.2,0,0,1-1.53-1.29c-.42-.52-.75-2.18-1-5s-.4-5.76-.45-8.87c-.14-9.35-.28-14.67-.44-16l.3-.68c.74.1,1.11,1,1.11,2.65l.14,12.73.51,10.17q0,5.46,3.61,5.46,2.24,0,2.81-10.05c0-.46.11-2.62.23-6.5s.17-8.54.17-14l-.09-.87q0-.54.69-.54c.46,0,.73.11.82.32a14.63,14.63,0,0,1,.13,2.84,15.92,15.92,0,0,1-.31,3.71.58.58,0,0,1,0,.3Z"/>
      <path class="cls-3" d="M1059.12,566.89a50.82,50.82,0,0,1-1.48,11.67q-3.24,14-5.2,14a.8.8,0,0,1-.48-.17.48.48,0,0,1-.23-.38,2.73,2.73,0,0,1,.36-.92c.23-.46.52-1,.86-1.65a41.88,41.88,0,0,0,3.46-10.84,60.34,60.34,0,0,0,1.42-11.73,42,42,0,0,0-2.16-14.2,8.7,8.7,0,0,0-.65-1.34,7.07,7.07,0,0,1-1-3.05l.47-.37c.66,0,1.3.87,1.91,2.58a35.67,35.67,0,0,1,1.52,5.93A73.73,73.73,0,0,1,1059.12,566.89Z"/>
    </g>
    <g>
      <path class="cls-4" d="M983.67,153.58c3.81-.61,5.74-3,6.84-6.59,1-3.34,2.08-6.7,5.46-8.85,8.85-5.62,17.35-11.82,26.34-17.21,18.94-11.38,40.09-17.46,60.68-25,21.11-7.71,43.2-7,65-9,8-.73,14.14,5.53,18.82,11.76,7.62,10.17,12,22,14.83,34.19,2.43,10.58-1,20.88-6.22,30.27-8.3,14.85-20.26,26.44-33.12,37.41-9.77,8.34-19.16,16.78-31,22.56-9.92,4.86-20.3,6.45-30.82,8.28-2.76.49-5.65.52-7.71,3.11a3.72,3.72,0,0,1-4,.9c-2.63-.87-4.91,0-7.15,1.21-10.25-.39-20.22-2.93-30.45-3.67-11.28-.82-22.74-1.62-33.14-7-3-1.54-4.83-5.28-8.49-5.17-4.4.15-8.31-1.49-12.43-2.35.54-1.12,1-2.28,1.63-3.34,6.93-11.82,14.84-23.33,11.18-38.24a3.06,3.06,0,0,1,.06-1.59C992.53,166.62,990.59,159.38,983.67,153.58Z"/>
      <path class="cls-4" d="M958.69,142.07c-.26.81-9.3,5.88-9.77,6-4.86,1.42-8.13,5.1-11.14,8.6-5.47,6.36-12.36,12.47-12,21.77.46,12.64-1.71,24.91-3.76,37.24-6.49,1.94-13.13.5-19.5-.09-14.15-1.32-28.06-4.4-41.09-10.47-5.08-2.36-10.85-3.79-14.45-8.39-1.63-2.08-2.93-2.63-5.56-2.84-7.6-.58-15-2.09-19.26-9.74-.72-1.29-2-3.23-4.31-2.1-4-4.83-8.68-9.56-10.52-15.5-1.61-5.19-4.65-9.21-7.47-13.44-6.24-9.34-11.27-19.06-11.34-30.61-.11-19.06-3.12-38.1-1-57.14,1.35-12.22,3.13-24.76,16.19-31.1,10.38-5,21.16-3.6,32-1.88,14.75,2.34,26.05,10.29,36.61,20.46,18.45,17.77,38.81,33.53,56.19,52.47a48.7,48.7,0,0,1,7,9.44C938,119.49,953.79,141.93,958.69,142.07Z"/>
      <path class="cls-5" d="M817.83,182.06c2.31-1.13,3.59.81,4.31,2.1,4.26,7.65,11.66,9.16,19.26,9.74,2.63.21,3.93.76,5.56,2.84,3.6,4.6,9.37,6,14.45,8.39,13,6.07,26.94,9.15,41.09,10.47,6.37.59,13,2,19.5.09,2.92,5,2.24,9.91.17,15.05-3.31,8.23-6.7,16.48-9.22,25-1,3.43-8.67,10.8-11.6,13.28-9.19,7.77-21.11,8.4-31.69,12.22-8.09,2.92-17.52.67-25.46-3.23-4.76-2.34-9.5-4.89-14.3-7.2a89.72,89.72,0,0,1-33.13-28C788.8,232,784,219,785.7,204.72c1.44-11.75,7.94-17.82,19.67-18.85,3.66-.32,7-1.49,11-.28C819.17,186.47,818.37,183.75,817.83,182.06Z"/>
      <path class="cls-5" d="M977.1,218.37c4.12.86,8,2.5,12.43,2.35,3.66-.11,5.52,3.63,8.49,5.17,10.4,5.41,21.86,6.21,33.14,7,10.23.74,20.2,3.28,30.45,3.67.28,1.18,1.22,1.56,2.2,2.1,5.41,3,11.18,5.41,12.47,12.72.51,2.83,2.6,5.34,4.36,7.86,2.33,3.33,2.77,7.31,2.56,11.64-.8,17-14.29,20.94-26.46,26.13-16.3,6.95-33.89,8.21-51.13,10.92a13.19,13.19,0,0,1-6.35-.27c-8.66-3.21-30.28-11.27-42.14-30.51-1.52-2.47-2.13-5.29-4.75-6.86a3.32,3.32,0,0,1,.15-3.55c7.91-10.09,8.78-23.38,15.4-34C970.92,227.92,970.88,221.13,977.1,218.37Z"/>
      <path class="cls-6" d="M977.1,218.37c-6.22,2.76-6.18,9.55-9.18,14.38-6.62,10.64-7.49,23.93-15.4,34a3.32,3.32,0,0,0-.15,3.55c-2.67,1.22-3.81,3.43-4.42,6.2s-2.45,4.64-4.4,6.47c-4.94,6.1-2.39,3.14-4.94,6.1-1.36,1.59-9.74,9.08-11.68,10.22-6.66,3.9-12.28-8.24-16.32-16.91-.17-1.16-.33-2.31-.5-3.47.9-11.91-.13-8.21,0-13.71.12-4.51,1.8-6.07,2.82-9.5,2.52-8.5,5.91-16.75,9.22-25,.28-8.38-.68-6.15-.17-15.05.72-12.48,4.22-24.6,3.76-37.24-.34-9.3,6.55-15.41,12-21.77,3-3.5,6.28-7.18,11.14-8.6.47-.13,8.14-10.9,12.69-14.29,2.13.3,3.88-.6,5.56-1.72l7.2.79c.92,1.3,1.08,3.69,3.69,2.59.84,4-.93,8.09.5,12.29,1,2.92,1.83,5.24,5.11,5.84,6.92,5.8,8.86,13,6.3,21.62a3.06,3.06,0,0,0-.06,1.59c3.66,14.91-4.25,26.42-11.18,38.24C978.11,216.09,977.64,217.25,977.1,218.37Z"/>
      <path class="cls-7" d="M978.06,135.45c-2.61,1.1-2.77-1.29-3.69-2.59,2.7-.69,3.07-3.3,4.22-5.21,9.1-15.11,21.72-25.72,38.94-30.37,7.94-2.14,16-3.79,24.28-3.43,2.44.11,6.6,0,6.7,2.86.13,3.48-4,2.67-6.4,2.82-9.11.58-18.21,1.5-26.9,4.17-9,2.76-16.28,8.74-23.12,15A88.48,88.48,0,0,0,978.06,135.45Z"/>
      <path class="cls-7" d="M967.17,132.07c-1.68,1.12-3.43,2-5.56,1.72-.71-4.21-1.93-8.41-2-12.63-.19-9-4.83-15.39-11.14-21a53.28,53.28,0,0,0-12.11-8.63,37.5,37.5,0,0,1-13.61-10.92c-.91-1.19-2.62-2.69-1.72-4.18,1.15-1.89,2.84.13,4.3.3a5.38,5.38,0,0,1,2.5.86c10.3,7.78,22.45,13.05,30.85,23.43a28.92,28.92,0,0,1,6.64,16.47C965.69,122.39,964.7,127.48,967.17,132.07Z"/>
      <ellipse class="cls-3" cx="949.33" cy="136.65" rx="11" ry="13" transform="translate(37.39 433.73) rotate(-26.23)"/>
      <ellipse class="cls-3" cx="986.92" cy="141.11" rx="12.49" ry="10.57" transform="translate(285.89 849.96) rotate(-53.45)"/>
      <path class="cls-7" d="M943.33,131.56c2.84-.14,4.52,1.21,4,4.12s-2.68,4.3-5.14,2.77C937.71,135.69,942,131.62,943.33,131.56Z"/>
      <path class="cls-7" d="M992.57,142.49a2.37,2.37,0,0,1-3.54-1.2c-1-2-.82-3.88,1.09-5.12a2.53,2.53,0,0,1,3.93,1.26A4,4,0,0,1,992.57,142.49Z"/>
      <g>
        <g>
          <path class="cls-3" d="M961.53,200.46l0,.39.26-.13Z"/>
          <path class="cls-3" d="M976.16,173.41c1.28,3.27,1.12,6.52-1.9,9-2.61,2.13-10,.3-12-2.92s.34-5.5,2.46-7.23C967.57,169.91,974.39,170.74,976.16,173.41Zm-3.36,1.4c-1.91-1.65-3.54.2-5.23.73-1,.3-2.22,1.27-1.06,2.3,1.57,1.38,3.71,2.69,5.77,1.48C973.71,178.48,973.51,176.54,972.8,174.81Z"/>
          <path class="cls-3" d="M952.88,177c-3.16,1.77-8.41.85-9.39-2-1.06-3.16-.6-6.44,2.58-8.36,3.69-2.23,9.46-1.62,10.67.84C958.13,170.22,956.15,175.15,952.88,177Zm-1.66-3.49c.8-1,2.64-2,1.47-3.46-.92-1.17-2.69-.34-4,0a1.93,1.93,0,0,0-1.26,2.93C948.32,174.48,949.81,174.21,951.22,173.48Z"/>
        </g>
        <path class="cls-3" d="M954.37,181c-2.65,1.19-5.25,7.46-3.94,9.75,1.64,2.85,4.4,2.45,6.55,1.24,4.26-2.38,1.77-5.79,1-8.49C957.21,181.53,956.5,180.08,954.37,181Zm1.84,3.51c0,.52,1,3.93,0,4.47s-2.65,1.25-3.14.43c-1-1.63.68-5.49,1.82-5.36C955.66,184.18,956.15,183.52,956.21,184.54Z"/>
        <path class="cls-3" d="M980.86,175.74a9.36,9.36,0,0,0-1.37-4.09c-.9-1.6-8.22-11.92-20.64-11.65-9.6.2-18.27,6.64-19.47,12.08-.21,1-.86,3.92.66,5.56a16.33,16.33,0,0,0,3.13,2.09,17.4,17.4,0,0,1,2,1.16c1.54,1.37,1.28,4,1.08,6-.33,3.34-1.81,8-3.71,9.32-.23.15-1.06.66-1,1.33a1.15,1.15,0,0,0,.41.78c1,.85,2.74.25,2.84.22,2.38-.83,2.54-3.46,3.7-3.45,1.63,0,2.47,5.19,3.67,5.08,1-.09.76-3.46,3.08-4.62a3.27,3.27,0,0,1,1.69-.34c2.64.21,3.23,4.07,4.92,4.24,1.85.19,1.62-5.1,6.67-10.1,1.62-1.61,8.78-2.91,12.39-9.15,0-.07.31-.07.56-.11.81-.15,3.68-.68,3.92-.06a.33.33,0,0,1,0,.2c-.91,3-4.84,6-4.84,6-3.62,2.82-2.4,2.24-5,4.12-5.35,3.89-8.1,4.56-8.65,7a17.24,17.24,0,0,0-.44,3.29c0,1.26.18,1.68-.11,2.41a4.32,4.32,0,0,1-2.15,2,5.09,5.09,0,0,1-3.71.77,3.7,3.7,0,0,1-2.19-1.29c-1.19-1.59-.22-3.77-.78-4s-1.56,2.77-3.91,3.33a4.3,4.3,0,0,1-3.79-1.11c-1.28-1.29-1-3.11-1.69-3.17s-.77,1.42-2.25,2.22a3.85,3.85,0,0,1-1.83.45c-1.37,0-2.4-.57-4.42-1.83s-2.34-1.84-2.4-2.08c-.22-.87.31-1.59,1.09-2.84,1.14-1.85,2-4.22,3.87-9a3.13,3.13,0,0,0,.21-1.86A3.33,3.33,0,0,0,941,183c-2-1.59-5-6.68-5.57-9.93-.64-3.92,1.95-7.36,3.47-9.38,5.62-7.46,14.93-8.63,17.11-8.84,10.38-1,19.45,4.47,22.78,9.12.45.63.34.61,3.43,5.54a31.28,31.28,0,0,1,3.09,6.28,5.86,5.86,0,0,1,0,4.48c-.89,1.13-3.29,2.41-4,.87A27,27,0,0,1,980.86,175.74Z"/>
      </g>
    </g>
  </g>
</svg>
