<svg xmlns="http://www.w3.org/2000/svg" xmlns:xlink="http://www.w3.org/1999/xlink" width="1920" height="1080" viewBox="0 0 1920 1080">
  <defs>
    <style>
      .cls-1 {
        fill: #010744;
        opacity: 0.71;
      }

      .cls-2 {
        fill: #ce33a6;
      }

      .cls-3 {
        fill: #051638;
      }

      .cls-4 {
        fill: url(#radial-gradient);
      }

      .cls-5 {
        fill: url(#radial-gradient-2);
      }

      .cls-6 {
        fill: #081e4c;
      }

      .cls-7 {
        fill: #fff;
      }

      .cls-8 {
        fill: #b034ce;
      }
    </style>
    <radialGradient id="radial-gradient" cx="1039.48" cy="189.32" fx="1070.436671172854" r="47.66" gradientTransform="matrix(0.33, -0.94, 1.72, 0.6, 367.29, 1063.62)" gradientUnits="userSpaceOnUse">
      <stop offset="0.31" stop-color="#b20073"/>
      <stop offset="1" stop-color="#051638"/>
    </radialGradient>
    <radialGradient id="radial-gradient-2" cx="808.51" cy="258.21" fx="815.3122418758213" fy="212.6437960872407" r="46.07" gradientTransform="matrix(0.68, -0.74, 0.06, 0.05, 236.4, 828.47)" gradientUnits="userSpaceOnUse">
      <stop offset="0.31" stop-color="#b20073"/>
      <stop offset="1" stop-color="#061635"/>
    </radialGradient>
  </defs>
  <g id="Game_Over" data-name="Game Over">
    <rect class="cls-1" x="-15" y="-12.66" width="1952" height="1107"/>
    <g>
      <path class="cls-2" d="M806.65,377.11q4.36,0,4.37,5.87a82.93,82.93,0,0,0,1.4,12.48,81.92,81.92,0,0,1,1.41,12.48c0,1.45-.62,2.18-1.85,2.18q-3.35,0-3.35-3.07a1.79,1.79,0,0,1,.07-.35,2.84,2.84,0,0,0,.07-.34,13.32,13.32,0,0,0-3.56,2,13.9,13.9,0,0,1-3.28,1.91,14.8,14.8,0,0,1-3.31.48,6.67,6.67,0,0,0-3.25.82h.27q-9.23-2.06-13.81-6.43-3.69-3.48-5.19-11.82Q774,379.44,774,348.8a147.59,147.59,0,0,1,.68-17.09q.69-5.06,1.47-8.92a40.8,40.8,0,0,1,1.92-6.7,44.39,44.39,0,0,1,2.83-5.77,18.88,18.88,0,0,1,3.83-4.79,17,17,0,0,1,11.56-4.17c2.77,0,4.17.8,4.17,2.4,0,1.14-.69,1.7-2.06,1.7l-4-.75q-10.74,0-13.88,19.62-1.77,10.67-1.77,27.89-.42,11.08-.41,15.35t.06,6.63q.07,2.35.31,5.91a47.76,47.76,0,0,0,.82,6.39q.58,2.85,1.4,6.12a22.37,22.37,0,0,0,2.22,5.71,26.83,26.83,0,0,0,3.25,4.48q3.82,4.23,10.73,4.24t11.42-7q0-10.45-1.26-14.25c-.85-2.53-1.63-3.79-2.36-3.79l-5.61.54c-2.14,0-3.21-.79-3.21-2.39q0-1.29,4.13-2.19A32.8,32.8,0,0,1,806.65,377.11Z"/>
      <path class="cls-2" d="M859.28,367.74l1.58,36.5v1.51a3.27,3.27,0,0,1-.41,2.05,3.56,3.56,0,0,1-2.4,1,3.15,3.15,0,0,1-2.11-.69,2.12,2.12,0,0,1-.83-1.71,3.52,3.52,0,0,0,.41-1.64l-.41-2.8V388q0-1.85-7.38-3.18a69.36,69.36,0,0,0-10.94-1.33q-1.37,0-2.46,5.09t-2.12,11.18q-1,6.09-2.05,7.59c-2.18,0-3.62-.57-4.3-1.71q2.17-3.15,4.2-15.31t3.25-17.67q1.23-5.51,4.41-23.9t4.3-23.55q1.14-5.16,1.75-7.62c.41-1.64.93-3.57,1.57-5.81q2.25-8.07,4-8.06,2.19,0,2.91,1t1.23,4.65q.51,3.64,1,9.29c.35,3.76.65,7.21.93,10.36q1.29,14.76,1.6,19.41a20.3,20.3,0,0,0,1.27,6.7c-.18,2.83-.28,5.25-.28,7.28A10.89,10.89,0,0,0,859.28,367.74Zm-23,11.89a44.21,44.21,0,0,0,14.15,2,8.37,8.37,0,0,0,2.53-.28l.68.28a1.15,1.15,0,0,0,1.3-1.3,397.62,397.62,0,0,0-5.47-63.1c0-.27-.15-.77-.31-1.5A8.55,8.55,0,0,1,849,314a38.64,38.64,0,0,0-1.84,6.15l.41.82q-.48.48-1.58,4.82t-3,17.91q-1.95,13.57-2.8,17.43c-.57,2.58-1.17,4.91-1.81,7a42.62,42.62,0,0,0-2,10.66Z"/>
      <path class="cls-2" d="M911.37,302.53c.28-1.51,1.39-2.26,3.35-2.26a1.67,1.67,0,0,1,1.1.68,2,2,0,0,1,.61,1.23q-.48,9.38-.48,18t1.13,29.74q1.13,21.12,1.13,28.37c0,4.83-.05,7.82-.14,9a39.57,39.57,0,0,0,.35,6.18,111,111,0,0,1,.47,11.21c0,4.52-.68,7.09-2,7.73V412l-.54.55-2.67-1.1V411a3.84,3.84,0,0,1,.41-1.71l-.55-1.23q.28-8.34.28-12.78l-1-46,.28-15.72c0-1.59-.08-3.83-.24-6.7s-.27-4.78-.31-5.74a1.34,1.34,0,0,0-.28,1q-.41,9.09-4,27.61a195,195,0,0,1-5.81,26.05,19.58,19.58,0,0,1-.75,2.05,12.91,12.91,0,0,0-1.23,4.51l.41.68c-.09.32-.3,1.53-.62,3.63-.73,4.6-2,6.9-3.83,6.9q-3.07,0-3.28-10.87a36.58,36.58,0,0,0-.37-4.61q-.37-2.83-6.22-30.49t-6.67-28.81q-.54,12.64-.55,28.3l.41,44.5.69,13.33a5,5,0,0,1-1.1,3.62q-4,0-4-7.31l.75-23.38-.55-28.37L876,316.2c0-5.34,0-9.34-.13-12l2.66-1.51q3.28.42,12.31,44.78,1.85,9.3,2.87,13.74t1.43,6.32c.28,1.25.57,2.75.89,4.48a42.73,42.73,0,0,1,1.1,7.65,100.15,100.15,0,0,0,2.66-11.55l2-9.84q.81-4,3.79-20.13t3.93-20.61a88.5,88.5,0,0,0,2.19-14.29Z"/>
      <path class="cls-2" d="M940.22,404.59l8.41-.48c4.38,0,6.56.75,6.56,2.25A5.66,5.66,0,0,1,951,409a30.38,30.38,0,0,1-5.81.59h-3.28c-4.19,0-6.61-.34-7.24-1a3,3,0,0,1-1-2.08l1.3-5.2V401a31.75,31.75,0,0,1-.55-6.15l.68-14.29-.82-29.94.69-27.82a46.78,46.78,0,0,0-.89-7.49,56.69,56.69,0,0,1-1-7.28l2.53-3.89,9.78-1.23.47.41c2.19,0,3.46.28,3.8.85a3.47,3.47,0,0,1,.51,1.81q0,2.67-5.06,2.67l-3.76-.28c-2.05,0-3.07.55-3.07,1.64l1.09,23.79-.68,17.5-.28.28.82.48,7.73-1.44a2.56,2.56,0,0,1,1.64.79,2.2,2.2,0,0,1,.89,1.6c0,1.87-.71,2.81-2.12,2.81l-3.21-.14q-5.34,0-5.34,2.66l1,11.76-.48.82v28.44q.75.89.75,3.9Z"/>
      <path class="cls-2" d="M1020.48,366.51l-1.3,18.05.27.54a37.89,37.89,0,0,0-1.09,8.48,21.84,21.84,0,0,1-1.51,7.76,21.55,21.55,0,0,1-4.47,7.18,8.72,8.72,0,0,1-6.4,3.17,9.43,9.43,0,0,1-6.35-2.59,20.69,20.69,0,0,1-4.89-6.67,54.47,54.47,0,0,1-3.42-9.64A106.05,106.05,0,0,1,989,381.86q-.82-5.37-1.37-11.11-.81-9.57-.82-16.58t.62-16q.62-9,.68-11.55c.05-1.74.09-3.26.14-4.58s.16-2.91.34-4.76a43.22,43.22,0,0,1,.72-4.85,25.13,25.13,0,0,1,1.33-4.27,11.91,11.91,0,0,1,2.19-3.62,10.18,10.18,0,0,1,8-3.22,12.8,12.8,0,0,1,8.51,2.81c.32.5,1.15,1.61,2.5,3.35a22.86,22.86,0,0,1,3,5q1,2.36,2.22,11.59A310.57,310.57,0,0,1,1020.48,366.51ZM1001.13,305q-10.32,0-10.32,41.49V352a160.65,160.65,0,0,0,1.47,20.88Q993.75,384,995.35,391a41.67,41.67,0,0,0,4.52,11.9c1.93,3.28,4.09,4.92,6.46,4.92q4.78,0,7-9.74a107.06,107.06,0,0,0,2.6-17.33c.31-6.93.48-11.44.48-13.54v-3.35c0-1.73,0-3.2,0-4.41s-.06-3.19-.1-5.94-.14-5.21-.28-7.35-.31-4.74-.54-7.79-.55-5.78-1-8.17-.88-4.95-1.4-7.66a41.87,41.87,0,0,0-1.91-7,41.2,41.2,0,0,0-2.57-5.47Q1005.64,305,1001.13,305Z"/>
      <path class="cls-2" d="M1069.15,313.39c1,.32,1.57.92,1.57,1.78a20.94,20.94,0,0,1-.34,3.35q-.35,2.06-1,4.68c-.41,1.76-.72,3.13-.92,4.11s-1,4.53-2.39,10.66-2.34,10.83-2.84,14.12-1,8-1.64,14-1,10.13-1.3,12.14a74.51,74.51,0,0,1-1.74,8.17q-1.33,5.16-1.61,6.66a33.19,33.19,0,0,0-.41,3.86c-.09,1.58-.23,3.06-.41,4.45a38.55,38.55,0,0,1-.82,4.27q-1.1,4.79-4.38,4.78l-1.57-1.29q0-22.85-12.44-77.66c-.14-.64-.52-2.1-1.16-4.38q-2.6-9.28-2.6-9.91a1.78,1.78,0,0,1,.62-1.23,1.88,1.88,0,0,1,1.36-.61c.5,0,1,.4,1.58,1.19a10.79,10.79,0,0,1,1.36,3.15c.37,1.3.69,2.56,1,3.79s.52,2.47.75,3.73.51,2.54.86,3.86.78,3.2,1.33,5.64,1,4.66,1.47,6.66.91,4.41,1.44,7.22.94,5,1.26,6.63.73,4,1.23,7.14.87,5.34,1.09,6.6.61,3.63,1.13,7.14.84,5.71,1,6.6.45,3.28,1,7.17.9,6.17,1,6.81q2.87-9.51,4.78-26.87t5.61-35.72q3.69-18.35,4.3-22Zm-20.58,19.76v.27h-.13C1048.44,333.24,1048.48,333.15,1048.57,333.15Zm3.9,66-.14.27.14.27Z"/>
      <path class="cls-2" d="M1090.41,404.59l8.41-.48q6.56,0,6.56,2.25a5.69,5.69,0,0,1-4.17,2.63,30.46,30.46,0,0,1-5.81.59h-3.28c-4.2,0-6.61-.34-7.25-1a3,3,0,0,1-1-2.08l1.3-5.2V401a32.59,32.59,0,0,1-.54-6.15l.68-14.29-.82-29.94.68-27.82a45.64,45.64,0,0,0-.89-7.49,54.48,54.48,0,0,1-1-7.28l2.53-3.89,9.77-1.23.48.41c2.19,0,3.45.28,3.79.85a3.39,3.39,0,0,1,.52,1.81q0,2.67-5.06,2.67l-3.76-.28c-2.05,0-3.08.55-3.08,1.64l1.1,23.79-.69,17.5-.27.28.82.48,7.72-1.44a2.54,2.54,0,0,1,1.64.79,2.17,2.17,0,0,1,.89,1.6c0,1.87-.7,2.81-2.12,2.81l-3.21-.14q-5.32,0-5.33,2.66l1,11.76-.47.82v28.44q.75.89.75,3.9Z"/>
      <path class="cls-2" d="M1119.05,306.15l-.27-2.53c0-.82.93-1.23,2.8-1.23q5.75,0,8.78,3.21a16.06,16.06,0,0,1,4,6.91q1,3.69,1.54,5.6a26.29,26.29,0,0,1,1.16,6.5q0,7-3.9,16.95a48.68,48.68,0,0,0-2.53,7q0,6.84,5.47,27.58t9,29.43c0,3.06-.62,4.58-1.85,4.58a2.81,2.81,0,0,1-2.36-1.26c-.61-.84-1-1.33-1.13-1.47q-.4-5.47-3.59-15.21c-2.11-6.5-3.41-10.82-3.89-13s-1.33-6.57-2.57-13.23-2.32-11.76-3.28-15.31l-1.09-.82-2.67,1.09v52.5l.28,3.49c0,1.87-.85,2.8-2.53,2.8a2.34,2.34,0,0,1-1.71-.65,2.18,2.18,0,0,1-.68-1.67l.47-.75.55-85Zm3.9.68-.69,30.56a71.54,71.54,0,0,0,.41,8.95h.28c.68,0,1.9-.95,3.65-2.87a28.93,28.93,0,0,0,3.63-4.58,17.44,17.44,0,0,0,1.6-5.67,44.53,44.53,0,0,0,.62-6.6,42.52,42.52,0,0,0-.38-5.5,58.94,58.94,0,0,0-1.19-6.22,14.31,14.31,0,0,0-2.6-5.57,5.25,5.25,0,0,0-4.17-2.22v-.42Z"/>
    </g>
    <g>
      <path class="cls-3" d="M1007.53,328.85C924.86,299.35,896.67,224.5,896.4,223.74l-.22-.59,17-17.37c-4.78-2.65-23.81-12.52-32.76-6.92l-1.06-1.69c11.25-7,34.95,6.93,35.95,7.52l1.09.65-17.9,18.3c2.79,7,31.79,75.53,109.7,103.33Z"/>
      <path class="cls-3" d="M1050.25,305c-69.22,2-138.85-78.8-139.56-79.64l-.68-.8L934.28,206c-5.65-2.88-27.19-13.19-36.11-7.61l-1-1.69c11.23-7,38.34,7.64,39.49,8.27l1.34.73L912.9,224.82c7.56,8.56,75.32,82.94,141.24,77.94l.15,2C1053,304.85,1051.6,304.92,1050.25,305Z"/>
      <path class="cls-3" d="M1011.14,321.06C945,302,915.76,216.47,915.48,215.61l-.19-.56,17.19-18.54c-5.25-2.71-27.29-13.4-36.33-7.74l-1.06-1.69c11.23-7,38.34,7.65,39.49,8.27l1.12.62-18.14,19.56c2.62,7.39,31.74,85.68,94.13,103.61Z"/>
      <path class="cls-3" d="M1042.54,316.35c-79.68-5.25-115.43-96-115.78-96.89l-.22-.58,19.25-21.29c-4-3.18-22.11-16.75-31.13-11.1l-1.06-1.69c11.34-7.11,33.34,11.13,34.27,11.92l.8.66L928.85,219.3c3.14,7.67,38.7,90.11,113.82,95.06Z"/>
      <path class="cls-4" d="M904.38,167.48c.12-7.44,32-12.38,74.18-18.93,31.9-5,41.51-4.85,51.3-3.52,21.35,2.91,36.9,10.81,47,16,19.61,10.17,30.7,15.92,38.74,28.84,8.3,13.35,2.58,17,13.89,43.92,5.56,13.22,10.13,19.93,7,24.51-3.75,5.52-15.51,3.3-23.68,2.09-32.81-4.84-33.76-9.66-75.7-13C992.59,243.84,989.84,222,977.93,207c-13.22-16.67-58.13-21.54-73.55-39.48C887.73,148.11,904.27,174.1,904.38,167.48Z"/>
      <path class="cls-3" d="M847.5,200.9c4.92,4,11.21,2.76,29.64.69,15.35-1.73,12.48-1.83,17.84-1.85,18.8-.08,30.23-7.8,30.23-7.8l11.22-11.53-14-4.14,5.79-7.62-11.9-.71,9.88-6.48-16,.57,11.85-6.75-17.87,1.62,5.64-7.88-22,3.86,3-9.54-16,10L874,144l-11,14.59-2.89-6.61-7.8,15.21-4.06-6-3.18,17.27-3.36-4.56q.59,9.84,1.15,19.67A14.91,14.91,0,0,0,847.5,200.9Z"/>
      <path class="cls-5" d="M846.46,196.46a148.38,148.38,0,0,0-18.6,14.37c-5.47,4.92-20.45,21.62-28.41,29.38-14.13,13.76-17.2,18.45-27,33.53-13.87,21.42-26.05,44.9-24.3,45.88,0,0,14.45-26.24,40.69-57.95,12.22-14.78,25.14-25.82,34.48-36.06,8.93-9.78,12.83-15.44,17.26-19.43C848.43,199.12,849.74,194.6,846.46,196.46Z"/>
      <path class="cls-6" d="M844.81,197.19c5-1.78-6.75-22.1-12.6-25.69-6.69-4.09-26.49-17.1-30.78-7.51-1.14,2.55,15.27,19.57,24.4,26.26C835.85,197.59,840.65,198.66,844.81,197.19Z"/>
      <path class="cls-6" d="M847.42,196.75c-4.8-2.92,11.89-15.66,17.35-20.38,9.61-8.29,30.24-18.71,34.54-8.53,2.68,6.33-19.13,17.75-30,22.66C857.41,195.89,851.38,199.17,847.42,196.75Z"/>
      <path class="cls-7" d="M843.9,197.19c5-1.78-8.35-18.81-22-30.2-12.33-10.25-20.43-5.91-20.42-3,0,2.52,13.26,19.91,21.77,25.1C834.2,195.79,839.74,198.66,843.9,197.19Z"/>
      <path class="cls-7" d="M847.68,196.74c-4.76-3,15.11-13.78,18.21-16.82,11.19-10.95,32.66-20.44,31.85-9.43-.33,4.37-11.15,12.61-25.32,19.09C860.53,195,851.61,199.2,847.68,196.74Z"/>
      <circle class="cls-8" cx="875.66" cy="180.2" r="5.03"/>
      <circle class="cls-8" cx="829.84" cy="183.39" r="5.14"/>
      <path class="cls-7" d="M875,148.87c1.59-1.23-4.43-31-7.46-40.53-6.8-21.36-23.89-56.86-27.25-56.77s-2.76,34.15,9.52,61.16C860.51,136.16,873.88,149.77,875,148.87Z"/>
      <path class="cls-7" d="M914.79,150.93s17.34-37.05,40.74-62.29c32.37-34.91,71.56-46.25,72.73-45.58,3.34,1.91-16.6,22.63-60.58,62.88C933.86,136.9,928.62,141.86,914.79,150.93Z"/>
    </g>
    <g>
      <path class="cls-7" d="M653.66,523.63c-.68,0-1-.59-1-1.76L653,508l-.49-5.84a19.28,19.28,0,0,0-.44-3.38,19.12,19.12,0,0,1-.44-3,10,10,0,0,0-.19-1.87c-.13-.68-.31-1.5-.55-2.46s-.4-1.7-.51-2.23-.38-2-.82-4.31q-1.45-7.35-2.45-10.7a21.63,21.63,0,0,1-1-4.27,1.29,1.29,0,0,1,1.44-1.48l.85.56a100,100,0,0,0,1.88,11.36q1.69,8.43,2.65,9.74a35.45,35.45,0,0,0,1.55-8.28q.42-5,.7-7.54.63-5.62,2-5.63c.72,0,1.09.26,1.09.77A6.22,6.22,0,0,1,658,471a17.54,17.54,0,0,0-.4,1.77c-.08.52-.35,2-.81,4.61s-.79,4.48-1,5.76a65.11,65.11,0,0,0-.95,10.52L655,496l-.46,1.09v.56l.53,8.65q0,9.74-.14,14.56l.21.21.07.49a2.69,2.69,0,0,1-.4,1.46A1.32,1.32,0,0,1,653.66,523.63Z"/>
      <path class="cls-7" d="M680.91,494.94l.14,8.58q0,16.2-5.21,19.72a4.83,4.83,0,0,1-2.84.88q-8.44,0-8.44-26.51a98.57,98.57,0,0,1,1.4-17.75c.71-3.66,1.77-5.48,3.2-5.48a1.4,1.4,0,0,1,.94.38,3.42,3.42,0,0,0,1.19.65,13.7,13.7,0,0,0,2.08.51l1.88.35c1,.17,1.88,1.09,2.77,2.78q3,5.13,3,15.54Zm-14.1,2.6.14,5.7a53.12,53.12,0,0,0,1.55,13,12.85,12.85,0,0,0,1.67,4,3.09,3.09,0,0,0,2.53,1.73,3.41,3.41,0,0,0,2.49-1.06,7.22,7.22,0,0,0,1.71-2.93,36.14,36.14,0,0,0,1.05-3.83,32.44,32.44,0,0,0,.6-4.38q.29-3.87.28-6.89l-.81-17-.28-.56.14-.35a8.72,8.72,0,0,0-1.76-5.45,5.21,5.21,0,0,0-4.28-2.32h-3q-.6,0-1,6.41t-.6,7.12Z"/>
      <path class="cls-7" d="M703.2,490.41l.07,1.44c-.1,1.22-.16,2.86-.2,4.92s-.07,4-.1,5.87-.1,3.86-.2,6a48.6,48.6,0,0,1-.56,5.8c-.66,4.08-1.72,6.8-3.2,8.16s-3.46,1.65-5.59.46a7.89,7.89,0,0,1-2.3-1.94q-.93-1.15-1.5-7.47t-.66-13.3q-.32-21-.67-24l.46-1c1.1.14,1.65,1.46,1.65,4l.21,19.09.77,15.26q0,8.19,5.42,8.19,3.33,0,4.22-15.08.06-1,.33-9.74t.26-21l-.14-1.3c0-.54.35-.81,1-.81s1.1.16,1.23.47a22.7,22.7,0,0,1,.19,4.26,25,25,0,0,1-.45,5.57,1.22,1.22,0,0,1,.07.46Z"/>
      <path class="cls-7" d="M737.79,508.48l.28,11q-3.72,3.72-7.35,3.72c-3.18,0-5.28-.65-6.27-2s-1.78-4.36-2.36-9.14a99.53,99.53,0,0,1-.86-10.21q0-3,.35-6.7c.24-2.43.42-4.76.56-7a35.83,35.83,0,0,1,.74-5.57q1.73-7.59,8.16-7.59c1.48,0,2.21.34,2.21,1a.89.89,0,0,1-.47.79,1.81,1.81,0,0,1-1,.3l-1.37-.14c-1.62,0-2.88,1-3.8,3.09a23.94,23.94,0,0,0-1.84,6.36c-.25,1.95-.43,3.5-.55,4.65s-.2,2.46-.24,3.93c-.07,2.23-.11,4.3-.11,6.23a39.81,39.81,0,0,0,.21,4.6,6.61,6.61,0,0,1,.74,2.87q.18,2,.3,4a25.47,25.47,0,0,0,.56,4,5.77,5.77,0,0,0,1.88,3.2,5.88,5.88,0,0,0,3.94,1.23q4.32,0,4.33-11.5V504.4a3.55,3.55,0,0,0-2.54-.74l-1.37.07c-1.15,0-1.72-.28-1.72-.84,0-.82.57-1.23,1.72-1.23q6.64,0,6.65,1.44Z"/>
      <path class="cls-7" d="M761.84,494.94l.14,8.58q0,16.2-5.21,19.72a4.83,4.83,0,0,1-2.84.88q-8.45,0-8.44-26.51a98.57,98.57,0,0,1,1.4-17.75c.71-3.66,1.77-5.48,3.2-5.48a1.4,1.4,0,0,1,.94.38,3.42,3.42,0,0,0,1.19.65,13.84,13.84,0,0,0,2.07.51l1.89.35c1,.17,1.88,1.09,2.77,2.78q3,5.13,3,15.54Zm-14.1,2.6.14,5.7a53.12,53.12,0,0,0,1.55,13,12.85,12.85,0,0,0,1.67,4,3.09,3.09,0,0,0,2.53,1.73,3.41,3.41,0,0,0,2.49-1.06,7.22,7.22,0,0,0,1.71-2.93,36.14,36.14,0,0,0,1-3.83,32.44,32.44,0,0,0,.6-4.38q.28-3.87.28-6.89l-.81-17-.28-.56.14-.35a8.72,8.72,0,0,0-1.76-5.45,5.21,5.21,0,0,0-4.28-2.32h-3q-.6,0-1,6.41t-.6,7.12Z"/>
      <path class="cls-7" d="M780.54,477.61l-3.9-.49-.35.42.14.28a25.55,25.55,0,0,0-.14,4.11q0,3.84,1.19,17.92t1.2,21.11a1.46,1.46,0,0,1-1.38,1.37l-.8-.6-.14-5.24.14-2.53a4.77,4.77,0,0,0-.29-1.72q0-6.12-.86-17.83t-.93-17.29c-3.77,0-5.79-.46-6-1.37a1.3,1.3,0,0,1,1.37-.81l9.77.67,1.3-.07c.87,0,1.3.3,1.3.91a1,1,0,0,1-.53.83A2,2,0,0,1,780.54,477.61Z"/>
      <path class="cls-7" d="M799.42,476c0-1.24.5-1.87,1.51-1.87a16,16,0,0,1,3.71.85c1.81.56,2.74,1.06,2.76,1.51a.46.46,0,0,0-.07.21,13,13,0,0,1,1.79,4.24,33.32,33.32,0,0,1,.46,6.4,21.67,21.67,0,0,1-1.16,7.43h.07a12.18,12.18,0,0,1-1.11,1.88c-.55.81-.88,1.32-1,1.53a7.37,7.37,0,0,1,2.23,3.11,14.39,14.39,0,0,1,1,3.61c.13,1.05.23,2.32.3,3.79l.07,1.87v1q0,6.89-4.29,10.19a8.78,8.78,0,0,1-5.52,1.76,1.25,1.25,0,0,1-1-.44,1.76,1.76,0,0,1-.4-1.11c0-.44,0-1.18,0-2.21l.74-15.19-.14-6.4.42-17.22c0-1.83,0-3.23-.07-4.19l-.28-.35Zm1.79,41.45.07,3.27a5.58,5.58,0,0,0,4.57-2.52,8.61,8.61,0,0,0,1.9-5.29v-.1c0-.43,0-.84,0-1.23s0-1.09-.06-2.06a23.13,23.13,0,0,0-.23-2.67,18.35,18.35,0,0,0-.61-2.69,11.55,11.55,0,0,0-1-2.5,4.54,4.54,0,0,0-4.08-2.42q-.35,5.37-.35,9.51a38.52,38.52,0,0,0,.21,5.25A8.81,8.81,0,0,0,801.21,517.48Zm.42-27.57-.07,5v.88l.28.95h.53q4.75,0,4.75-9.6c0-.86-.07-2.35-.21-4.46l-.14-.14q-.46-6-3.63-6-1.57,0-1.58,9.46Z"/>
      <path class="cls-7" d="M828.7,522.19l-2.39-.25a3,3,0,0,0-1.33.41,4,4,0,0,1-1.85.4c-.71,0-1.17-.23-1.35-.7l-1.2.07c-1,0-1.69-.25-2-.74a.91.91,0,0,1,.41-.76,2.85,2.85,0,0,0,.54-.47h2.08l.28-.28.24-1.51-.52-15.75L822,485.8c0-3.26-.12-6-.35-8.33a8.13,8.13,0,0,0-2.15-.21l-1.72.14c-.91,0-1.37-.41-1.37-1.23,0-.21.21-.41.65-.6a2.78,2.78,0,0,1,1.07-.28q10,0,10,2.18a1.31,1.31,0,0,1-.18.56l-1.65.14a3.63,3.63,0,0,0-2.07-.42l-.35.21a18.75,18.75,0,0,1,.21,3.83l-.21,17.12.49,15.79-.07,2.21a5.2,5.2,0,0,0,.21,2l-.07.17c0,.47.53.71,1.58.71l2.11-.07c1.43,0,2.15.34,2.15,1a1.33,1.33,0,0,1-.46,1A1.65,1.65,0,0,1,828.7,522.19Z"/>
      <path class="cls-7" d="M847.83,477.61l-3.9-.49-.36.42.14.28a27,27,0,0,0-.14,4.11q0,3.84,1.2,17.92T846,521a1.32,1.32,0,0,1-.42.95,1.3,1.3,0,0,1-.95.42l-.8-.6-.15-5.24.15-2.53a4.77,4.77,0,0,0-.29-1.72q0-6.12-.86-17.83t-.93-17.29q-5.65,0-6.05-1.37a1.32,1.32,0,0,1,1.38-.81l9.77.67,1.3-.07c.87,0,1.3.3,1.3.91a1,1,0,0,1-.53.83A2,2,0,0,1,847.83,477.61Z"/>
      <path class="cls-7" d="M867,477.61l-3.9-.49-.35.42.14.28a27,27,0,0,0-.14,4.11q0,3.84,1.19,17.92t1.2,21.11a1.44,1.44,0,0,1-1.37,1.37l-.81-.6-.14-5.24.14-2.53a4.77,4.77,0,0,0-.28-1.72q0-6.12-.86-17.83t-.93-17.29c-3.78,0-5.79-.46-6.05-1.37a1.31,1.31,0,0,1,1.37-.81l9.77.67,1.3-.07c.87,0,1.31.3,1.31.91a1,1,0,0,1-.53.83A2,2,0,0,1,867,477.61Z"/>
      <path class="cls-7" d="M875.21,522.19l.08-1.83-.25-.28a8.58,8.58,0,0,0,.53-3l-.36-9.5.5-21.69-.28-8.61a1.82,1.82,0,0,1,2.07-2,1.35,1.35,0,0,1,1.16.46c.16,0,.86.14,2.07.28,3,.33,4.47.92,4.54,1.79,0,.38-.46.83-1.37,1.37a24.32,24.32,0,0,0-5.84-1.37l-.35.42c0,.68.07,1.71.07,3.1l-.28,11.18c0,1.33.34,2,1,2l2.43-.14c1.82,0,2.76.43,2.81,1.3a2.36,2.36,0,0,1-.37,1.3,1.46,1.46,0,0,1-1.32.56,1.71,1.71,0,0,1-1.41-.56l-2.35-.35H878l-.35.35v.21c.09,1.24.14,3.14.14,5.7l-.14,10.23q0,7.17,1,7.94a3.79,3.79,0,0,0,2.33.53l2.67-.14c1.4,0,2.11.32,2.11.95,0,.87-1.05,1.3-3.13,1.3h-5.94C875.76,523.7,875.29,523.2,875.21,522.19Z"/>
      <path class="cls-7" d="M912.62,478.91l-.14-1.79c0-1,.34-1.51,1-1.51a1.31,1.31,0,0,1,1.14.66,2.49,2.49,0,0,1,.44,1.41v4.82l-.38.59q0,5.63-.78,21.78t-1.51,17.67l-1,.26a5.15,5.15,0,0,1-1.21.23.78.78,0,0,1-.63-.47,4,4,0,0,1-.44-1.25,4.31,4.31,0,0,0-.3-1l.07-.21a36.07,36.07,0,0,0-1.88-6.84c-1-2.57-1.57-4.29-1.85-5.18a55.42,55.42,0,0,1-1.93-5.38Q896.73,482.6,895,481a20.83,20.83,0,0,0-.56,5.06l.14,5.66-.14,3.48c0,.54.09,2.21.28,5h-.21q0,12,.49,13.25v6.47a2.5,2.5,0,0,1,.28,1.26c0,1.13-.44,1.69-1.33,1.69s-1.51-1.29-1.51-3.87l.28-4.71-.46-20.7.46-12.77v-1.26a10.88,10.88,0,0,1,0-1.27c0-.21.07-.46.11-.75a2.47,2.47,0,0,1,.15-.69l.25-.56a2.8,2.8,0,0,1,.74-1l.21.25.7-.18a1.43,1.43,0,0,1,1,1.13,3.57,3.57,0,0,0,.08.4,3.65,3.65,0,0,1,.09.37,97.26,97.26,0,0,0,5.17,14.31c2.62,6.11,4.22,10.05,4.78,11.79s1.07,3.59,1.51,5.54a35.53,35.53,0,0,0,3.24,9.46l.14-.21A386.74,386.74,0,0,0,912.62,478.91Zm-1.51,43.91s.07,0,.07.07Z"/>
      <path class="cls-7" d="M943.84,477.61l-3.9-.49-.35.42.14.28a25.55,25.55,0,0,0-.14,4.11q0,3.84,1.19,17.92T942,521a1.46,1.46,0,0,1-1.37,1.37l-.81-.6-.14-5.24.14-2.53a5,5,0,0,0-.28-1.72q0-6.12-.87-17.83t-.93-17.29c-3.77,0-5.79-.46-6-1.37a1.3,1.3,0,0,1,1.37-.81l9.77.67,1.3-.07c.87,0,1.3.3,1.3.91a1,1,0,0,1-.53.83A2,2,0,0,1,943.84,477.61Z"/>
      <path class="cls-7" d="M967.92,494.94l.14,8.58q0,16.2-5.2,19.72a4.84,4.84,0,0,1-2.85.88q-8.43,0-8.44-26.51A97.58,97.58,0,0,1,953,479.86c.7-3.66,1.77-5.48,3.2-5.48a1.36,1.36,0,0,1,.93.38,3.39,3.39,0,0,0,1.2.65,13.53,13.53,0,0,0,2.07.51l1.88.35c1,.17,1.89,1.09,2.78,2.78q3,5.13,3,15.54Zm-14.1,2.6.14,5.7a53.61,53.61,0,0,0,1.55,13,13.09,13.09,0,0,0,1.67,4,3.1,3.1,0,0,0,2.53,1.73,3.44,3.44,0,0,0,2.5-1.06,7.32,7.32,0,0,0,1.7-2.93,33.94,33.94,0,0,0,1.06-3.83,32.44,32.44,0,0,0,.6-4.38c.18-2.58.28-4.88.28-6.89l-.81-17-.28-.56.14-.35a8.78,8.78,0,0,0-1.76-5.45,5.22,5.22,0,0,0-4.29-2.32h-3q-.6,0-1.06,6.41t-.59,7.12Z"/>
      <path class="cls-7" d="M991.58,494.94l.14,8.58q0,16.2-5.2,19.72a4.84,4.84,0,0,1-2.85.88q-8.43,0-8.44-26.51a97.58,97.58,0,0,1,1.41-17.75c.7-3.66,1.77-5.48,3.2-5.48a1.36,1.36,0,0,1,.93.38,3.39,3.39,0,0,0,1.2.65,13.53,13.53,0,0,0,2.07.51l1.88.35c1,.17,1.89,1.09,2.78,2.78q3,5.13,3,15.54Zm-14.1,2.6.14,5.7a53.61,53.61,0,0,0,1.55,13,13.09,13.09,0,0,0,1.67,4,3.1,3.1,0,0,0,2.53,1.73,3.44,3.44,0,0,0,2.5-1.06,7.32,7.32,0,0,0,1.7-2.93,33.94,33.94,0,0,0,1.06-3.83,32.44,32.44,0,0,0,.6-4.38c.18-2.58.28-4.88.28-6.89l-.81-17-.28-.56.14-.35a8.78,8.78,0,0,0-1.76-5.45,5.22,5.22,0,0,0-4.29-2.32h-3q-.6,0-1.06,6.41t-.59,7.12Z"/>
      <path class="cls-7" d="M1038.48,508.41l-.14,7.56a29.29,29.29,0,0,0,.7,7.48,2.77,2.77,0,0,1,.14.92,2.86,2.86,0,0,1-.44,1.3,1.29,1.29,0,0,1-1.14.81q-1.44,0-1.44-4.61,0-15-.23-18.3c-.15-2.19-.31-4-.49-5.32a25.41,25.41,0,0,1-.26-3.13l.28-8.93a13.67,13.67,0,0,0-.28-3.41q-1.41,1.13-8.65,30.34a7.39,7.39,0,0,0-.16,1q-.09.81-.21,1.5a14.49,14.49,0,0,1-.34,1.42q-.45,1.62-1.47,1.62a2.06,2.06,0,0,1-1.67-.58,2.76,2.76,0,0,1-.48-1.78q0-3-3.72-17.86t-5-16.13q-.16,3.86-.63,11.84-.95,16.64-1,22.33c0,3.79,0,6,.07,6.64a1.4,1.4,0,0,1-1.51,1,1.53,1.53,0,0,1-.74-.38c-.33-.26-.49-.47-.49-.64q0-7.59,1.13-22.71t1.12-22.71l-.42-1.37c0-.73.64-1.09,1.93-1.09a1.36,1.36,0,0,1,1.41,1.12,9.12,9.12,0,0,1,.3,1.81,16.55,16.55,0,0,0,.26,2.11,28.13,28.13,0,0,0,1.85,4.86,41.8,41.8,0,0,1,2,5c.24.87.54,1.93.92,3.2.77,2.74,1.29,4.8,1.54,6.19l1,1.9q.21,1.19.81,3.51a38.79,38.79,0,0,1,1.27,7.77q.84-1.26,4.53-14.89t4-15.41c.22-1.2.38-2.11.47-2.73s.19-1.11.28-1.48.23-.8.39-1.31a1.85,1.85,0,0,1,1.76-1.48,2.23,2.23,0,0,1,1.12.42c.45.28.67.58.67.88Q1037.53,506.82,1038.48,508.41Zm-3.3-26.05h-.07l-.11.07.18.07Z"/>
      <path class="cls-7" d="M1055.74,512l-1.9.07a5.85,5.85,0,0,0-2.25-.42,5.47,5.47,0,0,0-1.33.07.34.34,0,0,0-.14.24,2.33,2.33,0,0,1-.07.25l-.14,1.44a37.69,37.69,0,0,1-.67,4.39c-.66,3.36-1.35,5-2.08,5a1.61,1.61,0,0,1-1-.38,1.11,1.11,0,0,1-.49-.85,61.8,61.8,0,0,0,1.9-8.19q1-5.49,1.23-6.84c.17-.9.47-2.72.92-5.46l.87-5.42q.22-1.31,1.15-5.62c.62-2.89,1-4.77,1.12-5.66s.28-2.1.44-3.62a34.16,34.16,0,0,1,1-6.26l1,.07a1.8,1.8,0,0,0,1.3-.42,1.54,1.54,0,0,1,.87.29.93.93,0,0,1,.43.8q0,3.43.88,13.32t1.38,12.78c.34,1.93.74,3.83,1.18,5.69a19.8,19.8,0,0,1,.67,4.28l-.35,1a27.65,27.65,0,0,0,.6,4.76,28.68,28.68,0,0,1,.59,4.43c0,.86-.18,1.39-.56,1.6-1,0-1.59-.14-1.81-.42a2.19,2.19,0,0,1-.33-1.35c0-.62,0-1.38-.13-2.29s-.16-1.62-.24-2.16-.23-1.39-.42-2.55-.33-1.9-.37-2.23A13.45,13.45,0,0,0,1055.74,512Zm-5.06-3.55c0,.49.57.9,1.72,1.23a21.75,21.75,0,0,0,5.84.74h.74a10.34,10.34,0,0,1-.46-3.24v-1.65a109.54,109.54,0,0,0-1.11-13,126.1,126.1,0,0,1-1.18-12.73q-3.75,18.6-4.65,23A37.52,37.52,0,0,0,1050.68,508.48Z"/>
      <path class="cls-7" d="M1090.27,478.91l-.15-1.79c0-1,.34-1.51,1-1.51a1.34,1.34,0,0,1,1.15.66,2.57,2.57,0,0,1,.44,1.41v4.82l-.39.59q0,5.63-.77,21.78t-1.52,17.67l-1,.26a5.21,5.21,0,0,1-1.22.23c-.23,0-.44-.16-.63-.47a4.22,4.22,0,0,1-.44-1.25,3.51,3.51,0,0,0-.3-1l.07-.21a35.34,35.34,0,0,0-1.88-6.84c-.95-2.57-1.56-4.29-1.84-5.18a53.69,53.69,0,0,1-1.94-5.38q-6.46-20.08-8.15-21.69a20.32,20.32,0,0,0-.57,5.06l.15,5.66-.15,3.48c0,.54.1,2.21.29,5h-.21q0,12,.49,13.25v6.47a2.5,2.5,0,0,1,.28,1.26c0,1.13-.45,1.69-1.34,1.69s-1.51-1.29-1.51-3.87l.28-4.71-.45-20.7.45-12.77v-1.26a8.48,8.48,0,0,1,.06-1.27c0-.21.07-.46.1-.75a2.82,2.82,0,0,1,.16-.69l.24-.56a2.92,2.92,0,0,1,.74-1l.21.25.71-.18a1.42,1.42,0,0,1,1,1.13,2.6,2.6,0,0,0,.09.4,3.65,3.65,0,0,1,.09.37,96.1,96.1,0,0,0,5.17,14.31c2.62,6.11,4.21,10.05,4.78,11.79s1.06,3.59,1.51,5.54a35.23,35.23,0,0,0,3.23,9.46l.14-.21A386.37,386.37,0,0,0,1090.27,478.91Zm-1.52,43.91s.07,0,.07.07Z"/>
      <path class="cls-7" d="M1108.9,507.21l.07,11.43c0,3.47-.51,5.2-1.51,5.2a1,1,0,0,1-.6-.28,1.42,1.42,0,0,1-.46-.53q.7-1.75.71-12.58c0-1.41-.09-3.41-.27-6s-.27-4.3-.3-5.09l-.45-.92.21-.88q-.91-2.1-3.38-9.1-3.59-10-3.65-11.64l1-.77q.7.11,2.11,4.59c.94,3,1.86,6,2.76,9s1.54,4.55,1.92,4.64l.28-1.3-.14-.35c.35-.43.81-2.13,1.38-5.12s1.19-5.82,1.85-8.51,1.29-4,1.9-4,.91.26.91.77a18,18,0,0,1-.77,3.5c-.52,1.82-1,3.47-1.44,5s-.78,2.66-1,3.48-.48,1.86-.76,3.1a28.31,28.31,0,0,0-.84,6.57,4.21,4.21,0,0,1,.35,1.23l-.42,2.08Z"/>
      <path class="cls-7" d="M1141.21,477.61l-3.91-.49-.35.42.14.28a27,27,0,0,0-.14,4.11q0,3.84,1.2,17.92t1.19,21.11a1.44,1.44,0,0,1-1.37,1.37l-.81-.6-.14-5.24.14-2.53a4.77,4.77,0,0,0-.28-1.72q0-6.12-.86-17.83t-.93-17.29q-5.65,0-6-1.37a1.31,1.31,0,0,1,1.37-.81l9.78.67,1.3-.07c.87,0,1.3.3,1.3.91a1,1,0,0,1-.53.83A2,2,0,0,1,1141.21,477.61Z"/>
      <path class="cls-7" d="M1160.54,522.19l-2.39-.25a3,3,0,0,0-1.33.41,4,4,0,0,1-1.85.4c-.71,0-1.17-.23-1.35-.7l-1.2.07c-1,0-1.69-.25-2-.74a.91.91,0,0,1,.41-.76,2.85,2.85,0,0,0,.54-.47h2.08l.28-.28.24-1.51-.52-15.75.35-16.81c0-3.26-.12-6-.35-8.33a8.13,8.13,0,0,0-2.15-.21l-1.72.14c-.91,0-1.37-.41-1.37-1.23,0-.21.22-.41.65-.6a2.78,2.78,0,0,1,1.07-.28q10,0,10,2.18a1.31,1.31,0,0,1-.18.56l-1.65.14a3.63,3.63,0,0,0-2.07-.42l-.35.21a18.75,18.75,0,0,1,.21,3.83l-.21,17.12.49,15.79-.07,2.21a5.2,5.2,0,0,0,.21,2l-.07.17c0,.47.53.71,1.58.71l2.11-.07c1.43,0,2.14.34,2.14,1a1.32,1.32,0,0,1-.45,1A1.65,1.65,0,0,1,1160.54,522.19Z"/>
      <path class="cls-7" d="M1197.67,508.41l-.14,7.56a29.29,29.29,0,0,0,.7,7.48,3.06,3.06,0,0,1,.14.92,3,3,0,0,1-.44,1.3,1.29,1.29,0,0,1-1.14.81q-1.44,0-1.44-4.61,0-15-.23-18.3c-.15-2.19-.32-4-.49-5.32a25.84,25.84,0,0,1-.27-3.13l.28-8.93a13.19,13.19,0,0,0-.28-3.41q-1.39,1.13-8.65,30.34a10.26,10.26,0,0,0-.15,1q-.09.81-.21,1.5c-.09.45-.2.93-.34,1.42-.3,1.08-.8,1.62-1.47,1.62a2.06,2.06,0,0,1-1.67-.58,2.76,2.76,0,0,1-.48-1.78q0-3-3.73-17.86t-5-16.13q-.18,3.86-.63,11.84-.94,16.64-1,22.33c0,3.79,0,6,.07,6.64a1.4,1.4,0,0,1-1.51,1,1.49,1.49,0,0,1-.74-.38c-.33-.26-.49-.47-.49-.64q0-7.59,1.12-22.71t1.13-22.71l-.42-1.37c0-.73.64-1.09,1.93-1.09a1.36,1.36,0,0,1,1.41,1.12,8.44,8.44,0,0,1,.29,1.81,18.77,18.77,0,0,0,.27,2.11,27.78,27.78,0,0,0,1.84,4.86,42.47,42.47,0,0,1,2,5c.23.87.54,1.93.91,3.2.78,2.74,1.29,4.8,1.55,6.19l1,1.9q.21,1.19.81,3.51a37.93,37.93,0,0,1,1.26,7.77q.86-1.26,4.54-14.89t4-15.41c.22-1.2.38-2.11.47-2.73s.19-1.11.28-1.48.22-.8.39-1.31a1.85,1.85,0,0,1,1.76-1.48,2.23,2.23,0,0,1,1.12.42c.45.28.67.58.67.88Q1196.72,506.82,1197.67,508.41Zm-3.31-26.05h-.07l-.1.07.17.07Z"/>
      <path class="cls-7" d="M1205.86,522.19l.07-1.83-.25-.28a8.35,8.35,0,0,0,.53-3l-.35-9.5.49-21.69-.28-8.61a1.82,1.82,0,0,1,2.07-2,1.35,1.35,0,0,1,1.16.46c.17,0,.86.14,2.08.28,2.95.33,4.46.92,4.53,1.79,0,.38-.45.83-1.37,1.37a24.27,24.27,0,0,0-5.83-1.37l-.35.42c0,.68.07,1.71.07,3.1l-.29,11.18c0,1.33.34,2,1,2l2.43-.14c1.83,0,2.77.43,2.81,1.3a2.28,2.28,0,0,1-.37,1.3,1.43,1.43,0,0,1-1.32.56,1.67,1.67,0,0,1-1.4-.56l-2.36-.35h-.31l-.35.35v.21c.09,1.24.14,3.14.14,5.7l-.14,10.23c0,4.78.32,7.43,1,7.94a3.74,3.74,0,0,0,2.32.53l2.67-.14c1.41,0,2.11.32,2.11.95,0,.87-1,1.3-3.13,1.3h-5.94C1206.41,523.7,1205.93,523.2,1205.86,522.19Z"/>
      <path class="cls-7" d="M1229.94,476.87l-1.51-.42a2.62,2.62,0,0,0-2,.9,5.65,5.65,0,0,0-1.26,2.23,13.56,13.56,0,0,0-.88,4.08,21,21,0,0,0,.07,2.11,11.51,11.51,0,0,0,.26,1.47c.13.57.22,1,.26,1.2s.19.72.41,1.46l.37,1.25.52,1.3q.7,1.26,1.83,3.18c.75,1.27,1.32,2.24,1.69,2.9s.81,1.52,1.3,2.58a16.6,16.6,0,0,1,1.06,2.9,24.11,24.11,0,0,1,.87,6,34.13,34.13,0,0,1-.21,4.25,16.69,16.69,0,0,1-.79,3.29,12.63,12.63,0,0,1-1.42,3,6.12,6.12,0,0,1-5.42,3l-.35.18c-1.4-.26-2.18-.84-2.32-1.76l.35-.56,2.61.49a3.75,3.75,0,0,0,2.84-1.28,8.19,8.19,0,0,0,1.8-3.25,24.69,24.69,0,0,0,1-6.77,19.08,19.08,0,0,0-.89-5.87,28.65,28.65,0,0,0-2.17-5.05l-2.53-4.57a22.3,22.3,0,0,1-3.06-10.86,14.07,14.07,0,0,1,1-5.24q1.79-4.61,4.71-4.6a3.33,3.33,0,0,1,1.77.61,1.7,1.7,0,0,1,1,1.39C1230.89,476.68,1230.57,476.87,1229.94,476.87Zm.49-.28v.07h.07C1230.5,476.61,1230.48,476.59,1230.43,476.59Z"/>
      <path class="cls-7" d="M1239.57,521.38a2.16,2.16,0,0,1,.74-1.46,2.24,2.24,0,0,1,1.62-.76,1.68,1.68,0,0,1,1.42.76,3.08,3.08,0,0,1,.55,1.88,1.69,1.69,0,0,1-1.79,1.9.58.58,0,0,0-.46-.39C1240.85,523.2,1240.16,522.55,1239.57,521.38Zm2.08-9.95-.07-.28V493.89l.17-12.31-.52-11.32a1.69,1.69,0,0,1,.75-1.33,2.52,2.52,0,0,1,1.58-.6c.56,0,.83.3.83.91q0,5.77-.76,17.21t-.75,17.21l.07,3.16a12.1,12.1,0,0,1-.56,4.26l.21.35Z"/>
    </g>
  </g>
  <g id="Game_Over_2" data-name="Game Over 2">
    <g>
      <path class="cls-7" d="M602.77,708.42l.59,14c0,.87-.45,1.3-1.37,1.3l-1-.56a57.28,57.28,0,0,1-.8-10.37l.31-13.4a4.61,4.61,0,0,1-.46-1.65c.5-.82.74-3,.74-6.64q0-12.84-.42-14c.47-1.19.82-1.79,1.06-1.79h3.16a5.32,5.32,0,0,1,2.34.79,14.74,14.74,0,0,1,2.37,1.56c1.2,1.1,1.79,3.94,1.79,8.51,0,4.06-.17,6.51-.52,7.37a16.82,16.82,0,0,1-1.13,2.25,5.49,5.49,0,0,1-1.51,1.6,17.74,17.74,0,0,1-5.13,2.39Zm-.07-28.89.35,10.37-.28,6.78.45.71q5.28,0,5.52-11.08v-1.93c0-.78,0-1.43-.07-2a10.22,10.22,0,0,0-.33-1.79,4.7,4.7,0,0,0-.72-1.59,3.92,3.92,0,0,0-3.34-1.44,1.45,1.45,0,0,0-1.27.46A2.67,2.67,0,0,0,602.7,679.53Z"/>
      <path class="cls-7" d="M621.4,720.66l6.78.21h.22a1,1,0,0,1,.73.4,1.25,1.25,0,0,1,.36.83c0,.54-.39.84-1.16.91-1.25,0-3.24-.07-6-.07l.14.07-2.67.25q-1,0-1.2-1.65a13.33,13.33,0,0,0,.14-2.39l.42-38.39.36-4.75c0-.33.17-.49.52-.49l1.2.28-.07,5.7.07,15.67q-.21,5.91-.21,6l.14,6.12-.21.6.07-.07-.07.56a2.26,2.26,0,0,0,.21,1l-.21,6.89v.46a8.63,8.63,0,0,0,.07,1.45C621.09,720.55,621.21,720.66,621.4,720.66Z"/>
      <path class="cls-7" d="M645.17,711.59l-1.9.07a5.85,5.85,0,0,0-2.25-.42,5.59,5.59,0,0,0-1.34.07.34.34,0,0,0-.14.24,1.15,1.15,0,0,1-.07.25l-.14,1.44a36.07,36.07,0,0,1-.67,4.4q-1,5-2.07,5a1.59,1.59,0,0,1-1-.38,1.08,1.08,0,0,1-.49-.85,62.12,62.12,0,0,0,1.89-8.19c.66-3.66,1.07-5.93,1.23-6.84s.47-2.72.92-5.46.74-4.55.88-5.42.52-2.74,1.14-5.62,1-4.77,1.12-5.66.28-2.1.44-3.62a34.16,34.16,0,0,1,1-6.26l1,.07A1.78,1.78,0,0,0,646,674a1.51,1.51,0,0,1,.88.3.91.91,0,0,1,.42.79q0,3.43.88,13.32t1.39,12.78q.51,2.89,1.17,5.7a19.65,19.65,0,0,1,.67,4.27l-.35,1a27.65,27.65,0,0,0,.6,4.76,27.82,27.82,0,0,1,.6,4.43c0,.86-.19,1.39-.57,1.6-1,0-1.58-.14-1.81-.42a2.19,2.19,0,0,1-.33-1.35c0-.62,0-1.38-.12-2.29s-.17-1.62-.25-2.16-.22-1.39-.42-2.55-.32-1.9-.37-2.23A13.3,13.3,0,0,0,645.17,711.59ZM640.1,708c0,.49.58.9,1.73,1.23a21.63,21.63,0,0,0,5.83.74h.74a10.34,10.34,0,0,1-.46-3.24v-1.65a109.54,109.54,0,0,0-1.11-13,125.5,125.5,0,0,1-1.17-12.72q-3.76,18.58-4.66,23A37.52,37.52,0,0,0,640.1,708Z"/>
      <path class="cls-7" d="M668,706.77l.07,11.43c0,3.47-.51,5.2-1.51,5.2a1,1,0,0,1-.6-.28,1.42,1.42,0,0,1-.46-.53q.71-1.76.7-12.58c0-1.41-.08-3.41-.26-6s-.28-4.3-.3-5.09l-.46-.92.22-.88Q664.5,695,662,688q-3.59-10-3.66-11.64l1-.77q.71.1,2.11,4.59c.94,3,1.85,6,2.76,9s1.54,4.55,1.91,4.64l.28-1.3-.14-.35q.54-.63,1.39-5.12c.58-3,1.19-5.82,1.85-8.51s1.29-4,1.9-4,.91.26.91.77a18,18,0,0,1-.77,3.5c-.52,1.82-1,3.47-1.44,5s-.78,2.66-1,3.49-.47,1.85-.75,3.09a28.35,28.35,0,0,0-.85,6.57,4,4,0,0,1,.36,1.23l-.43,2.08Z"/>
      <path class="cls-7" d="M698.53,711.59l-1.9.07a5.85,5.85,0,0,0-2.25-.42,5.47,5.47,0,0,0-1.33.07.34.34,0,0,0-.14.24,2.33,2.33,0,0,1-.07.25l-.14,1.44a38.14,38.14,0,0,1-.67,4.4q-1,5-2.08,5a1.61,1.61,0,0,1-1-.38,1.11,1.11,0,0,1-.49-.85,61.8,61.8,0,0,0,1.9-8.19c.66-3.66,1.07-5.93,1.23-6.84s.47-2.72.92-5.46l.87-5.42q.23-1.31,1.15-5.62c.62-2.89,1-4.77,1.12-5.66s.28-2.1.44-3.62a34.16,34.16,0,0,1,1-6.26l1,.07a1.8,1.8,0,0,0,1.3-.42,1.48,1.48,0,0,1,.87.3.9.9,0,0,1,.43.79q0,3.43.88,13.32t1.38,12.78c.34,1.93.74,3.83,1.18,5.7a19.65,19.65,0,0,1,.67,4.27l-.35,1a27.65,27.65,0,0,0,.6,4.76,28.68,28.68,0,0,1,.59,4.43c0,.86-.18,1.39-.56,1.6-1,0-1.59-.14-1.81-.42a2.19,2.19,0,0,1-.33-1.35c0-.62,0-1.38-.13-2.29s-.16-1.62-.24-2.16-.23-1.39-.42-2.55-.33-1.9-.37-2.23A13.45,13.45,0,0,0,698.53,711.59ZM693.47,708c0,.49.57.9,1.72,1.23A21.75,21.75,0,0,0,701,710h.74a10.34,10.34,0,0,1-.46-3.24v-1.65a109.54,109.54,0,0,0-1.11-13A126.21,126.21,0,0,1,699,679.39q-3.75,18.58-4.65,23A37.52,37.52,0,0,0,693.47,708Z"/>
      <path class="cls-7" d="M728.87,708l.28,11q-3.72,3.72-7.34,3.72c-3.19,0-5.28-.65-6.28-2s-1.78-4.35-2.36-9.14a99.53,99.53,0,0,1-.86-10.21q0-3,.36-6.7c.23-2.43.42-4.76.56-7a33.55,33.55,0,0,1,.74-5.58q1.71-7.59,8.15-7.59,2.22,0,2.22,1a.9.9,0,0,1-.48.79,1.77,1.77,0,0,1-1,.3l-1.38-.14c-1.61,0-2.88,1-3.79,3.09a24,24,0,0,0-1.85,6.37c-.24,1.94-.43,3.49-.54,4.64s-.2,2.46-.25,3.93c-.07,2.23-.1,4.3-.1,6.23a39.81,39.81,0,0,0,.21,4.6,6.63,6.63,0,0,1,.73,2.87q.18,2,.3,4a25.49,25.49,0,0,0,.57,4,5.71,5.71,0,0,0,1.88,3.2,5.85,5.85,0,0,0,3.93,1.23q4.33,0,4.33-11.5V704a3.52,3.52,0,0,0-2.53-.74l-1.37.07c-1.15,0-1.73-.28-1.73-.84,0-.82.58-1.23,1.73-1.23q6.65,0,6.64,1.44Z"/>
      <path class="cls-7" d="M746.17,711.59l-1.9.07a5.85,5.85,0,0,0-2.25-.42,5.59,5.59,0,0,0-1.34.07.38.38,0,0,0-.14.24.77.77,0,0,1-.07.25l-.14,1.44a35.81,35.81,0,0,1-.66,4.4q-1,5-2.08,5a1.61,1.61,0,0,1-1-.38,1.08,1.08,0,0,1-.49-.85,61.8,61.8,0,0,0,1.9-8.19c.65-3.66,1.06-5.93,1.23-6.84s.47-2.72.91-5.46.74-4.55.88-5.42.52-2.74,1.14-5.62,1-4.77,1.13-5.66.27-2.1.44-3.62c.4-3.75.71-5.84,1-6.26l1,.07A1.77,1.77,0,0,0,747,674a1.48,1.48,0,0,1,.88.3.91.91,0,0,1,.42.79q0,3.43.88,13.32t1.39,12.78q.51,2.89,1.18,5.7a20.29,20.29,0,0,1,.67,4.27l-.35,1a27.41,27.41,0,0,0,.59,4.76,27.82,27.82,0,0,1,.6,4.43c0,.86-.19,1.39-.56,1.6-1,0-1.59-.14-1.81-.42a2.12,2.12,0,0,1-.34-1.35c0-.62,0-1.38-.12-2.29s-.16-1.62-.25-2.16-.22-1.39-.42-2.55-.32-1.9-.37-2.23A13.3,13.3,0,0,0,746.17,711.59ZM741.11,708c0,.49.57.9,1.72,1.23a21.7,21.7,0,0,0,5.84.74h.73a10.66,10.66,0,0,1-.45-3.24v-1.65a109.54,109.54,0,0,0-1.11-13,126.21,126.21,0,0,1-1.18-12.72q-3.76,18.58-4.66,23A38.39,38.39,0,0,0,741.11,708Z"/>
      <path class="cls-7" d="M771.62,721.75l-2.39-.25a3,3,0,0,0-1.33.41,4,4,0,0,1-1.85.4c-.72,0-1.17-.23-1.35-.7l-1.2.07c-1,0-1.69-.25-2-.74a.92.92,0,0,1,.41-.76,2.53,2.53,0,0,0,.54-.47h2.08l.28-.28.24-1.51-.52-15.75.35-16.81c0-3.26-.12-6-.35-8.33a8.13,8.13,0,0,0-2.15-.21l-1.72.14c-.92,0-1.37-.41-1.37-1.23,0-.21.21-.41.65-.6a2.78,2.78,0,0,1,1.07-.28q10,0,10,2.18a1.31,1.31,0,0,1-.18.56l-1.65.14a3.63,3.63,0,0,0-2.07-.42l-.35.21a18.75,18.75,0,0,1,.21,3.83l-.21,17.13.49,15.78-.07,2.22a5.17,5.17,0,0,0,.21,2l-.07.17c0,.47.53.71,1.58.71l2.11-.07c1.43,0,2.14.34,2.14,1a1.32,1.32,0,0,1-.45,1A1.65,1.65,0,0,1,771.62,721.75Z"/>
      <path class="cls-7" d="M800,678.47l-.14-1.79c0-1,.34-1.51,1-1.51a1.31,1.31,0,0,1,1.14.66,2.57,2.57,0,0,1,.44,1.41v4.82l-.39.59q0,5.63-.77,21.78t-1.51,17.67l-1,.26a5.15,5.15,0,0,1-1.21.23c-.24,0-.45-.16-.64-.47a4.13,4.13,0,0,1-.43-1.25,4.31,4.31,0,0,0-.3-1l.07-.21a36.83,36.83,0,0,0-1.88-6.84q-1.42-3.84-1.85-5.18a55.42,55.42,0,0,1-1.93-5.38q-6.48-20.09-8.16-21.69a20.83,20.83,0,0,0-.56,5.06l.14,5.66-.14,3.48c0,.54.09,2.21.28,5H782q0,12,.49,13.25v6.47a2.5,2.5,0,0,1,.28,1.26c0,1.13-.44,1.69-1.33,1.69s-1.52-1.29-1.52-3.87l.29-4.71-.46-20.7.46-12.77v-1.26a9,9,0,0,1,.05-1.27c0-.21.07-.46.1-.75a2.82,2.82,0,0,1,.16-.69c.07-.16.15-.35.25-.56a2.8,2.8,0,0,1,.74-1l.21.25.7-.18a1.41,1.41,0,0,1,1,1.13,2.6,2.6,0,0,0,.09.4,3.65,3.65,0,0,1,.09.37,96.1,96.1,0,0,0,5.17,14.31c2.62,6.11,4.22,10,4.78,11.79s1.07,3.59,1.51,5.54a35.18,35.18,0,0,0,3.24,9.46l.14-.21A386.74,386.74,0,0,0,800,678.47Zm-1.51,43.91a.06.06,0,0,1,.07.07Z"/>
      <path class="cls-7" d="M810.8,714.7a1.83,1.83,0,0,1-.47-1.21,1.85,1.85,0,0,1,.58-1.29,1.7,1.7,0,0,1,1.25-.61,1.59,1.59,0,0,1,1.21.61,1.92,1.92,0,0,1,.55,1.25c0,1.2-.67,1.79-2,1.79A1.45,1.45,0,0,1,810.8,714.7Zm.71-27.21a1.79,1.79,0,0,1-.48-1.21,1.9,1.9,0,0,1,.58-1.29,1.72,1.72,0,0,1,1.25-.61,1.63,1.63,0,0,1,1.23.61,1.84,1.84,0,0,1,.56,1.25c0,1.2-.68,1.79-2,1.79A1.41,1.41,0,0,1,811.51,687.49Z"/>
    </g>
    <g>
      <path class="cls-7" d="M1164.23,703l.28,11q-3.72,3.72-7.34,3.72c-3.19,0-5.28-.65-6.28-2s-1.78-4.35-2.35-9.14a97.45,97.45,0,0,1-.87-10.21q0-3,.36-6.7c.23-2.43.42-4.76.56-7a33.55,33.55,0,0,1,.74-5.58q1.71-7.59,8.15-7.59,2.22,0,2.22,1a.9.9,0,0,1-.48.79,1.77,1.77,0,0,1-1,.3l-1.38-.14c-1.61,0-2.88,1-3.79,3.09a24,24,0,0,0-1.85,6.37c-.24,1.94-.43,3.49-.54,4.64s-.2,2.46-.25,3.93c-.07,2.23-.1,4.3-.1,6.23a39.81,39.81,0,0,0,.21,4.6,6.63,6.63,0,0,1,.73,2.87q.18,2,.3,4a25.49,25.49,0,0,0,.57,4,5.71,5.71,0,0,0,1.88,3.2,5.85,5.85,0,0,0,3.93,1.23q4.33,0,4.33-11.5V699a3.52,3.52,0,0,0-2.53-.74l-1.37.07c-1.15,0-1.73-.28-1.73-.84,0-.82.58-1.23,1.73-1.23q6.64,0,6.64,1.44Z"/>
      <path class="cls-7" d="M1188.28,689.5l.14,8.58q0,16.21-5.2,19.72a4.88,4.88,0,0,1-2.85.88q-8.44,0-8.44-26.51a97.58,97.58,0,0,1,1.41-17.75c.7-3.66,1.77-5.48,3.2-5.48a1.41,1.41,0,0,1,.93.38,3.42,3.42,0,0,0,1.19.65,14,14,0,0,0,2.08.51l1.88.35c1,.17,1.89,1.09,2.78,2.78q3,5.13,3,15.54Zm-14.1,2.6.14,5.7a53.61,53.61,0,0,0,1.55,13,13,13,0,0,0,1.67,4,3.11,3.11,0,0,0,2.53,1.72,3.44,3.44,0,0,0,2.5-1.06,7.32,7.32,0,0,0,1.7-2.93,38.74,38.74,0,0,0,1.06-3.83,30.79,30.79,0,0,0,.59-4.38q.28-3.87.29-6.89l-.81-17-.28-.56.14-.35a8.78,8.78,0,0,0-1.76-5.45,5.22,5.22,0,0,0-4.29-2.32h-3q-.6,0-1.06,6.42c-.3,4.27-.5,6.65-.6,7.11Z"/>
      <path class="cls-7" d="M1217.18,672.17l-3.9-.49-.36.42.14.28a27,27,0,0,0-.14,4.11q0,3.84,1.2,17.92t1.19,21.11a1.44,1.44,0,0,1-1.37,1.37l-.81-.6-.14-5.24.14-2.53a4.77,4.77,0,0,0-.28-1.72q0-6.12-.86-17.82t-.93-17.3q-5.65,0-6-1.37a1.31,1.31,0,0,1,1.37-.81l9.78.67,1.3-.07c.87,0,1.3.3,1.3.91a1,1,0,0,1-.53.83A2,2,0,0,1,1217.18,672.17Z"/>
      <path class="cls-7" d="M1241.26,689.5l.14,8.58q0,16.21-5.2,19.72a4.88,4.88,0,0,1-2.85.88q-8.44,0-8.44-26.51a97.58,97.58,0,0,1,1.41-17.75c.7-3.66,1.77-5.48,3.2-5.48a1.41,1.41,0,0,1,.93.38,3.42,3.42,0,0,0,1.19.65,14,14,0,0,0,2.08.51l1.88.35c1,.17,1.89,1.09,2.78,2.78q3,5.13,3,15.54Zm-14.1,2.6.14,5.7a53.61,53.61,0,0,0,1.55,13,13,13,0,0,0,1.67,4,3.11,3.11,0,0,0,2.53,1.72,3.44,3.44,0,0,0,2.5-1.06,7.32,7.32,0,0,0,1.7-2.93,36.18,36.18,0,0,0,1.06-3.83,30.79,30.79,0,0,0,.59-4.38q.28-3.87.29-6.89l-.81-17-.28-.56.14-.35a8.78,8.78,0,0,0-1.76-5.45,5.22,5.22,0,0,0-4.29-2.32h-3q-.6,0-1.06,6.42c-.3,4.27-.5,6.65-.6,7.11Z"/>
      <path class="cls-7" d="M1269.31,669.32a1.12,1.12,0,0,1,.64-.31,8.23,8.23,0,0,1,1.51.42q0,5.63.46,16.82t.45,18c0,4.55.16,8.9.46,13l-.46.81c0-.49-.78-.74-2.21-.74q-.36-16-.35-19.3l-.18-.28.25-.63a18.14,18.14,0,0,0-.25-2.68l-1.12-.28a4.66,4.66,0,0,1-1.45.21l-4.6-.73-.74.28-.21,9.07.21.31.42,12c0,1.24-.4,1.86-1.19,1.86-1.06,0-1.58-1.44-1.58-4.32l.14-13.19a48.83,48.83,0,0,0-.22-7c.24-.47.36-2.06.36-4.78l-.53-16.84a1.4,1.4,0,0,1,.37-.93,1.09,1.09,0,0,1,.86-.44c1,0,1.44,1.39,1.44,4.18l-.28,17.58c0,.56,1.92.85,5.77.85a3.09,3.09,0,0,0,2-.51c.41-.34.62-1.29.62-2.83s-.16-4.53-.48-9-.47-7.73-.47-9.93A1,1,0,0,1,1269.31,669.32Zm-1.47,22,.14.14h-.14Z"/>
      <path class="cls-7" d="M1296.42,689.5l.14,8.58q0,16.21-5.2,19.72a4.88,4.88,0,0,1-2.85.88q-8.44,0-8.44-26.51a97.58,97.58,0,0,1,1.41-17.75c.7-3.66,1.77-5.48,3.2-5.48a1.41,1.41,0,0,1,.93.38,3.42,3.42,0,0,0,1.19.65,14,14,0,0,0,2.08.51l1.88.35c1,.17,1.89,1.09,2.78,2.78q3,5.13,3,15.54Zm-14.1,2.6.14,5.7a53.61,53.61,0,0,0,1.55,13,13,13,0,0,0,1.67,4,3.11,3.11,0,0,0,2.53,1.72,3.44,3.44,0,0,0,2.5-1.06,7.32,7.32,0,0,0,1.7-2.93,36.18,36.18,0,0,0,1.06-3.83,30.79,30.79,0,0,0,.59-4.38q.29-3.87.29-6.89l-.81-17-.28-.56.14-.35a8.78,8.78,0,0,0-1.76-5.45,5.22,5.22,0,0,0-4.29-2.32h-3q-.6,0-1.06,6.42c-.3,4.27-.5,6.65-.6,7.11Z"/>
      <path class="cls-7" d="M1333.12,703l-.14,7.56a29.2,29.2,0,0,0,.71,7.48,3.06,3.06,0,0,1,.14.92,3,3,0,0,1-.44,1.3,1.32,1.32,0,0,1-1.15.81q-1.44,0-1.44-4.61,0-15-.23-18.3c-.15-2.19-.31-4-.49-5.32a27.58,27.58,0,0,1-.26-3.13l.28-8.93a13.19,13.19,0,0,0-.28-3.41q-1.41,1.13-8.65,30.34a7.39,7.39,0,0,0-.16,1.05q-.09.81-.21,1.5a14.34,14.34,0,0,1-.33,1.42c-.31,1.08-.8,1.62-1.48,1.62a2.08,2.08,0,0,1-1.67-.58,2.76,2.76,0,0,1-.47-1.78q0-3-3.73-17.86t-5-16.13q-.18,3.86-.64,11.84-.95,16.63-1,22.33t.08,6.64a1.42,1.42,0,0,1-1.52.95,1.47,1.47,0,0,1-.73-.38c-.33-.26-.5-.47-.5-.64q0-7.59,1.13-22.71t1.12-22.71l-.42-1.37c0-.73.65-1.09,1.93-1.09a1.36,1.36,0,0,1,1.41,1.12,8.44,8.44,0,0,1,.3,1.82,18.7,18.7,0,0,0,.26,2.1,28.13,28.13,0,0,0,1.85,4.86,44.43,44.43,0,0,1,2,5c.23.87.53,1.93.91,3.2q1.15,4.11,1.55,6.19l.95,1.9c.14.79.41,2,.8,3.51a38.79,38.79,0,0,1,1.27,7.77q.84-1.26,4.54-14.89t4-15.41q.33-1.8.48-2.73a12.57,12.57,0,0,1,.28-1.47c.09-.37.22-.81.38-1.32a1.85,1.85,0,0,1,1.76-1.48,2.26,2.26,0,0,1,1.13.42c.44.28.66.58.66.88Q1332.17,701.39,1333.12,703Zm-3.3-26.05h-.07l-.11.07.18.07Z"/>
      <path class="cls-7" d="M1341.31,716.75l.07-1.83-.24-.28a8.58,8.58,0,0,0,.53-2.95l-.36-9.5.5-21.69-.28-8.61a1.82,1.82,0,0,1,2.07-2,1.35,1.35,0,0,1,1.16.46c.16,0,.86.14,2.07.28,3,.33,4.47.92,4.54,1.79,0,.38-.46.83-1.37,1.37a24.83,24.83,0,0,0-5.84-1.37l-.35.42c0,.68.07,1.71.07,3.1l-.28,11.18c0,1.33.34,2,1,2l2.42-.14c1.83,0,2.77.43,2.82,1.3a2.36,2.36,0,0,1-.37,1.3,1.46,1.46,0,0,1-1.32.56,1.71,1.71,0,0,1-1.41-.56l-2.35-.35h-.32l-.35.35v.21c.09,1.24.14,3.14.14,5.7l-.14,10.23q0,7.17,1,7.94a3.71,3.71,0,0,0,2.32.53l2.68-.14c1.4,0,2.11.32,2.11,1,0,.87-1,1.3-3.13,1.3h-5.94C1341.87,718.26,1341.38,717.76,1341.31,716.75Z"/>
      <path class="cls-7" d="M1359.19,709.7a1.83,1.83,0,0,1-.47-1.21,1.85,1.85,0,0,1,.58-1.29,1.68,1.68,0,0,1,1.24-.61,1.61,1.61,0,0,1,1.22.61,1.9,1.9,0,0,1,.54,1.25c0,1.2-.67,1.79-2,1.79A1.45,1.45,0,0,1,1359.19,709.7Zm.7-27.21a1.83,1.83,0,0,1-.47-1.21A1.85,1.85,0,0,1,1360,680a1.7,1.7,0,0,1,1.25-.61,1.66,1.66,0,0,1,1.23.61,1.88,1.88,0,0,1,.56,1.25c0,1.2-.68,1.79-2,1.79A1.45,1.45,0,0,1,1359.89,682.49Z"/>
    </g>
  </g>
</svg>
