<svg xmlns="http://www.w3.org/2000/svg" width="55" height="80" viewBox="0 0 55 80">
  <defs>
    <style>
      .cls-1 {
        fill: #531261;
      }
    </style>
  </defs>
  <g id="UI">
    <g id="blood_drop_empty" data-name="blood drop empty">
      <path class="cls-1" d="M49,39h.08L27.5,1.59,5.91,39H6A25.94,25.94,0,0,0,2.12,52.65,25.57,25.57,0,0,0,27.5,78.41,25.57,25.57,0,0,0,52.88,52.65,25.94,25.94,0,0,0,49,39ZM27.5,72.73A20.54,20.54,0,0,1,7.12,52a20.77,20.77,0,0,1,3.11-11h-.07L27.5,11l17.34,30h-.07a20.77,20.77,0,0,1,3.11,11A20.54,20.54,0,0,1,27.5,72.73Z"/>
    </g>
  </g>
</svg>
