<svg xmlns="http://www.w3.org/2000/svg" width="230" height="180" viewBox="0 0 230 180">
  <defs>
    <style>
      .cls-1 {
        opacity: 0.52;
      }

      .cls-2 {
        fill: #fff;
      }
    </style>
  </defs>
  <g id="Win">
    <g id="home_button_copy" data-name="home button copy">
      <g>
        <path class="cls-1" d="M224.56,171.13l-2.13,0c-.08-.14-.13-.29-.22-.43L135.41,35l-11-17.24c2.22-3.46,4.44-6.91,6.65-10.38,3.06-4.82-4.32-8.83-7.57-4.39l-4.55,6.22-4.54-7.09c-3-4.73-10.18-.58-7.57,4.39,2,3.71,4,7.41,6,11.11L75.83,68.06l-61,83.42L1.91,169.09c-3,1.89-2.45,7.55,1.83,8a4,4,0,0,0,1.86.07l46.81.57c5,.09,10,.14,14.93.18l32.53.4c11.14.25,22.27.72,33.33,1.67a3.7,3.7,0,0,0,2.33-.65c29.67.51,59.35.83,89,.49a4.35,4.35,0,0,0,0-8.7Zm-106.93-.88a4.83,4.83,0,0,0-1.63-.43l-7.52-.65-2.36-.2.09-.2c.72-1.49,1.55-2.93,2.36-4.37a57,57,0,0,0,5-11.46c1.41-4.56,2.7-9.16,4-13.76.56,2.34,1.14,4.64,1.67,6.87a226.87,226.87,0,0,0,7.51,24.75C123.68,170.59,120.66,170.41,117.63,170.25Zm-15.2-1.64a3.43,3.43,0,0,0-.64,0C100.62,168.71,101,167.78,102.43,168.61Zm-89.35-.06,5-6.78.55-.74c37.54-50.62,68.86-87.38,99.52-133.69A1187.8,1187.8,0,0,0,211.52,171l-75.76-.92a226.39,226.39,0,0,1-7.63-24.38c-2.11-8.48-4.95-18.27-5-27.09.43-1.51.87-3,1.31-4.53a4.39,4.39,0,0,0-8-3.35,18.71,18.71,0,0,0-1.93,6.2c-2.91,10.3-5.59,20.66-8.59,30.94A55.7,55.7,0,0,1,101,160a48.8,48.8,0,0,0-4.14,8.43,10.35,10.35,0,0,0-.31,1.11c-9.73-.19-19.47-.24-29.18-.32l-15-.18Q32.74,168.72,13.08,168.55Z"/>
        <path class="cls-2" d="M226.08,163.22l-2,0c-.07-.14-.12-.27-.2-.4Q183.73,99.32,143.53,35.86L133.32,19.73q3.09-4.85,6.16-9.71c2.84-4.51-4-8.26-7-4.11l-4.21,5.82-4.2-6.63c-2.8-4.43-9.43-.54-7,4.1,1.81,3.48,3.66,6.94,5.51,10.4L88.36,66.82l-56.52,78L19.9,161.31c-2.82,1.77-2.26,7.07,1.7,7.5a3.85,3.85,0,0,0,1.72.06l43.35.53q6.9.12,13.83.17l30.12.37c10.32.24,20.62.67,30.86,1.56a3.37,3.37,0,0,0,2.16-.6c27.48.47,55,.78,82.44.45a4.07,4.07,0,0,0,0-8.13Zm-99-.82a4.36,4.36,0,0,0-1.5-.41l-7-.6-2.18-.19c0-.07,0-.13.08-.19.67-1.4,1.43-2.74,2.18-4.09a53.94,53.94,0,0,0,4.64-10.72c1.3-4.26,2.49-8.56,3.66-12.87.52,2.19,1.06,4.34,1.55,6.43a214,214,0,0,0,6.95,23.15Q131.27,162.61,127.06,162.4ZM113,160.87a2.94,2.94,0,0,0-.59,0C111.32,161,111.67,160.08,113,160.87Zm-82.74-.07,4.6-6.34.5-.69c34.77-47.34,63.77-81.73,92.16-125A1111.05,1111.05,0,0,0,214,163.07l-70.16-.85a216.29,216.29,0,0,1-7.06-22.81c-2-7.93-4.58-17.09-4.6-25.33.4-1.41.8-2.83,1.21-4.24a4.07,4.07,0,0,0-7.42-3.13,17.53,17.53,0,0,0-1.79,5.79c-2.69,9.64-5.17,19.33-8,28.94a52.7,52.7,0,0,1-4.57,11.38,44.84,44.84,0,0,0-3.84,7.88c-.12.36-.21.7-.29,1-9-.17-18-.22-27-.3l-13.85-.17Q48.46,161,30.25,160.8Z"/>
      </g>
    </g>
  </g>
</svg>
