<svg xmlns="http://www.w3.org/2000/svg" width="255" height="55" viewBox="0 0 255 55">
  <defs>
    <style>
      .cls-1 {
        opacity: 0.47;
      }

      .cls-2 {
        fill: #fff;
      }
    </style>
  </defs>
  <g id="button_instructions" data-name="button instructions">
    <g>
      <g class="cls-1">
        <path d="M13.3,51.67l-2.39-.25a3,3,0,0,0-1.34.41,4,4,0,0,1-1.85.4c-.71,0-1.16-.23-1.35-.7l-1.19.07c-1,0-1.69-.25-2-.74a.9.9,0,0,1,.4-.76,3.4,3.4,0,0,0,.55-.47H6.23l.28-.28.25-1.51L6.23,32.09l.35-16.81c0-3.26-.12-6-.35-8.33a8,8,0,0,0-2.14-.21l-1.73.14C1.45,6.88,1,6.47,1,5.65c0-.21.22-.41.65-.6a2.82,2.82,0,0,1,1.07-.28q10,0,10,2.18a1.27,1.27,0,0,1-.17.56l-1.65.14a3.69,3.69,0,0,0-2.08-.42l-.35.21a18.75,18.75,0,0,1,.21,3.83L8.48,28.39,9,44.18,8.9,46.39a5.2,5.2,0,0,0,.21,2L9,48.57c0,.47.53.71,1.58.71l2.11-.07c1.43,0,2.15.34,2.15,1a1.3,1.3,0,0,1-.46,1A1.63,1.63,0,0,1,13.3,51.67Z"/>
        <path d="M41.7,8.39,41.56,6.6c0-1,.34-1.51,1-1.51a1.31,1.31,0,0,1,1.14.66,2.49,2.49,0,0,1,.44,1.41V12l-.38.59q0,5.63-.78,21.78T41.49,52l-1,.26a5.21,5.21,0,0,1-1.22.23c-.23,0-.44-.16-.63-.47a4.22,4.22,0,0,1-.44-1.25,4.31,4.31,0,0,0-.3-1l.07-.21a35.34,35.34,0,0,0-1.88-6.84c-1-2.57-1.56-4.29-1.85-5.18q-.24-.33-1.93-5.38-6.47-20.08-8.16-21.7a21,21,0,0,0-.56,5.07l.14,5.66-.14,3.48c0,.54.1,2.21.28,5h-.21q0,12,.49,13.25v6.47a2.5,2.5,0,0,1,.29,1.26c0,1.13-.45,1.69-1.34,1.69s-1.51-1.29-1.51-3.87l.28-4.71-.46-20.7.46-12.77V9.06a10.88,10.88,0,0,1,.05-1.27c0-.21.07-.46.11-.75a2.42,2.42,0,0,1,.16-.69l.24-.56a2.92,2.92,0,0,1,.74-1l.21.25.7-.18A1.44,1.44,0,0,1,25,6a2.39,2.39,0,0,0,.09.41,2.19,2.19,0,0,1,.08.37,98.46,98.46,0,0,0,5.17,14.31C33,27.16,34.6,31.1,35.16,32.84s1.07,3.59,1.52,5.54a35.23,35.23,0,0,0,3.23,9.46l.14-.22A386.39,386.39,0,0,0,41.7,8.39ZM40.19,52.3c.05,0,.07,0,.07.07Z"/>
        <path d="M58.68,6.35l-1.51-.42a2.63,2.63,0,0,0-2,.9,5.65,5.65,0,0,0-1.26,2.23,13.56,13.56,0,0,0-.88,4.08,21,21,0,0,0,.07,2.11,13.59,13.59,0,0,0,.26,1.47c.13.57.22,1,.27,1.2s.18.72.4,1.46.35,1.15.37,1.24L55,21.93q.7,1.26,1.83,3.18c.75,1.27,1.31,2.24,1.68,2.9s.81,1.52,1.3,2.58a15.56,15.56,0,0,1,1.06,2.9,24.16,24.16,0,0,1,.88,6,34.13,34.13,0,0,1-.21,4.25A17.43,17.43,0,0,1,60.71,47,13.05,13.05,0,0,1,59.28,50a6.11,6.11,0,0,1-5.41,3l-.35.18c-1.41-.26-2.18-.84-2.32-1.76l.35-.56,2.6.49A3.79,3.79,0,0,0,57,50a8.3,8.3,0,0,0,1.79-3.25A24.69,24.69,0,0,0,59.84,40,19.08,19.08,0,0,0,59,34.11a29.4,29.4,0,0,0-2.16-5.05l-2.54-4.57a22.28,22.28,0,0,1-3-10.86,14.06,14.06,0,0,1,1-5.24q1.8-4.61,4.71-4.6a3.39,3.39,0,0,1,1.78.61,1.7,1.7,0,0,1,1,1.39C59.63,6.16,59.32,6.35,58.68,6.35Zm.5-.28v.07h.07A.06.06,0,0,0,59.18,6.07Z"/>
        <path d="M79.92,7.09,76,6.6,75.66,7l.14.28a27,27,0,0,0-.14,4.11q0,3.84,1.2,17.92t1.19,21.11a1.32,1.32,0,0,1-.42,1,1.3,1.3,0,0,1-.95.42l-.8-.6L75.73,46l.15-2.53a4.77,4.77,0,0,0-.29-1.72q0-6.12-.86-17.83T73.8,6.6q-5.65,0-6-1.37a1.31,1.31,0,0,1,1.37-.81l9.78.67L80.2,5c.87,0,1.3.3,1.3.91a1,1,0,0,1-.53.83A2,2,0,0,1,79.92,7.09Z"/>
        <path d="M87.93,7c0-1.83.53-2.74,1.59-2.74A9.21,9.21,0,0,1,95.32,6,6.23,6.23,0,0,1,97.6,11.2v5.24q0,2.77-2.81,8a12.93,12.93,0,0,0-1,1.88q0,.15,2.72,11.39t2.87,11.58c.09.24.33.73.7,1.48a4.43,4.43,0,0,1,.57,1.93.72.72,0,0,1-.81.81l-1.06-.35q-1.68-1.9-3.69-14.06Q93.2,27.31,91.84,27.3h-.29c-1,0-1.58.34-1.58,1q0,3.95.46,13.1a95.23,95.23,0,0,0,.77,10.25l-.52,1.19H89.62l-.53-.56Q87.93,21.12,87.93,7Zm2,1,.28,17.44.14.14a3.1,3.1,0,0,0,2.47-1.42,10.26,10.26,0,0,0,1.65-3.47,26.62,26.62,0,0,0,1.16-6.39,29.22,29.22,0,0,0-.14-3.29,11.2,11.2,0,0,0-.6-2.34Q94,6.07,90.82,6.07c-.28,0-.5.22-.64.67A4,4,0,0,0,90,7.93Z"/>
        <path d="M122,19.89l.08,1.44c-.1,1.22-.16,2.86-.2,4.92s-.07,4-.1,5.87-.1,3.86-.2,6a48.6,48.6,0,0,1-.56,5.8c-.66,4.08-1.72,6.8-3.2,8.16s-3.46,1.65-5.59.46a7.89,7.89,0,0,1-2.3-1.94q-.93-1.15-1.5-7.47t-.66-13.3q-.32-21-.67-24l.46-1c1.1.14,1.65,1.46,1.65,4l.21,19.09.77,15.26q0,8.19,5.42,8.19,3.33,0,4.22-15.08.06-1,.33-9.74t.26-21l-.14-1.3c0-.54.35-.81,1-.81s1.1.16,1.23.47a22.7,22.7,0,0,1,.19,4.26,25,25,0,0,1-.45,5.57,1.22,1.22,0,0,1,.07.46Z"/>
        <path d="M132.69,23.16l-.28,14.52c0,4,.38,7,1.16,8.71a7.13,7.13,0,0,0,3.41,4,6.59,6.59,0,0,0,2.72.6,3.19,3.19,0,0,0,2.13-.63c.72,0,1.09.25,1.09.77s-.32.79-1,1.25a8.4,8.4,0,0,1-1.77,1h-2.39a12.27,12.27,0,0,0-1.69-.63,7.93,7.93,0,0,1-2.27-1.14,7.24,7.24,0,0,1-2-2.5,13.45,13.45,0,0,1-1.3-4.06,52.28,52.28,0,0,1-.63-8.51V28.32c0-6.39.23-10.78.7-13.14q1.41-7.22,3.83-9.11a7.84,7.84,0,0,1,2-1,16.91,16.91,0,0,0,1.81-.79h2.88l.2,0,.19.06.2,0,.17,0,.16.07.14.09a1,1,0,0,1,.32.74l-.95,1h-3A3.17,3.17,0,0,0,136,7.81a9.82,9.82,0,0,0-1.67,3.29,28,28,0,0,0-.93,4.39,51.27,51.27,0,0,0-.53,7.28Z"/>
        <path d="M160.6,7.09l-3.9-.49-.35.42.14.28a25.55,25.55,0,0,0-.14,4.11q0,3.84,1.19,17.92t1.2,21.11a1.44,1.44,0,0,1-1.37,1.37l-.81-.6L156.42,46l.14-2.53a5,5,0,0,0-.28-1.72q0-6.12-.86-17.83T154.48,6.6q-5.65,0-6-1.37a1.31,1.31,0,0,1,1.37-.81l9.77.67,1.3-.07c.87,0,1.3.3,1.3.91a1,1,0,0,1-.52.83A2,2,0,0,1,160.6,7.09Z"/>
        <path d="M179.94,51.67l-2.39-.25a3,3,0,0,0-1.34.41,3.9,3.9,0,0,1-1.84.4c-.72,0-1.17-.23-1.36-.7l-1.19.07c-1,0-1.69-.25-2-.74a.9.9,0,0,1,.4-.76,3.4,3.4,0,0,0,.55-.47h2.07l.28-.28.25-1.51-.53-15.75.35-16.81A82.18,82.18,0,0,0,172.87,7a8,8,0,0,0-2.14-.21L169,6.88c-.91,0-1.37-.41-1.37-1.23,0-.21.22-.41.65-.6a2.82,2.82,0,0,1,1.08-.28q10,0,10,2.18a1.31,1.31,0,0,1-.18.56l-1.65.14a3.69,3.69,0,0,0-2.08-.42l-.35.21a18.75,18.75,0,0,1,.21,3.83l-.21,17.12.49,15.79-.07,2.21a5.2,5.2,0,0,0,.21,2l-.07.17c0,.47.53.71,1.59.71l2.11-.07c1.42,0,2.14.34,2.14,1a1.3,1.3,0,0,1-.46,1A1.63,1.63,0,0,1,179.94,51.67Z"/>
        <path d="M204,24.42l.14,8.58q0,16.2-5.2,19.72a4.88,4.88,0,0,1-2.85.88q-8.45,0-8.44-26.51a97.58,97.58,0,0,1,1.41-17.75c.7-3.66,1.77-5.48,3.2-5.48a1.36,1.36,0,0,1,.93.38,3.42,3.42,0,0,0,1.19.65,14,14,0,0,0,2.08.51l1.88.35c1,.17,1.89,1.09,2.78,2.78q3,5.13,3,15.54ZM189.92,27l.14,5.7a53.61,53.61,0,0,0,1.55,13,12.85,12.85,0,0,0,1.67,4,3.1,3.1,0,0,0,2.53,1.73,3.44,3.44,0,0,0,2.5-1.06,7.32,7.32,0,0,0,1.7-2.93,36.18,36.18,0,0,0,1.06-3.83,31,31,0,0,0,.59-4.38q.28-3.87.29-6.89l-.81-17-.28-.56.14-.35a8.78,8.78,0,0,0-1.76-5.45A5.22,5.22,0,0,0,195,6.74h-3q-.6,0-1.06,6.41t-.6,7.12Z"/>
        <path d="M232,8.39l-.14-1.79c0-1,.34-1.51,1-1.51a1.34,1.34,0,0,1,1.15.66,2.56,2.56,0,0,1,.43,1.41V12l-.38.59q0,5.63-.78,21.78T231.79,52l-1,.26a5.21,5.21,0,0,1-1.22.23c-.23,0-.44-.16-.63-.47a4.22,4.22,0,0,1-.44-1.25,3.51,3.51,0,0,0-.3-1l.07-.21a35.34,35.34,0,0,0-1.88-6.84c-1-2.57-1.56-4.29-1.84-5.18a53.69,53.69,0,0,1-1.94-5.38q-6.47-20.08-8.15-21.7a20.46,20.46,0,0,0-.57,5.07l.14,5.66-.14,3.48c0,.54.1,2.21.28,5h-.21q0,12,.5,13.25v6.47a2.61,2.61,0,0,1,.28,1.26c0,1.13-.45,1.69-1.34,1.69s-1.51-1.29-1.51-3.87l.28-4.71-.46-20.7.46-12.77V9.06a10.88,10.88,0,0,1,.05-1.27c0-.21.07-.46.11-.75a2.42,2.42,0,0,1,.16-.69l.24-.56a2.92,2.92,0,0,1,.74-1l.21.25.71-.18a1.44,1.44,0,0,1,1,1.12,2.39,2.39,0,0,0,.09.41,3.06,3.06,0,0,1,.09.37,97,97,0,0,0,5.16,14.31c2.63,6.11,4.22,10.05,4.78,11.79s1.07,3.59,1.52,5.54a35.23,35.23,0,0,0,3.23,9.46l.14-.22A386.39,386.39,0,0,0,232,8.39ZM230.49,52.3s.07,0,.07.07Z"/>
        <path d="M249,6.35l-1.51-.42a2.63,2.63,0,0,0-2,.9,5.65,5.65,0,0,0-1.26,2.23,13.56,13.56,0,0,0-.88,4.08,21,21,0,0,0,.07,2.11,13.59,13.59,0,0,0,.26,1.47c.13.57.22,1,.27,1.2s.18.72.4,1.46.35,1.15.37,1.24l.53,1.31q.7,1.26,1.83,3.18c.75,1.27,1.31,2.24,1.68,2.9s.81,1.52,1.3,2.58a15.56,15.56,0,0,1,1.06,2.9,24.16,24.16,0,0,1,.88,6,34.13,34.13,0,0,1-.21,4.25A17.43,17.43,0,0,1,251,47,13.05,13.05,0,0,1,249.58,50a6.11,6.11,0,0,1-5.41,3l-.35.18c-1.41-.26-2.18-.84-2.32-1.76l.35-.56,2.6.49A3.79,3.79,0,0,0,247.3,50a8.3,8.3,0,0,0,1.79-3.25,24.69,24.69,0,0,0,1-6.77,18.79,18.79,0,0,0-.89-5.87,29.4,29.4,0,0,0-2.16-5.05l-2.54-4.57a22.39,22.39,0,0,1-3.05-10.86,14.06,14.06,0,0,1,1-5.24q1.8-4.61,4.71-4.6A3.39,3.39,0,0,1,249,4.4a1.7,1.7,0,0,1,1,1.39C249.93,6.16,249.62,6.35,249,6.35Zm.5-.28v.07h.07A.06.06,0,0,0,249.48,6.07Z"/>
      </g>
      <g>
        <path class="cls-2" d="M15.3,49.67l-2.39-.25a3,3,0,0,0-1.34.41,4,4,0,0,1-1.85.4c-.71,0-1.16-.23-1.35-.7l-1.19.07c-1,0-1.69-.25-2-.74a.9.9,0,0,1,.4-.76,3.4,3.4,0,0,0,.55-.47H8.23l.28-.28.25-1.51L8.23,30.09l.35-16.81c0-3.26-.12-6-.35-8.33a8,8,0,0,0-2.14-.21l-1.73.14C3.45,4.88,3,4.47,3,3.65c0-.21.22-.41.65-.6a2.82,2.82,0,0,1,1.07-.28q10,0,10,2.18a1.27,1.27,0,0,1-.17.56l-1.65.14a3.69,3.69,0,0,0-2.08-.42l-.35.21a18.75,18.75,0,0,1,.21,3.83l-.21,17.12L11,42.18l-.07,2.21a5.2,5.2,0,0,0,.21,2l-.07.17c0,.47.53.71,1.58.71l2.11-.07c1.43,0,2.15.34,2.15,1a1.3,1.3,0,0,1-.46,1A1.63,1.63,0,0,1,15.3,49.67Z"/>
        <path class="cls-2" d="M43.7,6.39,43.56,4.6c0-1,.34-1.51,1-1.51a1.31,1.31,0,0,1,1.14.66,2.49,2.49,0,0,1,.44,1.41V10l-.38.59q0,5.63-.78,21.78T43.49,50l-1,.26a5.21,5.21,0,0,1-1.22.23c-.23,0-.44-.16-.63-.47a4.22,4.22,0,0,1-.44-1.25,4.31,4.31,0,0,0-.3-1l.07-.21a35.34,35.34,0,0,0-1.88-6.84c-1-2.57-1.56-4.29-1.85-5.18q-.24-.33-1.93-5.38-6.47-20.08-8.16-21.7a21,21,0,0,0-.56,5.07l.14,5.66-.14,3.48c0,.54.1,2.21.28,5h-.21q0,12,.49,13.25v6.47a2.5,2.5,0,0,1,.29,1.26c0,1.13-.45,1.69-1.34,1.69s-1.51-1.29-1.51-3.87l.28-4.71-.46-20.7.46-12.77V7.06a10.88,10.88,0,0,1,.05-1.27c0-.21.07-.46.11-.75a2.42,2.42,0,0,1,.16-.69l.24-.56a2.92,2.92,0,0,1,.74-1l.21.25.7-.18A1.44,1.44,0,0,1,27,4a2.39,2.39,0,0,0,.09.41,2.19,2.19,0,0,1,.08.37,98.46,98.46,0,0,0,5.17,14.31C35,25.16,36.6,29.1,37.16,30.84s1.07,3.59,1.52,5.54a35.23,35.23,0,0,0,3.23,9.46l.14-.22A386.39,386.39,0,0,0,43.7,6.39ZM42.19,50.3c.05,0,.07,0,.07.07Z"/>
        <path class="cls-2" d="M60.68,4.35l-1.51-.42a2.63,2.63,0,0,0-2,.9,5.65,5.65,0,0,0-1.26,2.23,13.56,13.56,0,0,0-.88,4.08,21,21,0,0,0,.07,2.11,13.59,13.59,0,0,0,.26,1.47c.13.57.22,1,.27,1.2s.18.72.4,1.46.35,1.15.37,1.24L57,19.93q.7,1.26,1.83,3.18c.75,1.27,1.31,2.24,1.68,2.9s.81,1.52,1.3,2.58a15.56,15.56,0,0,1,1.06,2.9,24.16,24.16,0,0,1,.88,6,34.13,34.13,0,0,1-.21,4.25A17.43,17.43,0,0,1,62.71,45,13.05,13.05,0,0,1,61.28,48a6.11,6.11,0,0,1-5.41,3l-.35.18c-1.41-.26-2.18-.84-2.32-1.76l.35-.56,2.6.49A3.79,3.79,0,0,0,59,48a8.3,8.3,0,0,0,1.79-3.25A24.69,24.69,0,0,0,61.84,38,19.08,19.08,0,0,0,61,32.11a29.4,29.4,0,0,0-2.16-5.05l-2.54-4.57a22.28,22.28,0,0,1-3-10.86,14.06,14.06,0,0,1,1-5.24q1.8-4.6,4.71-4.6a3.39,3.39,0,0,1,1.78.61,1.7,1.7,0,0,1,1,1.39C61.63,4.16,61.32,4.35,60.68,4.35Zm.5-.28v.07h.07A.06.06,0,0,0,61.18,4.07Z"/>
        <path class="cls-2" d="M81.92,5.09,78,4.6,77.66,5l.14.28a27,27,0,0,0-.14,4.11q0,3.84,1.2,17.92t1.19,21.11a1.32,1.32,0,0,1-.42,1,1.3,1.3,0,0,1-.95.42l-.8-.6L77.73,44l.15-2.53a4.77,4.77,0,0,0-.29-1.72q0-6.12-.86-17.83T75.8,4.6q-5.65,0-6-1.37a1.31,1.31,0,0,1,1.37-.81l9.78.67L82.2,3c.87,0,1.3.3,1.3.91a1,1,0,0,1-.53.83A2,2,0,0,1,81.92,5.09Z"/>
        <path class="cls-2" d="M89.93,5c0-1.83.53-2.74,1.59-2.74A9.21,9.21,0,0,1,97.32,4,6.23,6.23,0,0,1,99.6,9.2v5.24q0,2.78-2.81,8a12.93,12.93,0,0,0-1,1.88q0,.15,2.72,11.39t2.87,11.58c.09.24.33.73.7,1.48a4.43,4.43,0,0,1,.57,1.93.72.72,0,0,1-.81.81l-1.06-.35q-1.68-1.9-3.69-14.06Q95.2,25.31,93.84,25.3h-.29c-1,0-1.58.34-1.58,1q0,3.95.46,13.1a95.23,95.23,0,0,0,.77,10.25l-.52,1.19H91.62l-.53-.56Q89.93,19.12,89.93,5Zm2,1,.28,17.44.14.14a3.1,3.1,0,0,0,2.47-1.42,10.26,10.26,0,0,0,1.65-3.47,26.62,26.62,0,0,0,1.16-6.39,29.22,29.22,0,0,0-.14-3.29,11.2,11.2,0,0,0-.6-2.34Q96,4.07,92.82,4.07c-.28,0-.5.22-.64.67A4,4,0,0,0,92,5.93Z"/>
        <path class="cls-2" d="M124,17.89l.08,1.44c-.1,1.22-.16,2.86-.2,4.92s-.07,4-.1,5.87-.1,3.86-.2,6a48.6,48.6,0,0,1-.56,5.8c-.66,4.08-1.72,6.8-3.2,8.16s-3.46,1.65-5.59.46a7.89,7.89,0,0,1-2.3-1.94q-.93-1.15-1.5-7.47t-.66-13.3q-.32-21-.67-24l.46-1c1.1.14,1.65,1.46,1.65,4l.21,19.09.77,15.26q0,8.19,5.42,8.19,3.33,0,4.22-15.08.06-1,.33-9.74t.26-21l-.14-1.3c0-.54.35-.81,1-.81s1.1.16,1.23.47a22.7,22.7,0,0,1,.19,4.26,25,25,0,0,1-.45,5.57,1.22,1.22,0,0,1,.07.46Z"/>
        <path class="cls-2" d="M134.69,21.16l-.28,14.52c0,4,.38,7,1.16,8.71a7.13,7.13,0,0,0,3.41,4,6.59,6.59,0,0,0,2.72.6,3.19,3.19,0,0,0,2.13-.63c.72,0,1.09.25,1.09.77s-.32.79-1,1.25a8.4,8.4,0,0,1-1.77,1h-2.39a12.27,12.27,0,0,0-1.69-.63,7.93,7.93,0,0,1-2.27-1.14,7.24,7.24,0,0,1-2-2.5,13.45,13.45,0,0,1-1.3-4.06,52.28,52.28,0,0,1-.63-8.51V26.32c0-6.39.23-10.78.7-13.14q1.41-7.22,3.83-9.11a7.84,7.84,0,0,1,2-1,16.91,16.91,0,0,0,1.81-.79h2.88l.2,0,.19.06.2,0,.17.05.16.07.14.09a1,1,0,0,1,.32.74l-.95,1h-3A3.17,3.17,0,0,0,138,5.81a9.82,9.82,0,0,0-1.67,3.29,28,28,0,0,0-.93,4.39,51.27,51.27,0,0,0-.53,7.28Z"/>
        <path class="cls-2" d="M162.6,5.09l-3.9-.49-.35.42.14.28a25.55,25.55,0,0,0-.14,4.11q0,3.84,1.19,17.92t1.2,21.11a1.44,1.44,0,0,1-1.37,1.37l-.81-.6L158.42,44l.14-2.53a5,5,0,0,0-.28-1.72q0-6.12-.86-17.83T156.48,4.6q-5.65,0-6-1.37a1.31,1.31,0,0,1,1.37-.81l9.77.67,1.3-.07c.87,0,1.3.3,1.3.91a1,1,0,0,1-.52.83A2,2,0,0,1,162.6,5.09Z"/>
        <path class="cls-2" d="M181.94,49.67l-2.39-.25a3,3,0,0,0-1.34.41,3.9,3.9,0,0,1-1.84.4c-.72,0-1.17-.23-1.36-.7l-1.19.07c-1,0-1.69-.25-2-.74a.9.9,0,0,1,.4-.76,3.4,3.4,0,0,0,.55-.47h2.07l.28-.28.25-1.51-.53-15.75.35-16.81A82.18,82.18,0,0,0,174.87,5a8,8,0,0,0-2.14-.21L171,4.88c-.91,0-1.37-.41-1.37-1.23,0-.21.22-.41.65-.6a2.82,2.82,0,0,1,1.08-.28q10,0,10,2.18a1.31,1.31,0,0,1-.18.56l-1.65.14a3.69,3.69,0,0,0-2.08-.42l-.35.21a18.75,18.75,0,0,1,.21,3.83l-.21,17.12.49,15.79-.07,2.21a5.2,5.2,0,0,0,.21,2l-.07.17c0,.47.53.71,1.59.71l2.11-.07c1.42,0,2.14.34,2.14,1a1.3,1.3,0,0,1-.46,1A1.63,1.63,0,0,1,181.94,49.67Z"/>
        <path class="cls-2" d="M206,22.42l.14,8.58q0,16.2-5.2,19.72a4.88,4.88,0,0,1-2.85.88q-8.45,0-8.44-26.51a97.58,97.58,0,0,1,1.41-17.75c.7-3.66,1.77-5.48,3.2-5.48a1.36,1.36,0,0,1,.93.38,3.42,3.42,0,0,0,1.19.65,14,14,0,0,0,2.08.51l1.88.35c1,.17,1.89,1.09,2.78,2.78q3,5.13,3,15.54ZM191.92,25l.14,5.7a53.61,53.61,0,0,0,1.55,13,12.85,12.85,0,0,0,1.67,4,3.1,3.1,0,0,0,2.53,1.73,3.44,3.44,0,0,0,2.5-1.06,7.32,7.32,0,0,0,1.7-2.93,36.18,36.18,0,0,0,1.06-3.83,31,31,0,0,0,.59-4.38q.28-3.87.29-6.89l-.81-17-.28-.56.14-.35a8.78,8.78,0,0,0-1.76-5.45A5.22,5.22,0,0,0,197,4.74h-3q-.6,0-1.06,6.41t-.6,7.12Z"/>
        <path class="cls-2" d="M234,6.39l-.14-1.79c0-1,.34-1.51,1-1.51a1.34,1.34,0,0,1,1.15.66,2.56,2.56,0,0,1,.43,1.41V10l-.38.59q0,5.63-.78,21.78T233.79,50l-1,.26a5.21,5.21,0,0,1-1.22.23c-.23,0-.44-.16-.63-.47a4.22,4.22,0,0,1-.44-1.25,3.51,3.51,0,0,0-.3-1l.07-.21a35.34,35.34,0,0,0-1.88-6.84c-1-2.57-1.56-4.29-1.84-5.18a53.69,53.69,0,0,1-1.94-5.38q-6.47-20.08-8.15-21.7a20.46,20.46,0,0,0-.57,5.07l.14,5.66-.14,3.48c0,.54.1,2.21.28,5h-.21q0,12,.5,13.25v6.47a2.61,2.61,0,0,1,.28,1.26c0,1.13-.45,1.69-1.34,1.69s-1.51-1.29-1.51-3.87l.28-4.71-.46-20.7.46-12.77V7.06a10.88,10.88,0,0,1,.05-1.27c0-.21.07-.46.11-.75a2.42,2.42,0,0,1,.16-.69l.24-.56a2.92,2.92,0,0,1,.74-1l.21.25.71-.18a1.44,1.44,0,0,1,1,1.12,2.39,2.39,0,0,0,.09.41,3.06,3.06,0,0,1,.09.37,97,97,0,0,0,5.16,14.31c2.63,6.11,4.22,10.05,4.78,11.79s1.07,3.59,1.52,5.54a35.23,35.23,0,0,0,3.23,9.46l.14-.22A386.39,386.39,0,0,0,234,6.39ZM232.49,50.3s.07,0,.07.07Z"/>
        <path class="cls-2" d="M251,4.35l-1.51-.42a2.63,2.63,0,0,0-2,.9,5.65,5.65,0,0,0-1.26,2.23,13.56,13.56,0,0,0-.88,4.08,21,21,0,0,0,.07,2.11,13.59,13.59,0,0,0,.26,1.47c.13.57.22,1,.27,1.2s.18.72.4,1.46.35,1.15.37,1.24l.53,1.31q.7,1.26,1.83,3.18c.75,1.27,1.31,2.24,1.68,2.9s.81,1.52,1.3,2.58a15.56,15.56,0,0,1,1.06,2.9,24.16,24.16,0,0,1,.88,6,34.13,34.13,0,0,1-.21,4.25A17.43,17.43,0,0,1,253,45,13.05,13.05,0,0,1,251.58,48a6.11,6.11,0,0,1-5.41,3l-.35.18c-1.41-.26-2.18-.84-2.32-1.76l.35-.56,2.6.49A3.79,3.79,0,0,0,249.3,48a8.3,8.3,0,0,0,1.79-3.25,24.69,24.69,0,0,0,1-6.77,18.79,18.79,0,0,0-.89-5.87,29.4,29.4,0,0,0-2.16-5.05l-2.54-4.57a22.39,22.39,0,0,1-3.05-10.86,14.06,14.06,0,0,1,1-5.24q1.8-4.6,4.71-4.6A3.39,3.39,0,0,1,251,2.4a1.7,1.7,0,0,1,1,1.39C251.93,4.16,251.62,4.35,251,4.35Zm.5-.28v.07h.07A.06.06,0,0,0,251.48,4.07Z"/>
      </g>
    </g>
  </g>
</svg>
