<svg xmlns="http://www.w3.org/2000/svg" width="175" height="180" viewBox="0 0 175 180">
  <defs>
    <style>
      .cls-1 {
        fill: #b20073;
      }

      .cls-2 {
        fill: #0d2d7c;
      }

      .cls-3 {
        fill: #0b2463;
      }

      .cls-4 {
        fill: none;
        stroke: #0b2463;
        stroke-miterlimit: 10;
        stroke-width: 1.2px;
      }

      .cls-5 {
        fill: #fff;
      }

      .cls-6 {
        fill: #b034ce;
      }
    </style>
  </defs>
  <g id="mosq_full_dead" data-name="mosq full dead">
    <g>
      <path class="cls-1" d="M18.69,141c22.16-23.46,36.22-39.66,7.42-45.42-16.62-3.32,20.59-4.33,16.61-10-6.09-8.62-9.07-11.47-23.26-24.09-9.42-8.37,30,20.35,44,13.29C74.3,69.32,81.54,50,86.75,26.58c1.8-8.12-11.21,45.66,4.93,50.5,16.69,5,32.24-10.16,46.58-20.59,2.76-2-23.77,19.38-20.51,36.23,3.94,20.38,44.36,33.47,40.41,32.59-1.1-.25-34-14.4-53.13-14-13.14.28,7.47,15.78-5,8.3-20.92-12.55-9.66,70.86-16.18,50-2-6.39-.88-37.27-15.38-45-5.27-2.82-8.83-9.7-18.28-5.82C33.48,125.66,10.8,149.3,18.69,141Z"/>
      <path class="cls-2" d="M140.55,71.65c0-2-6,4-13,4-2.83,0,10.3-13.47,13-12,4.79,2.62,7.28,13,5,19.28S137.82,94.78,131,96.49c-8.56,2.14-25.15-14.24-25.15-7.54,0,5.28,3.62,4.92,0,18.17-1.56,5.78-3.6,10.94-10.82,12.42s-8.75-10-20.74-14.56c-9.92-3.76-20.89-19.41-20.72-20.4,1-6,12.47,11.42,18,13,9.71,2.76,13-.91,15,2.09,4.14,6.21,14,16.66,13,12-3-14-7-17-6-23,.89-5.35,8-15,17-15,6.07,0,15,16.49,21.67,17.41,5.48.76,5.37-6.18,6.22-10C138.55,80.49,140.55,75.4,140.55,71.65Z"/>
      <path class="cls-3" d="M59.59,83.59c3.15-.13,2.69-1.21,7.61,2.2,5.18,3.59,3.3,4.3,6.08,6.4,7.13,5.41-.71,6.37,8.27,4.37,3.08-.68,5.9,9.34,5.9,9.34a.62.62,0,0,1-.62.69L82.39,106c-.37,0,.32-1.69.45-1.29l-.58,3.58c.14.44-.28,1-.67.81l-.83-2.79c-.46-.17-.9.54-.6.94l.31.43c.31.41-.18,1.14-.63.93l-1.78-.82c-.47-.21-1,.55-.62,1s-.16,1.19-.63,1l-3-1.58c-.38-.2-.85.31-.72.77l.24.83c.14.48-.37,1-.74.77L66.5,106.7c-.31-.19-.74.13-.77.57l-.08,1.34c0,.51-.59.82-.86.47l-3.54-4.58c-.2-.25-.59-.16-.78.19l-.76,1.42c-.23.42-.73.44-.86,0L57,100.25l-.2,2.59L54.6,93.57l-1,5-1-8c-1.05-1.21-2,3-2,3,0-1,.6-6.47,1.58-8.49,0-.07-.58-.5.42-2.49C54.6,82.59,58.22,83.64,59.59,83.59Z"/>
      <g>
        <path class="cls-4" d="M61.05,88.29,71.46,67.93s.76-11.74,2.45-15.19c1.44-2.94,11.8-9.66,7.1-10.12-12.78-1.26-25-13.47-25-13.47l9-16"/>
        <polyline class="cls-4" points="64.49 89.22 70.05 64.15 63.05 53.15 69.15 42.77 80.82 28.65 86.05 7.15"/>
        <path class="cls-4" d="M68.47,90.3c1.19-1.53,4.67-16.73,7.08-22,1.81-3.92,9.5-14.4,9.5-14.4l20-3.78-2-13s10.38-2.67,13-4c4.85-2.47,2-23,2-23"/>
        <path class="cls-4" d="M72.26,91.32,81,73.94s5.15,1.58,8.14-.69c1.59-1.21,10.24-9.7,8.51-10.7-3.92-2.28-13.53-26.1-13.53-26.1s21.93-4,20.91-4.3.22-23.14.45-23.78"/>
      </g>
      <g>
        <path class="cls-3" d="M61.59,88.57,60.52,88,70.86,67.77c.1-1.34.86-11.93,2.51-15.3C74,51.29,75.69,49.7,77.53,48c1.51-1.38,4.32-4,4.09-4.6,0,0-.11-.14-.67-.19C68.11,42,56.13,30.08,55.62,29.57l-.32-.32,9.22-16.4,1,.59L56.8,29c2,1.91,13,11.87,24.27,13,.93.09,1.5.43,1.69,1,.44,1.32-1.39,3.09-4.42,5.87C76.66,50.43,74.93,52,74.45,53c-1.62,3.31-2.39,14.85-2.4,15L72,68.2Z"/>
        <polygon class="cls-3" points="65.07 89.35 63.9 89.09 69.41 64.26 62.34 53.16 68.63 42.47 80.27 28.38 85.46 7.01 86.63 7.29 81.37 28.93 69.61 43.15 63.75 53.13 70.69 64.04 65.07 89.35"/>
        <path class="cls-3" d="M68.94,90.66,68,89.93c.49-.64,1.65-4.73,2.78-8.69,1.38-4.86,2.94-10.37,4.23-13.17,1.81-3.92,9.24-14.07,9.56-14.5l.14-.19,19.66-3.71-2-13,.53-.13c.1,0,10.35-2.67,12.87-4,3.67-1.86,2.46-16.79,1.68-22.38l1.19-.16c.3,2.14,2.76,21-2.32,23.61C114,34.87,105.9,37,103.72,37.59l2,13L85.4,54.47c-1.05,1.44-7.68,10.58-9.3,14.11-1.25,2.71-2.8,8.17-4.17,13C70.43,86.86,69.55,89.89,68.94,90.66Z"/>
        <path class="cls-3" d="M72.79,91.59l-1.07-.54,9-17.83.49.15s4.89,1.46,7.59-.6c2-1.52,8.55-8.34,8.51-9.74-4-2.52-12.73-23.91-13.71-26.35L83.31,36l.73-.14c6.88-1.26,17.73-3.34,20.24-4-.74-3.82.61-23.53.66-23.67l1.13.4c-.36,1.69-1.2,20.75-.63,23.06l.23.06v.51c0,.62,0,.9-20.7,4.71,2.86,7,10,23.4,13,25.12a1,1,0,0,1,.52.87c.16,2.49-8,10.08-9,10.83-2.67,2-6.77,1.27-8.18.92Z"/>
      </g>
      <g id="head">
        <path class="cls-2" d="M60.69,67.05c4-3.53,3.32-3.48,1.86-6.4-2-4-16.83,1.48-16,10,.71,7.39,6.12,17.84,6.06,14.57C52.49,79.6,48.55,77.65,60.69,67.05Z"/>
        <path class="cls-5" d="M60.62,65.45c4.06-2.7,1.18-6.74-1.78-6.82s-10.52,5.82-10.7,12.54S52,85.06,51.93,82.1C51.83,77,48.88,73.25,60.62,65.45Z"/>
        <path class="cls-6" d="M61.55,63.65c0,3.12-4.17,3.08-5.11,1s-.67-1.9,1.43-2.84S61.55,61.35,61.55,63.65Z"/>
        <path class="cls-2" d="M53.55,88.65c-4.23-5.68-10.89-13.3-10-18,.22-1.16,1-8,1-8s-11-2-11,3c0,2-6.84,7.48-9.21,7.08-4.67-.79-7.77-15.93-7.77-15.93s2-5.15,7-6.15c3.3-.66,3.37,0,6.73,0,1.59,0,3.79,2.55,6.24,5,1,1,1.46-2.66.7-13.37a34.85,34.85,0,0,1,1.28,8.59c-.12,3.79,1.69,4.91-1,5.73-1.65.5-1.82-1.37-2.94-1.58-2-.37-1.76-2.81-5-3-1.55-.09-7,.63-7,.63s-3.86,4.86-3,7c2,5,2.54,10.28,5.56,10.79,1.67.29,4.7-1.69,5.62-4.38,1-2.89,2.95-3.82,5-4.81,1.67-.83,7-1.16,8.94,0,3.87,2.32-1.08,9.47.91,11.4,3.4,3.3,4.05,7.7,8,13Z"/>
        <path class="cls-2" d="M54,89.53c-.93-5.52-6.53-4-13.64-4.67-5.21-.5-12.36,2.42-15.77,6.33-1.62,1.85,1.76,6.47,4,6.46,2.8,0,11.53-3.91,14.14-5.77C47.61,88.36,54,89.53,54,89.53Z"/>
        <path class="cls-5" d="M51.55,88.46c2.76-2-17.44-3.45-22.41.09-5.21,3.73-2,6.31-2,6.31-.36,2.08,8.94.41,15.46-4.25C45.53,88.52,51.55,88.46,51.55,88.46Z"/>
        <path class="cls-6" d="M31.32,92.84c-.44,1.78-.81,3.06-2.34,2.69a3.11,3.11,0,0,1-2-3.9c.44-1.78,1.33-2,2.86-1.65S31.75,91.06,31.32,92.84Z"/>
      </g>
      <path class="cls-5" d="M65.58,108.54c-3.07,3.59,5,13,5,18,0,0-1,5.63-1,5.68-1.3,4.19,5.58,9.3,10,9.3,8,0,10,.33,12-3,1.2-.66,8.87-2.7,8-3-3-1-12.3-1.46-15,.15-5,3-11.87,4.37-12,1-.37-9.14,6.7-11.38,4-13-5-3-5.07-6.31-6-7.12A15.81,15.81,0,0,1,65.58,108.54Z"/>
      <path class="cls-5" d="M58.55,108.65c4.84,5.81,3.17,10.55,3,11-.41,1.06-4.65-.76-9.13,3.13-3.2,2.79-5.92-3-6.88-1.88-3.66,4.23-1,9.72,4.27,15.17,1.9,2,7,8.28,6.49,7.46-.71-1-7-5.25-9.69-7-3-2-.68-4.67-6.06-7.85-3.41-2-.51-7.42.9-9.44,4.68-6.68,4.88,1.72,9.53.11,2.91-1,6.53-2.11,6.94-2.89.92-1.79-4.15-5.1-3.85-9.24s1.89-4.42,2.48-4.54S53.55,102.65,58.55,108.65Z"/>
    </g>
  </g>
</svg>
