<svg xmlns="http://www.w3.org/2000/svg" width="175" height="180" viewBox="0 0 175 180">
  <defs>
    <style>
      .cls-1 {
        fill: #0b2463;
      }

      .cls-2 {
        fill: #0d2d7c;
      }

      .cls-3 {
        fill: #fff;
      }

      .cls-4 {
        fill: #b034ce;
      }
    </style>
  </defs>
  <g id="mosq_suck" data-name="mosq suck">
    <g>
      <path class="cls-1" d="M160.7,122.41c-14.65-9.8-44.64-63.68-48.89-71.41L97.06,68.91l-1-.83,16-19.39.46.84c.34.62,33.75,61.63,48.94,71.8Z"/>
      <path class="cls-1" d="M14.76,122.11l-.41-1.23c19-6.22,46.34-68,46.61-68.64l.59-1.34,10.6,23.33L71,74.77,61.56,54.08c-1.86,4.12-8,17.28-15.62,30.85C33.49,106.91,23,119.42,14.76,122.11Z"/>
      <path class="cls-1" d="M165.2,94c-14.6-9.77-47-53.13-51.65-59.45L93.08,61.89l-1-.78,21.52-28.7.52.7c.37.5,36.61,49.65,51.84,59.85Z"/>
      <path class="cls-1" d="M14.62,86.14l-.13-1.29C33.93,82.91,59.74,38.62,60,38.17l.55-.93L76.11,62.15l-1.1.69L60.57,39.75a225.82,225.82,0,0,1-15,21.9C33.51,77.05,23.1,85.3,14.62,86.14Z"/>
      <path class="cls-2" d="M79.1,36c-6.53,24.54.41,55,5.19,55S98.45,69.11,93.8,44C91.2,30,91.66,3,86.88,3S82.56,23,79.1,36Z"/>
      <path class="cls-1" d="M98.27,78.68l3.79-6.86-3.74,1.37,1.27-9.33-3,2.48L97,58.77l-2.54,5.09,0-6.78L92,61.34l-.41-5L88.8,58.74c-.23-.56-.39-.86-.39-.86l-.06-.07L86.87,53,85.6,54.4,84.46,53l-1,3.8-1,1.08-.2.37-2-1.93-.37,5-2.19-4.26,0,6.78-2.25-5.09.39,7.57-2.72-2.48,1.14,9.33L71,71.82l3.37,6.86L71,78.92l5,4.83-2.36,1.14,5.07,3.34a2.51,2.51,0,0,0,0,.27l-2,1.51,2.95.76,0,.06a5.42,5.42,0,0,0,2.09,1.54l-.66.56c1.46-.05,2.48,4.12,3.94,4.07,1.65,0,3.74-4.12,5.38-4.07l-1.12-.83a4.57,4.57,0,0,0,1.11-.95l5-1.14-2.42-1.64L99,84.89l-2.65-1.14L102,78.92Z"/>
      <path class="cls-3" d="M74.15,64.13S54,60.09,39,51.69c-20.85-11.61-31-29.35-30.85-30,.53-1.86,13,5.4,37.83,22C65.05,56.51,68.08,58.47,74.15,64.13Z"/>
      <path class="cls-3" d="M99.45,66.34S121,61,136.5,51.57c21.49-13,30.66-31.45,30.39-32.09-.79-1.82-15.56,7.5-41.66,27.12C112.22,56.39,105.44,60.28,99.45,66.34Z"/>
      <path class="cls-2" d="M86.13,95.55C84,93.93,92.72,86,96.06,85.21c3.82-.94,15.27-4.13,15.85,1.11.16,1.39-10.28,7-15.66,8.81C90.34,97.11,87.89,96.88,86.13,95.55Z"/>
      <path class="cls-2" d="M84.41,96.94c2.52-1.27-5-11.13-8.29-12.62C72.35,82.61,57.9,75.58,59.06,81c.55,2.58,9.44,9,14.67,11.91C79.46,96.1,82.33,98,84.41,96.94Z"/>
      <path class="cls-3" d="M86.56,95.69c-2.13-1.62,10.7-9.22,14.53-10.2,7.79-2,11.27-.56,10.82.83-.39,1.2-9.37,7.48-14.23,8.66C91.4,96.5,88.32,97,86.56,95.69Z"/>
      <path class="cls-3" d="M84.06,97c2.5-1.3-6.43-10.06-8.15-11.4-4-3.14-16.65-6.62-15.24-3,.79,2,5.73,5.86,12.55,9.68C78.93,95.53,82,98.07,84.06,97Z"/>
      <circle class="cls-4" cx="80.01" cy="93.37" r="2.52"/>
      <circle class="cls-4" cx="90.48" cy="94.45" r="2.58"/>
      <path class="cls-2" d="M86.12,95.19c.07.22,1.34,8.35,1.95,14.89.34,3.67-.48,12.4-.8,18-.63,10.7-.13,15.14-.64,24C85.84,166,86,177.23,85,177a310.44,310.44,0,0,1-1-36c.27-10-.64-13.88-.45-20.83.21-8,.24-11.86.42-16C84.11,98.86,85.55,93.39,86.12,95.19Z"/>
    </g>
  </g>
</svg>
