<svg xmlns="http://www.w3.org/2000/svg" xmlns:xlink="http://www.w3.org/1999/xlink" width="175" height="180" viewBox="0 0 175 180">
  <defs>
    <style>
      .cls-1 {
        fill: #0b2463;
      }

      .cls-2 {
        fill: #0d2d7c;
      }

      .cls-3 {
        fill: url(#radial-gradient);
      }

      .cls-4 {
        fill: #fff;
      }

      .cls-5 {
        fill: #b034ce;
      }
    </style>
    <radialGradient id="radial-gradient" cx="87.27" cy="40.95" r="29.72" gradientTransform="translate(0 -40.95) scale(1 2)" gradientUnits="userSpaceOnUse">
      <stop offset="0.14" stop-color="#b20073"/>
      <stop offset="0.67" stop-color="#0d2d7c"/>
    </radialGradient>
  </defs>
  <g id="mosc_full" data-name="mosc full">
    <g>
      <path class="cls-1" d="M160.7,125.41c-14.65-9.8-44.64-63.68-48.89-71.41L97.06,71.91l-1-.83,16-19.39.46.84c.34.62,33.75,61.63,48.94,71.8Z"/>
      <path class="cls-1" d="M14.76,125.11l-.41-1.23c19-6.22,46.34-68,46.61-68.64l.59-1.34,10.6,23.33L71,77.77,61.56,57.08c-1.86,4.12-8,17.28-15.62,30.85C33.49,109.91,23,122.42,14.76,125.11Z"/>
      <path class="cls-1" d="M165.2,97c-14.6-9.77-47-53.13-51.65-59.45L93.08,64.89l-1-.78,21.52-28.7.52.7c.37.5,36.61,49.65,51.84,59.85Z"/>
      <path class="cls-1" d="M14.62,89.14l-.13-1.29C33.93,85.91,59.74,41.62,60,41.17l.55-.93L76.11,65.15l-1.1.69L60.57,42.75a225.82,225.82,0,0,1-15,21.9C33.51,80.05,23.1,88.3,14.62,89.14Z"/>
      <path class="cls-2" d="M67.64,26.45C60.09,51,78.53,88,84.06,88s30-33.44,24.58-58.55C105.64,15.45,91.06,0,87.06,0,84.06,0,71.64,13.45,67.64,26.45Z"/>
      <path class="cls-3" d="M69.64,28.45c-5.55,18,7,50,17,50,7,0,23-28.54,19-47-2.2-10.29-16.06-28-19-28C84.44,3.45,72.58,18.89,69.64,28.45Z"/>
      <path class="cls-1" d="M99.1,81.68l4.06-6.86-4,1.37,1.37-9.33-3.27,2.48.47-7.57L95,66.86l0-6.78-2.63,4.26-.45-5-3,2.42c-.26-.56-.42-.86-.42-.86l-.07-.07L86.9,56l-1.37,1.4L84.32,56l-1.11,3.8-1.06,1.08-.21.37-2.15-1.93-.39,5-2.34-4.26,0,6.78-2.42-5.09.42,7.57-2.91-2.48,1.22,9.33-3.57-1.37,3.62,6.86-3.57.24,5.39,4.83-2.53,1.14,5.42,3.34c0,.09,0,.18,0,.27L76.1,93l3.15.76,0,.06a5.72,5.72,0,0,0,2.25,1.54l-.72.56c1.57-.05,2.66,4.12,4.23,4.07,1.76,0,4-4.12,5.76-4.07l-1.2-.83a5.06,5.06,0,0,0,1.19-.95L96.13,93l-2.59-1.64,6.35-3.48-2.83-1.14,6-4.83Z"/>
      <path class="cls-4" d="M74.15,67.13S54,63.09,39,54.69c-20.85-11.61-31-29.35-30.85-30,.53-1.86,13,5.4,37.83,22C65.05,59.51,68.08,61.47,74.15,67.13Z"/>
      <path class="cls-4" d="M99.45,69.34S121,64,136.5,54.57c21.49-13,30.66-31.45,30.39-32.09-.79-1.82-15.56,7.5-41.66,27.12C112.22,59.39,105.44,63.28,99.45,69.34Z"/>
      <path class="cls-2" d="M86.13,98.55C84,96.93,92.72,89,96.06,88.21c3.82-.94,15.27-4.13,15.85,1.11.16,1.39-10.28,7-15.66,8.81C90.34,100.11,87.89,99.88,86.13,98.55Z"/>
      <path class="cls-2" d="M84.41,99.94c2.52-1.27-5-11.13-8.29-12.62C72.35,85.61,57.9,78.58,59.06,84c.55,2.58,9.44,9,14.67,11.91C79.46,99.1,82.33,101,84.41,99.94Z"/>
      <path class="cls-4" d="M86.56,98.69c-2.13-1.62,10.7-9.22,14.53-10.2,7.79-2,11.27-.56,10.82.83-.39,1.2-9.37,7.48-14.23,8.66C91.4,99.5,88.32,100,86.56,98.69Z"/>
      <path class="cls-4" d="M84.06,100c2.5-1.3-6.43-10.06-8.15-11.4-4-3.14-16.65-6.62-15.24-3,.79,2,5.73,5.86,12.55,9.68C78.93,98.53,82,101.07,84.06,100Z"/>
      <circle class="cls-5" cx="80.01" cy="96.37" r="2.52"/>
      <circle class="cls-5" cx="90.48" cy="97.45" r="2.58"/>
      <path class="cls-2" d="M86.12,98.19c.07.22,1.34,8.35,1.95,14.89.34,3.67-.48,12.4-.8,18-.63,10.7-.13,15.14-.64,24C85.84,169,86,180.23,85,180a310.44,310.44,0,0,1-1-36c.27-10-.64-13.88-.45-20.83.21-8,.24-11.86.42-16C84.11,101.86,85.55,96.39,86.12,98.19Z"/>
    </g>
  </g>
</svg>
