<svg xmlns="http://www.w3.org/2000/svg" width="175" height="180" viewBox="0 0 175 180">
  <defs>
    <style>
      .cls-1 {
        fill: #0d2d7c;
      }

      .cls-2 {
        fill: #0b2463;
      }

      .cls-3 {
        fill: none;
        stroke: #0b2463;
        stroke-miterlimit: 10;
        stroke-width: 1.2px;
      }

      .cls-4 {
        fill: #fff;
      }

      .cls-5 {
        fill: #b034ce;
      }
    </style>
  </defs>
  <g id="mosq_fly_dead" data-name="mosq fly dead">
    <g>
      <path class="cls-1" d="M146.55,86.34c0-2-6,4-13,4-2.82,0,10.31-13.47,13-12,4.8,2.62,7.29,13,5,19.29s-7.75,11.85-14.59,13.56c-8.56,2.13-25.15-14.25-25.15-7.55,0,5.28,3.62,4.93,0,18.18-1.55,5.77-3.59,10.93-10.81,12.41s-8.75-10-20.74-14.55c-9.92-3.77-20.89-19.42-20.73-20.4,1-6,12.48,11.41,18,13,9.72,2.76,13-.91,15,2.08,4.15,6.21,14,16.66,13,12-3-14-7-17-6-23,.9-5.34,8-15,17-15,6.08,0,15,16.49,21.68,17.41,5.48.76,5.36-6.17,6.22-10C144.56,95.19,146.55,90.09,146.55,86.34Z"/>
      <path class="cls-2" d="M65.59,98.28c3.16-.13,2.7-1.21,7.62,2.2,5.17,3.59,3.3,4.3,6.07,6.41,7.13,5.4-.71,6.36,8.28,4.37,3.08-.69,5.9,9.33,5.9,9.33a.64.64,0,0,1-.62.7l-4.44-.62c-.37,0,.32-1.69.45-1.29L88.27,123c.14.44-.28,1-.67.81L86.76,121c-.45-.16-.9.54-.6,1l.32.42c.31.42-.18,1.14-.63.94l-1.78-.82c-.47-.22-1,.55-.62,1s-.16,1.19-.63,1l-3-1.58c-.38-.2-.85.31-.72.78l.24.83c.13.48-.37,1-.74.76L72.5,121.4c-.3-.19-.73.13-.76.56l-.08,1.34c0,.52-.6.82-.87.47l-3.53-4.57c-.2-.26-.59-.17-.78.18l-.76,1.43c-.23.42-.73.44-.86,0L63,115l-.2,2.58-2.23-9.27-1,5-1-8c-1.06-1.22-2,3-2,3,0-1,.6-6.47,1.58-8.48,0-.07-.58-.5.42-2.5C60.6,97.28,64.22,98.33,65.59,98.28Z"/>
      <g>
        <path class="cls-3" d="M67.06,103l10.4-20.37s.77-11.73,2.46-15.19c1.44-2.94,11.8-9.65,7.1-10.11-12.78-1.26-25-13.48-25-13.48l9-16"/>
        <polyline class="cls-3" points="70.49 103.92 76.05 78.84 69.05 67.84 75.16 57.47 86.83 43.34 92.05 21.84"/>
        <path class="cls-3" d="M74.48,105c1.19-1.53,4.66-16.73,7.08-22,1.8-3.92,9.5-14.4,9.5-14.4l20-3.78-2-13s10.39-2.67,13-4c4.85-2.47,2-23,2-23"/>
        <path class="cls-3" d="M78.26,106,87,88.64s5.15,1.58,8.14-.7c1.59-1.21,10.24-9.69,8.51-10.7C99.76,75,90.15,51.15,90.15,51.15s21.92-4,20.9-4.31.23-23.14.46-23.78"/>
      </g>
      <g>
        <path class="cls-2" d="M67.59,103.26l-1.06-.54L76.87,82.46c.09-1.34.86-11.93,2.51-15.29C80,66,81.7,64.39,83.54,62.71c1.51-1.39,4.32-4,4.09-4.6,0,0-.11-.14-.67-.2C74.11,56.65,62.13,44.77,61.63,44.27l-.32-.33,9.22-16.39,1,.59L62.8,43.73c2,1.91,13,11.88,24.28,13,.93.09,1.5.43,1.69,1,.44,1.32-1.39,3.09-4.42,5.86-1.68,1.54-3.41,3.12-3.89,4.1-1.62,3.31-2.39,14.86-2.4,15L78,82.9Z"/>
        <polygon class="cls-2" points="71.08 104.05 69.91 103.78 75.42 78.95 68.35 67.86 74.64 57.16 86.28 43.07 91.47 21.7 92.64 21.98 87.38 43.62 75.62 57.85 69.76 67.83 76.69 78.73 71.08 104.05"/>
        <path class="cls-2" d="M75,105.36l-.94-.74c.49-.63,1.65-4.73,2.77-8.69,1.38-4.86,3-10.37,4.23-13.16,1.81-3.93,9.25-14.07,9.57-14.5l.14-.19,19.65-3.72-2-13,.52-.14c.11,0,10.36-2.67,12.88-3.95,3.67-1.87,2.46-16.79,1.68-22.39l1.19-.16c.3,2.14,2.76,21-2.32,23.62-2.33,1.18-10.43,3.34-12.6,3.91l2,13L91.41,69.17c-1,1.43-7.68,10.57-9.31,14.1-1.25,2.71-2.79,8.17-4.16,13C76.44,101.55,75.56,104.58,75,105.36Z"/>
        <path class="cls-2" d="M78.8,106.28l-1.07-.54,9-17.82.48.15s4.9,1.46,7.6-.6c2-1.53,8.55-8.35,8.51-9.75-4-2.51-12.73-23.9-13.71-26.35l-.28-.68.72-.13c6.89-1.27,17.74-3.35,20.24-4-.73-3.81.61-23.53.67-23.67l1.12.41c-.36,1.68-1.19,20.75-.62,23.06l.22.06,0,.5c0,.62,0,.91-20.7,4.72,2.86,7,10,23.39,13,25.11a1.06,1.06,0,0,1,.52.88c.16,2.49-8,10.07-9,10.82-2.67,2-6.77,1.27-8.19.92Z"/>
      </g>
      <g id="head">
        <path class="cls-1" d="M66.7,81.74c4-3.53,3.31-3.48,1.85-6.4-2-4-16.82,1.48-16,10,.72,7.39,6.13,17.84,6.06,14.58C58.5,94.3,54.55,92.34,66.7,81.74Z"/>
        <path class="cls-4" d="M66.63,80.14c4.06-2.69,1.18-6.74-1.78-6.82S54.32,79.14,54.14,85.87,58,99.75,57.94,96.79C57.84,91.7,54.88,87.94,66.63,80.14Z"/>
        <path class="cls-5" d="M67.55,78.34c0,3.13-4.17,3.09-5.11,1s-.66-1.9,1.44-2.84S67.55,76,67.55,78.34Z"/>
        <path class="cls-1" d="M59.55,103.34c-4.22-5.67-10.89-13.3-10-18,.22-1.16,1-8,1-8s-11-2-11,3c0,2-6.83,7.49-9.2,7.09-4.67-.8-7.77-15.94-7.77-15.94s2-5.15,7-6.15c3.3-.65,3.37,0,6.73,0,1.59,0,3.78,2.55,6.23,5,1,1,1.47-2.65.71-13.37a35,35,0,0,1,1.28,8.6c-.13,3.79,1.69,4.9-1,5.72-1.64.5-1.81-1.36-2.94-1.57-2-.38-1.75-2.81-5-3-1.54-.09-7,.62-7,.62s-3.85,4.87-3,7c2,5,2.55,10.28,5.57,10.79,1.66.29,4.7-1.69,5.62-4.37,1-2.89,2.95-3.82,5-4.82,1.67-.83,7-1.15,8.94,0,3.87,2.32-1.08,9.48.9,11.4,3.41,3.31,4.06,7.71,8,13Z"/>
        <path class="cls-1" d="M60,104.22c-.92-5.52-6.52-4-13.63-4.66-5.22-.5-12.36,2.42-15.77,6.32-1.62,1.86,1.76,6.48,4,6.46,2.81,0,11.54-3.91,14.14-5.77C53.61,103.05,60,104.22,60,104.22Z"/>
        <path class="cls-4" d="M57.56,103.16c2.75-2-17.44-3.46-22.41.09-5.21,3.73-2,6.31-2,6.31-.37,2.07,8.94.4,15.45-4.26C51.54,103.22,57.56,103.16,57.56,103.16Z"/>
        <path class="cls-5" d="M37.33,107.54c-.44,1.77-.81,3-2.34,2.68a3.1,3.1,0,0,1-2-3.89c.43-1.78,1.33-2,2.86-1.65S37.76,105.76,37.33,107.54Z"/>
      </g>
      <path class="cls-4" d="M71.58,123.24c-3.06,3.58,5,13,5,18,0,0-1,5.63-1,5.68-1.29,4.18,5.59,9.29,10,9.29,8,0,10,.34,12-3,1.2-.66,8.87-2.7,8-3-3-1-12.3-1.45-15,.15-5,3-11.86,4.38-12,1-.36-9.14,6.71-11.37,4-13-5-3-5.06-6.3-6-7.12A15.83,15.83,0,0,1,71.58,123.24Z"/>
      <path class="cls-4" d="M64.55,123.34c4.84,5.81,3.18,10.55,3,11-.4,1.07-4.64-.76-9.12,3.14-3.2,2.78-5.92-3-6.88-1.89-3.66,4.24-1,9.73,4.27,15.17,1.89,2,7,8.29,6.49,7.47-.71-1-7-5.25-9.69-7-3-2-.68-4.67-6.07-7.85-3.4-2-.5-7.42.91-9.43,4.68-6.69,4.87,1.72,9.53.1,2.91-1,6.53-2.1,6.93-2.88.93-1.79-4.14-5.11-3.84-9.25s1.89-4.42,2.47-4.54S59.55,117.34,64.55,123.34Z"/>
    </g>
  </g>
</svg>
