<svg xmlns="http://www.w3.org/2000/svg" width="175" height="180" viewBox="0 0 175 180">
  <defs>
    <style>
      .cls-1 {
        fill: #0b2463;
      }

      .cls-2 {
        fill: #0d2d7c;
      }

      .cls-3 {
        fill: #fff;
      }

      .cls-4 {
        fill: #b034ce;
      }
    </style>
  </defs>
  <g id="mosquito_flying" data-name="mosquito flying">
    <g>
      <path class="cls-1" d="M42.79,161.48c41-16,54.06-53.9,54.19-54.28l.1-.3-8.77-8.46c2.36-1.4,11.75-6.62,16.32-3.94l.51-.86c-5.75-3.37-17.42,4-17.92,4.29l-.53.34,9.23,8.91c-1.3,3.57-14.85,38.31-53.49,53.37Z"/>
      <path class="cls-1" d="M21,150.12c34.72,0,68.47-41.49,68.81-41.92l.33-.41-12.43-9c2.78-1.53,13.43-7,18-4.34l.51-.86C90.5,90.27,77.12,98,76.56,98.35l-.67.39L88.72,108c-3.66,4.4-36.56,42.65-69.67,41.09l0,1C19.68,150.1,20.36,150.12,21,150.12Z"/>
      <path class="cls-1" d="M40.86,157.63c32.91-10.49,46.31-53.79,46.44-54.23l.08-.28L78.5,94.07C81.1,92.64,92,87,96.6,89.67l.51-.86C91.38,85.44,78,93.19,77.43,93.52l-.55.33,9.37,9.54c-1.2,3.74-14.67,43.4-45.69,53.28Z"/>
      <path class="cls-1" d="M25.06,155.72C64.92,151.94,81.54,106,81.7,105.49l.1-.29-10-10.39c2-1.66,10.84-8.72,15.44-6l.51-.86C82,84.53,71.24,94,70.79,94.4l-.39.34,10.25,10.7c-1.47,3.89-18.1,45.72-55.68,49.28Z"/>
      <path class="cls-2" d="M94.45,79.31c-14.17-3.08-12.32-3.59-19.89-4.74a89.12,89.12,0,0,0-30.16-.16c-6.63,1.18-18.7,3.31-23.53,10a18,18,0,0,1-5.21,4.26C10,91.94,8.29,93.43,8.42,94.31c.19,1.31,8.19,1,8.19,1,10.56-.48,17.3-2.73,23.68-4.27a118.31,118.31,0,0,1,27-3c3.42.05,6.32.33,21,2.69C108.72,94,111.56,96,117,95.57c3.9-.33,7.75-.3,5.88-2.43C118.07,87.63,112.62,83.25,94.45,79.31Z"/>
      <path class="cls-1" d="M121.16,95.05c-2.41,2.1-5.58,1.54-14.85.77-7.72-.64-6.28-.73-9-.67-9.42.23-15.26-3.47-15.26-3.47l-5.79-5.62,6.95-2.28-3-3.73,6-.53-5.05-3.11,8,.06-6-3.21,9,.55-3-3.87,11.07,1.63-1.62-4.75,8.13,4.81.29-4.74,5.72,7.16,1.35-3.36,4.13,7.52,2-3.06L122,83.76l1.62-2.33-.3,9.87A7.4,7.4,0,0,1,121.16,95.05Z"/>
      <path class="cls-2" d="M122.91,93.14a75.88,75.88,0,0,1,8.65,8c2.51,2.7,9.24,11.71,12.87,15.94,6.44,7.51,7.76,10,12,18,6,11.31,11,23.58,10.08,24a209.25,209.25,0,0,0-17.72-30.77c-5.45-7.92-11.41-14-15.61-19.55-4-5.28-5.72-8.28-7.75-10.47C121.81,94.38,121.35,92.06,122.91,93.14Z"/>
      <path class="cls-2" d="M122.45,93.15c-2.54-.82,3.07-11.17,6-13.05,3.29-2.15,13-9,15.32-4.21.61,1.26-7.38,10-11.86,13.51C127,93.22,124.56,93.83,122.45,93.15Z"/>
      <path class="cls-2" d="M121.14,93c2.36-1.53-6.2-10.51-9.64-11.62-3.94-1.28-14.71-5.23-16.73-.06-1.25,3.21,9.79,6.56,15.3,8.86C116.12,92.68,119.19,94.24,121.14,93Z"/>
      <path class="cls-3" d="M122.91,93.14c-2.55-.82,7-12.25,10.32-14.44,6.69-4.46,10.45-4.27,10.49-2.81,0,1.26-6.36,10.17-10.55,12.89C127.75,92.3,125,93.82,122.91,93.14Z"/>
      <path class="cls-3" d="M121,93c2.34-1.57-8.71-9.07-10.57-10.21C106.07,80.08,93.16,78,95,81.5c1,2,6.35,5.19,13.54,8.23C114.54,92.29,119.07,94.26,121,93Z"/>
      <circle class="cls-4" cx="113.25" cy="88.04" r="2.52"/>
      <circle class="cls-4" cx="132.42" cy="84.25" r="2.58"/>
      <path class="cls-3" d="M106.6,69.37c-.81-.59,1.78-15.61,3.16-20.42,3.1-10.8,11.16-28.84,12.84-28.84s1.88,17.07-3.89,30.78C113.71,62.79,107.2,69.8,106.6,69.37Z"/>
      <path class="cls-3" d="M86.71,71S77.49,52.65,65.4,40.34c-16.73-17-36.53-22.15-37.11-21.8-1.65,1,8.65,11.1,31.27,30.64C77,64.21,79.65,66.63,86.71,71Z"/>
    </g>
  </g>
</svg>
