<svg xmlns="http://www.w3.org/2000/svg" width="175" height="180" viewBox="0 0 175 180">
  <defs>
    <style>
      .cls-1 {
        fill: #0b2463;
      }

      .cls-2 {
        fill: #0d2d7c;
      }

      .cls-3 {
        fill: #fff;
      }

      .cls-4 {
        fill: #b034ce;
      }
    </style>
  </defs>
  <g id="mosquito_flying" data-name="mosquito flying">
    <g>
      <path class="cls-1" d="M132.21,161.48c-41-16-54.06-53.9-54.19-54.28l-.1-.3,8.77-8.46C84.33,97,74.94,91.82,70.37,94.5l-.51-.86c5.75-3.37,17.42,4,17.92,4.29l.53.34-9.23,8.91c1.3,3.57,14.85,38.31,53.49,53.37Z"/>
      <path class="cls-1" d="M154,150.12c-34.72,0-68.47-41.49-68.81-41.92l-.33-.41,12.43-9c-2.78-1.53-13.43-7-18-4.34l-.51-.86C84.5,90.27,97.88,98,98.44,98.35l.67.39L86.28,108c3.66,4.4,36.56,42.65,69.67,41.09l0,1C155.32,150.1,154.64,150.12,154,150.12Z"/>
      <path class="cls-1" d="M134.14,157.63c-32.91-10.49-46.31-53.79-46.44-54.23l-.08-.28,8.88-9.05C93.9,92.64,83,87,78.4,89.67l-.51-.86c5.73-3.37,19.11,4.38,19.68,4.71l.55.33-9.37,9.54c1.2,3.74,14.67,43.4,45.69,53.28Z"/>
      <path class="cls-1" d="M149.94,155.72C110.08,151.94,93.46,106,93.3,105.49l-.1-.29,10-10.39c-2-1.66-10.84-8.72-15.44-6l-.51-.86c5.79-3.4,16.56,6.06,17,6.47l.39.34-10.25,10.7c1.47,3.89,18.1,45.72,55.68,49.28Z"/>
      <path class="cls-2" d="M80.55,79.31c14.17-3.08,12.32-3.59,19.89-4.74a89.12,89.12,0,0,1,30.16-.16c6.63,1.18,18.7,3.31,23.53,10a18,18,0,0,0,5.21,4.26c5.68,3.32,7.37,4.81,7.24,5.69-.19,1.31-8.19,1-8.19,1-10.56-.48-17.3-2.73-23.68-4.27a118.31,118.31,0,0,0-27-3c-3.42.05-6.32.33-21,2.69C66.28,94,63.44,96,58,95.57c-3.9-.33-7.75-.3-5.88-2.43C56.93,87.63,62.38,83.25,80.55,79.31Z"/>
      <path class="cls-1" d="M53.84,95.05c2.41,2.1,5.58,1.54,14.85.77,7.72-.64,6.28-.73,9-.67,9.42.23,15.26-3.47,15.26-3.47l5.79-5.62-6.95-2.28,3-3.73-6-.53,5.05-3.11-8,.06,6-3.21-9,.55,3-3.87L74.76,71.57l1.62-4.75-8.13,4.81L68,66.89l-5.72,7.16-1.35-3.36-4.13,7.52-1.95-3.06L53,83.76l-1.62-2.33.3,9.87A7.4,7.4,0,0,0,53.84,95.05Z"/>
      <path class="cls-2" d="M52.09,93.14a75.88,75.88,0,0,0-8.65,8c-2.51,2.7-9.24,11.71-12.87,15.94-6.44,7.51-7.76,10-12,18-6,11.31-11,23.58-10.08,24a209.25,209.25,0,0,1,17.72-30.77c5.45-7.92,11.41-14,15.61-19.55,4-5.28,5.72-8.28,7.75-10.47C53.19,94.38,53.65,92.06,52.09,93.14Z"/>
      <path class="cls-2" d="M52.55,93.15C55.09,92.33,49.48,82,46.6,80.1c-3.29-2.15-13-9-15.32-4.21-.61,1.26,7.38,10,11.86,13.51C48.05,93.22,50.44,93.83,52.55,93.15Z"/>
      <path class="cls-2" d="M53.86,93c-2.36-1.53,6.2-10.51,9.64-11.62,3.94-1.28,14.71-5.23,16.73-.06,1.25,3.21-9.79,6.56-15.3,8.86C58.88,92.68,55.81,94.24,53.86,93Z"/>
      <path class="cls-3" d="M52.09,93.14c2.55-.82-7-12.25-10.32-14.44-6.69-4.46-10.45-4.27-10.49-2.81,0,1.26,6.36,10.17,10.55,12.89C47.25,92.3,50,93.82,52.09,93.14Z"/>
      <path class="cls-3" d="M54,93C51.65,91.4,62.7,83.9,64.56,82.76,68.93,80.08,81.84,78,80,81.5c-1,2-6.35,5.19-13.54,8.23C60.46,92.29,55.93,94.26,54,93Z"/>
      <circle class="cls-4" cx="61.75" cy="88.04" r="2.52"/>
      <circle class="cls-4" cx="42.58" cy="84.25" r="2.58"/>
      <path class="cls-3" d="M68.4,69.37c.81-.59-1.78-15.61-3.16-20.42-3.1-10.8-11.16-28.84-12.84-28.84s-1.88,17.07,3.89,30.78C61.29,62.79,67.8,69.8,68.4,69.37Z"/>
      <path class="cls-3" d="M88.29,71s9.22-18.32,21.31-30.63c16.73-17,36.53-22.15,37.11-21.8,1.65,1-8.65,11.1-31.27,30.64C98,64.21,95.35,66.63,88.29,71Z"/>
    </g>
  </g>
</svg>
