<svg xmlns="http://www.w3.org/2000/svg" width="175" height="180" viewBox="0 0 175 180">
  <defs>
    <style>
      .cls-1 {
        fill: #2c0835;
      }

      .cls-2 {
        fill: #25062d;
      }

      .cls-3 {
        fill: #fff;
      }

      .cls-4 {
        fill: #863199;
      }

      .cls-5 {
        fill: #3c0a46;
      }

      .cls-6 {
        fill: #531261;
      }

      .cls-7 {
        fill: #631775;
      }

      .cls-8 {
        fill: #5f1170;
      }
    </style>
  </defs>
  <g id="butterfly">
    <g>
      <path class="cls-1" d="M101.68,124.55c-8.69-13.32-2.89-28.25-2-33,6.88-36.7,47-61,66-55,11.93,3.77,1.42,42.4-20,77-12.36,20-14.83,25.71-22,27C112.93,142.48,106.91,132.57,101.68,124.55Z"/>
      <path class="cls-2" d="M62.68,133.55c-.12-8.32,3.43-23.41,15-27,13-4,30.42,8.21,30,23-.35,12.44-13.17,21.29-24,22-1.46.1-12.45.65-18-7C62.84,140.63,62.72,136.35,62.68,133.55Z"/>
      <circle id="eye_2" data-name="eye 2" class="cls-3" cx="141.18" cy="130.05" r="5.5"/>
      <circle id="eye_2-2" data-name="eye 2" class="cls-4" cx="143.68" cy="129.55" r="2"/>
      <path class="cls-1" d="M109.34,154.47c0-.92,1.48-1,2.08-.33,2.94,3.4-6.19,16.24-6.93,15.65C101.68,167.55,108.86,162.25,109.34,154.47Z"/>
      <path class="cls-1" d="M101.34,158.47c0-.92,1.48-1,2.08-.33,2.94,3.4-6.19,16.24-6.93,15.65C93.68,171.55,100.86,166.25,101.34,158.47Z"/>
      <path class="cls-5" d="M48.14,178.42c4.17,6.51,46.49-12.66,54.54-17.87,24.81-16.05,43.11-37,36-40s-22.22-2.3-37,9c-7.85,6-21.8,20.47-26,22C64.68,155.55,44.73,173.1,48.14,178.42Z"/>
      <path class="cls-6" d="M11.68,99.55c-9,8.65-12.88,25.07-10,36,4.21,16,19,19.46,29,21,26,4,50.15-5.77,58-11,18-12-25.06-55-55-55C21.3,90.57,12.36,98.9,11.68,99.55Z"/>
      <path class="cls-7" d="M69.68,1.55c-14,10-25.1,30.77-35,66-2.57,9.15-3.86,13.73-4,17-1.17,27.1,22,53.88,46,60,3.75,1,6,1.5,9,1,17.76-2.91,26.72-35.45,29-54,4.57-37.22-9.64-84.47-35-90C78.12,1.21,73.54-1.21,69.68,1.55Z"/>
      <path class="cls-7" d="M69.68,1.55c-14,10-25.1,30.77-35,66-2.57,9.15-3.86,13.73-4,17-1.17,27.1,22,53.88,46,60,3.75,1,6,1.5,9,1,17.76-2.91,26.72-35.45,29-54,4.57-37.22-9.64-84.47-35-90C78.12,1.21,73.54-1.21,69.68,1.55Z"/>
      <circle id="eye_1" data-name="eye 1" class="cls-3" cx="122.18" cy="122.05" r="6.5"/>
      <circle id="eye_2-3" data-name="eye 2" class="cls-4" cx="119.17" cy="121.61" r="2.06"/>
      <path class="cls-8" d="M130.11,160.55c-7.06.79-10.3-11.39-3-13.06,6.54-1.56,9.21,7.67,2,7.9a1,1,0,0,1-1.12-.87c-.14-1.65,3.4-1.17,3.47-2.22.75-3.05-5.31-4.29-6.28-.86-.87,14.63,18.39,5.65,12.17-12.84-1.57-4.9-6.32-7.76-5.74-9,1.27-2.8,7,4.23,7.65,8.44C142.21,147.31,139.67,160.35,130.11,160.55Z"/>
      <path class="cls-8" d="M132.68,121.55c.5,0,4-7.66,1-15-3.67-9-14.59-12.54-15-12s10,7,12,14C132.5,114.9,132.27,121.54,132.68,121.55Z"/>
      <path class="cls-8" d="M141.2,124.28c-.32-.43,5.81-8,14.62-10.45,10.93-3,18.72,3.26,18.43,4s-8.72-2.88-17.62-1.61C151,117,141.47,124.64,141.2,124.28Z"/>
      <path class="cls-6" d="M94.25,160.37c0-.87,1.4-1,2-.31,2.77,3.21-5.85,15.34-6.55,14.79C87,172.73,93.8,167.72,94.25,160.37Z"/>
      <path class="cls-6" d="M86.25,163.37c0-.87,1.4-1,2-.31,2.77,3.21-5.85,15.34-6.55,14.79C79,175.73,85.8,170.72,86.25,163.37Z"/>
    </g>
  </g>
</svg>
