<svg xmlns="http://www.w3.org/2000/svg" width="240" height="170" viewBox="0 0 240 170">
  <defs>
    <style>
      .cls-1 {
        fill: #541361;
      }

      .cls-2 {
        fill: #5f1270;
      }

      .cls-3 {
        fill: #3d0b47;
      }

      .cls-4 {
        fill: #8c3c9e;
      }

      .cls-5 {
        fill: #fff;
      }
    </style>
  </defs>
  <g id="moth_dead" data-name="moth dead">
    <g>
      <path class="cls-1" d="M115.94,114.31c2.47.52,25.68,9.45,32.43,8.73s12.54,1.23,18.69,1.46c.17.71.31,1.68.89,2,3.25,1.77,9,10.83,10.1,12.34,1.39,2,1.66,4.39,1.53,7-.48,10.23-8.57,12.57-15.87,15.68-9.78,4.16-20.33,4.92-30.67,6.55a8,8,0,0,1-3.8-.16c-5.2-1.93-18.17-6.76-25.28-18.3-.92-1.49-1.28-3.18-2.85-4.12a2,2,0,0,1,.09-2.13c4.74-6.05,5.26-14,9.23-20.41C112.24,120,112.21,116,115.94,114.31Z"/>
      <path class="cls-2" d="M119.88,75.45c2.29-.37,3.44-1.78,4.1-4,.61-2,1.25-4,3.28-5.3,5.31-3.38,10.41-7.09,15.8-10.33,11.36-6.82,24.05-10.47,36.39-15,12.67-4.63,25.92-4.23,39-5.43,4.79-.44,8.48,3.31,11.29,7.06,4.58,6.09,7.23,13.22,8.9,20.51,1.46,6.34-.58,12.52-3.73,18.15-5,8.91-12.16,15.86-19.87,22.44-5.86,5-11.49,10.06-18.57,13.53-6,2.91-23.85,7-29.8,8.1-6.14-.24-12.12-1.76-18.26-2.2-6.77-.5-13.25,1.07-19.49-2.17-1.78-.93-10.47-6-12.94-6.56.33-.67.61-1.37,1-2,4.15-7.08,8.9-14,6.7-22.93a2,2,0,0,1,0-1C125.2,83.27,124,78.93,119.88,75.45Z"/>
      <path class="cls-2" d="M104.9,68.54c-.16.49-5.58,3.53-5.86,3.61-2.91.85-4.88,3.06-6.68,5.15-3.29,3.82-7.42,7.48-7.21,13.06.27,7.59-1,15-2.26,22.34a32.22,32.22,0,0,1-12,.88c-8.49-.79-16.57-3.57-24.38-7.21-3-1.42-18.22-8.08-26.14-13.84-2.42-2.9-5.21-5.73-6.31-9.3-1-3.11-2.79-5.52-4.48-8.06-3.75-5.6-6.76-11.43-6.8-18.36C2.75,45.38.94,34,2.2,22.53,3,15.21,4.07,7.68,11.91,3.88c6.23-3,12.69-2.15,19.18-1.13,8.85,1.41,15.62,6.18,22,12.28C64.12,25.69,76.33,35.14,86.75,46.5A29.16,29.16,0,0,1,91,52.16C92.5,55,102,68.46,104.9,68.54Z"/>
      <path class="cls-1" d="M46.55,106.37a74.18,74.18,0,0,0,24.64,6.28c3.82.35,7.81,1.21,11.7,0,1.75,3,1.34,6,.11,9-2,4.94-4,9.89-5.54,15-.61,2.06-5.2,6.48-7,8-5.51,4.66-12.66,5-19,7.33-4.85,1.75-10.51.4-15.28-1.94-2.85-1.4-5.7-2.93-8.57-4.32A53.79,53.79,0,0,1,7.78,129C3,122.48.08,114.69,1.13,106.12,2,99.07,5.9,95.44,12.93,94.82c2.2-.19,4.13.09,6.57-.17C26.14,93.92,43.5,105,46.55,106.37Z"/>
      <path class="cls-3" d="M115.94,114.31c-3.73,1.66-3.7,5.73-5.51,8.62-4,6.39-4.49,14.36-9.23,20.41a2,2,0,0,0-.09,2.13,4.78,4.78,0,0,0-2.65,3.72,7.9,7.9,0,0,1-2.64,3.88c-3,3.66-1.44,1.88-3,3.66a67.76,67.76,0,0,1-7,6.13c-4,2.34-7.37-4.94-9.79-10.14l-.3-2.09c.54-7.14-.08-4.92,0-8.22.07-2.7,1.08-3.64,1.69-5.7,1.52-5.09,3.55-10,5.54-15,.16-5-.42-3.69-.11-9,.44-7.48,2.53-14.75,2.26-22.34-.21-5.58,3.92-9.24,7.21-13.06,1.8-2.09,3.77-4.3,6.68-5.15.28-.08,4.88-6.54,7.61-8.57a4.75,4.75,0,0,0,3.34-1l4.31.47c.56.78.65,2.21,2.22,1.55.5,2.43-.56,4.86.29,7.37.6,1.76,1.1,3.15,3.07,3.51,4.15,3.48,5.32,7.82,3.78,13a2,2,0,0,0,0,1c2.2,8.94-2.55,15.85-6.7,22.93C116.55,112.94,116.27,113.64,115.94,114.31Z"/>
      <path class="cls-4" d="M116.52,64.57c-1.57.66-1.66-.77-2.22-1.55,1.62-.41,1.84-2,2.53-3.13,5.46-9.06,13-15.42,23.36-18.21a47.65,47.65,0,0,1,14.56-2.06c1.47.07,4,0,4,1.72.08,2.08-2.44,1.59-3.85,1.68a69.45,69.45,0,0,0-16.13,2.51c-5.39,1.65-9.77,5.24-13.87,9A53.36,53.36,0,0,0,116.52,64.57Z"/>
      <path class="cls-4" d="M110,62.55a4.75,4.75,0,0,1-3.34,1A53.82,53.82,0,0,1,105.44,56c-.11-5.39-2.9-9.23-6.68-12.57a32.2,32.2,0,0,0-7.27-5.18,22.46,22.46,0,0,1-8.16-6.55c-.55-.71-1.58-1.61-1-2.5.69-1.14,1.7.08,2.58.18a3.27,3.27,0,0,1,1.5.51c6.17,4.67,13.46,7.83,18.5,14.06a17.29,17.29,0,0,1,4,9.87C109.1,56.74,108.5,59.79,110,62.55Z"/>
      <ellipse class="cls-5" cx="99.28" cy="65.29" rx="6.6" ry="7.8" transform="translate(-18.63 50.61) rotate(-26.23)"/>
      <ellipse class="cls-5" cx="121.83" cy="67.97" rx="7.49" ry="6.34" transform="translate(-5.32 125.37) rotate(-53.45)"/>
      <path class="cls-4" d="M95.68,62.24c1.71-.09,2.71.73,2.4,2.47s-1.6,2.58-3.08,1.66C92.31,64.71,94.9,62.27,95.68,62.24Z"/>
      <path class="cls-4" d="M125.22,68.79a1.41,1.41,0,0,1-2.12-.72,2.15,2.15,0,0,1,.65-3.06,1.52,1.52,0,0,1,2.36.75A2.36,2.36,0,0,1,125.22,68.79Z"/>
      <g>
        <g>
          <path class="cls-5" d="M106.6,103.57l0,.23.16-.08Z"/>
          <path class="cls-5" d="M115.38,87.34c.76,2,.67,3.91-1.14,5.4-1.57,1.28-6,.18-7.21-1.75s.21-3.3,1.48-4.34C110.22,85.24,114.32,85.74,115.38,87.34Zm-2,.84c-1.15-1-2.12.12-3.14.44-.57.18-1.33.76-.63,1.38.94.83,2.22,1.61,3.46.89C113.91,90.38,113.79,89.22,113.36,88.18Z"/>
          <path class="cls-5" d="M101.41,89.48c-1.89,1.06-5,.51-5.63-1.22-.64-1.9-.36-3.87,1.55-5,2.21-1.34,5.67-1,6.4.5C104.56,85.43,103.37,88.38,101.41,89.48Zm-1-2.1c.48-.62,1.58-1.19.88-2.07-.55-.7-1.61-.2-2.39,0a1.15,1.15,0,0,0-.76,1.76C98.68,88,99.57,87.82,100.42,87.38Z"/>
        </g>
        <path class="cls-5" d="M102.31,91.92c-1.59.71-3.15,4.46-2.36,5.84,1,1.71,2.63,1.47,3.93.74,2.55-1.42,1.05-3.47.57-5.09C104,92.21,103.59,91.35,102.31,91.92Zm1.1,2.1c0,.31.61,2.36,0,2.68s-1.59.75-1.88.26c-.59-1,.4-3.3,1.09-3.22C103.08,93.8,103.37,93.41,103.41,94Z"/>
        <path class="cls-5" d="M118.2,88.74a5.55,5.55,0,0,0-.83-2.45c-.53-1-4.92-7.15-12.37-7-5.77.12-11,4-11.68,7.25-.13.58-.52,2.34.39,3.33a10,10,0,0,0,1.88,1.26,8.53,8.53,0,0,1,1.17.69c.93.82.77,2.42.65,3.6-.19,2-1.08,4.82-2.22,5.59-.14.09-.64.4-.63.8a.72.72,0,0,0,.25.47c.57.51,1.64.15,1.7.13,1.43-.49,1.53-2.07,2.22-2.07,1,0,1.49,3.12,2.2,3.05s.46-2.08,1.85-2.77a1.9,1.9,0,0,1,1-.21c1.59.13,1.94,2.45,2.95,2.55s1-3.06,4-6.06c1-1,5.27-1.75,7.44-5.49,0,0,.18,0,.33-.07.49-.09,2.21-.41,2.35,0a.16.16,0,0,1,0,.12c-.54,1.78-2.9,3.61-2.9,3.61-2.17,1.69-1.44,1.34-3,2.47-3.21,2.33-4.85,2.74-5.18,4.22a9.89,9.89,0,0,0-.26,2,4,4,0,0,1-.07,1.45,2.56,2.56,0,0,1-1.29,1.22,3,3,0,0,1-2.23.47,2.24,2.24,0,0,1-1.31-.78c-.72-.95-.13-2.26-.47-2.39s-.94,1.66-2.35,2a2.57,2.57,0,0,1-2.27-.67c-.76-.77-.62-1.86-1-1.9s-.46.85-1.35,1.33a2.33,2.33,0,0,1-1.1.27c-.82,0-1.44-.34-2.65-1.09S92,102.51,92,102.37c-.13-.53.19-1,.65-1.71A33.14,33.14,0,0,0,95,95.3a1.92,1.92,0,0,0,.12-1.12,2.1,2.1,0,0,0-.79-1.11A12.23,12.23,0,0,1,91,87.12c-.38-2.35,1.17-4.41,2.08-5.63,3.37-4.47,9-5.17,10.26-5.3,6.23-.59,11.67,2.68,13.67,5.47.26.38.2.37,2,3.33a18.39,18.39,0,0,1,1.86,3.76,3.53,3.53,0,0,1,0,2.69c-.53.68-2,1.44-2.41.52A16.38,16.38,0,0,1,118.2,88.74Z"/>
      </g>
    </g>
  </g>
</svg>
