<svg xmlns="http://www.w3.org/2000/svg" width="65" height="65" viewBox="0 0 65 65">
  <defs>
    <style>
      .cls-1 {
        opacity: 0.39;
      }

      .cls-2 {
        fill: #fff;
      }
    </style>
  </defs>
  <g id="UI">
    <g id="mute">
      <path class="cls-1" d="M56.06,6.3c.13-7.55-27.38,14.59-31.32,16-4.77,3-11.37.89-16.87,1.67a2,2,0,0,0-1.94,2.55C9.37,50.28-3.88,45.73,22.64,46,68.33,67.63,51.19,83,56.06,6.3ZM17.56,41.72c-2.56.07-5.12.24-7.66.55.36-4.79.95-9.53.34-14.29l10.82-.24c0,4.65.11,9.31,0,14C19.89,41.63,18.66,41.7,17.56,41.72Zm17.28,5.81a99.25,99.25,0,0,0-9.52-4.74c.12-5.33,0-10.67,0-16C34.09,21,43,15.26,52,9.85c-.17,16-1.54,32-1,48.07C45.75,54.23,40.42,50.68,34.84,47.53Z"/>
      <path class="cls-2" d="M28.1,19c-4.78,3-11.37.88-16.87,1.67a2,2,0,0,0-2,2.55C12.73,46.92-.52,42.38,26,42.64c45.69,21.64,28.54,37,33.42-39.7C59.55-4.61,32,17.53,28.1,19M20.91,38.37c-2.55.06-5.11.24-7.65.54.36-4.78,1-9.53.34-14.29l10.82-.24c0,4.65.11,9.31,0,14C23.24,38.28,22,38.34,20.91,38.37Zm17.29,5.8a99.41,99.41,0,0,0-9.53-4.74c.13-5.33,0-10.67,0-16,8.79-5.81,17.66-11.52,26.7-16.93-.18,16-1.54,32-1,48.06C49.11,50.87,43.77,47.32,38.2,44.17Z"/>
    </g>
  </g>
</svg>
