<svg xmlns="http://www.w3.org/2000/svg" width="240" height="225" viewBox="0 0 240 225">
  <defs>
    <style>
      .cls-1 {
        opacity: 0.37;
      }

      .cls-2 {
        fill: #fff;
      }
    </style>
  </defs>
  <g id="BUTTON_PLAY" data-name="BUTTON PLAY">
    <g>
      <g class="cls-1">
        <path d="M4.59,21.39c-4.22,40-1.54,80.06-.09,120.12.5,13.78-.46,27.57-.07,41.36.37,13.22,1.38,27.51,8,39.29,1.48,2.63,4.6,3,7.13,1.87,26.75-12.2,54-23.39,80.39-36.3,28.89-14.1,57.62-29.51,84.78-46.74a341.21,341.21,0,0,0,44.46-33.34c2.33-2.07,1.93-6.83-1.05-8.18C157.87,67.58,82.68,48.78,12.43,16.89c-6.06-2.75-11.24,6-5.26,9,80.37,40.61,141,50,208.17,79.24a4.65,4.65,0,0,0,6.47-4.85h0c-24.31,21.66-54.91,36.54-83.34,52.15-26.06,14.31-37.52,25-76.74,41.52C45.78,200.66,30,207.85,14.29,215l7.13,1.87C15,205.52,14.91,191,14.76,178.34c-.15-13.66-.88-27.3,0-40.94,2.81-43.33-3.82-77.4.25-116C15.72,14.73,5.29,14.78,4.59,21.39Z"/>
      </g>
      <path class="cls-2" d="M11.59,5.39c-4.22,40-1.54,80.06-.09,120.12.5,13.78-.46,27.57-.07,41.36.37,13.22,1.38,27.51,8,39.29,1.48,2.63,4.6,3,7.13,1.87,26.75-12.2,54-23.39,80.39-36.3,28.89-14.1,57.62-29.51,84.78-46.74a341.21,341.21,0,0,0,44.46-33.34c2.33-2.07,1.93-6.83-1.05-8.18C164.87,51.58,89.68,32.78,19.43.89c-6.06-2.75-11.24,6-5.26,9,80.37,40.61,141,50,208.17,79.24a4.65,4.65,0,0,0,6.47-4.85h0c-24.31,21.66-54.91,36.54-83.34,52.15-26.06,14.31-37.52,25-76.74,41.52-16,6.71-31.7,13.9-47.44,21.08l7.13,1.87C22,189.52,21.91,175,21.76,162.34c-.15-13.66-.88-27.3,0-40.94,2.81-43.33-3.82-77.4.25-116C22.72-1.27,12.29-1.22,11.59,5.39Z"/>
    </g>
  </g>
</svg>
