<svg xmlns="http://www.w3.org/2000/svg" width="180" height="180" viewBox="0 0 180 180">
  <defs>
    <style>
      .cls-1 {
        opacity: 0.52;
      }

      .cls-2 {
        fill: #fff;
      }
    </style>
  </defs>
  <g id="Win">
    <g id="replay_button">
      <g>
        <path class="cls-1" d="M162.8,46a63.6,63.6,0,0,0-33.21-29.16c-5.83-1.82-8.28,7.87-2.49,9.69.35.13,11.07,5.56,15.32,9.1a59,59,0,0,1,7.3,7.63c.21.36,17.33,32.57,16.59,49.45-1.05,23.44-2.09,31.25-8.33,44.64-.09.2-6.64,7.13-8.32,8.93-9.36,10.05-23.93,20.1-48,23.07C74.27,172.73,46,155.59,24,140.86c-4.28-3.43-11.62-16.9-13.41-30.69-.56-4.32-.63-16.82.13-21.23,1-7.78,2.18-15.83,5.75-22.69,4.24-8.15,8.4-20.43,22.67-25.81,17-6.42,17-8.27,16.94-11.36-.13-6.68-35.18.69-45.94,28.07C-21.36,130.63,25,169.34,89.12,180,161.63,178.53,198.5,115.35,162.8,46Z"/>
        <path class="cls-1" d="M20.27,11.74c10.25,2.77,24,3.3,32.91,4.48,5.17.6,14.77,3.2,16.24,4.33a1.48,1.48,0,0,0,.3.25c0,.15.1.42.13.38a6.67,6.67,0,0,1-.2,1.8c.26,7.61-19.33,70.84-.18,51.91,2.41-19,9.57-38.14,9.19-57.22C69.68,2.56,44.74,7.17,32.15,4,27.3,4,19.34-1.44,17,5.56,16.46,8.13,17.72,11.1,20.27,11.74Z"/>
      </g>
      <g>
        <path class="cls-2" d="M134,23.29c.33.12,10.5,5.27,14.53,8.63a55.5,55.5,0,0,1,6.92,7.24c.2.34,16.45,30.9,15.74,46.9-1,22.24-5.92,29.09-11.84,41.79-.09.19-2.36,7.33-4,9-8.88,9.53-22.7,19.06-45.58,21.88-21.34,2.64-43.23-1.48-62-13.08-4-2.5-13.32-6.19-15.79-9.91-7.89-11.89-6.91-20.07-8.61-33.15-.54-4.1-.6-16,.12-20.14,1-7.38,2.06-15,5.45-21.52,4-7.73,8-19.38,21.51-24.49,16.11-6.09,16.12-7.85,16.07-10.77-.12-6.34-31.69-.45-45.39,23.85C6.55,75.52,7.5,109,13.29,125.87,23.55,155.72,53.4,166,92.24,172.45c68.78-1.39,109.48-64.9,75.61-130.69a60.27,60.27,0,0,0-31.5-27.66C130.82,12.37,128.5,21.56,134,23.29Z"/>
        <path class="cls-2" d="M32.65,9.26c9.72,2.63,22.8,3.13,31.22,4.24,4.9.57,14,3,15.4,4.11.26.32,1,.6.17,0,.07.05.53,1,.24.34s.1.94,0-.12a6.36,6.36,0,0,1-.19,2.05c.26,7.21-18.32,67.2-.16,49.24C81.61,51.12,88.4,33,88,14.88c-8.51-14.33-32.17-10-44.11-13-4.6,0-12.15-5.1-14.37,1.53C29,5.83,30.23,8.65,32.65,9.26Z"/>
      </g>
    </g>
  </g>
</svg>
