<svg xmlns="http://www.w3.org/2000/svg" width="85" height="100" viewBox="0 0 85 100">
  <defs>
    <style>
      .cls-1 {
        fill: #ce32a6;
      }

      .cls-2 {
        fill: #071c3a;
      }
    </style>
  </defs>
  <g id="UI">
    <g>
      <path class="cls-1" d="M7.33,80.39c12.23-13,12.59-12.18,11.51-23C17.71,46.06,14.52,43,1.58,31.47-3.62,26.85,21.17,46.88,28.91,43c6-3,6.47-12.23,9.35-25.17,1-4.48.44,24.66,9.35,27.33,9.21,2.77,15.11-5.75,23-11.51C72.16,32.52,60.2,44.47,62,53.77c2.18,11.25,23,15.87,22.3,18-.6,1.78-24.11-10.31-34.53-5-12,6.08-2.88,41-6.47,29.49-1.1-3.52-.63-18.73-8.63-23S.52,87.6,7.33,80.39Z"/>
      <g>
        <path class="cls-2" d="M74.39,35.15c-1.61-.88-9.41,7.13-7.73,7.13,4.16,0,7.73-3.57,7.73-2.38a20.89,20.89,0,0,1-1.26,5.57c-.5,2.3-.44,6.42-3.69,6-4-.54-9.28-10.35-12.89-10.35C51.2,41.09,47,46.83,46.44,50c-.59,3.57,1.79,5.35,3.57,13.67.59,2.77-5.26-3.44-7.73-7.13a1.55,1.55,0,0,0-1.35-.74c-.49-.73-1-1.22-1.62-1.09-5.34,1.18-.68.61-4.92-2.6a4.77,4.77,0,0,1-.55-.5l.27.14,5.08-10.07c.84.2,3.28.66,4.86-.55.59-.45,5.43-5,5.34-6.43a.62.62,0,0,0-.32-.52c-.78-.46-2-2.63-3.38-5.27l8-1.51-1.2-7.75A62.28,62.28,0,0,0,60,17.33c3-1.54,1.56-12.76,1.38-14l-.7.1c.46,3.33,1.18,12.2-1,13.31A73.44,73.44,0,0,1,52,19.05l-.31.08,1.19,7.71-7.51,1.42c-1.56-3.17-3.13-6.84-4-9,12.29-2.26,12.29-2.43,12.31-2.8v-.3l-.13,0c-.34-1.37.15-12.7.37-13.7l-.67-.24c0,.08-.84,11.8-.4,14.07-1.49.4-7.94,1.64-12,2.39l-.43.08.16.4c.34.83,2.16,5.31,4.11,9.29L41.19,29l-.08.12c-.19.25-4.61,6.28-5.69,8.62a70,70,0,0,0-2.51,7.83c-.36,1.27-.73,2.55-1,3.53-.3-.25-.65-.52-1.1-.83l-.69-.46,1.2-5.42,2.34-4.58,0-.13c0-.07.46-6.94,1.42-8.9a12.78,12.78,0,0,1,2.31-2.44c1.8-1.65,2.9-2.7,2.63-3.49-.11-.34-.45-.54-1-.6a17.36,17.36,0,0,1-5.1-1.4l5.28-6.38L42.33,1.64l-.69-.17L38.55,14.18l-5.29,6.4a35.88,35.88,0,0,1-8.66-6L29.81,5.3,29.19,5,23.71,14.7l.19.19a35.55,35.55,0,0,0,8.89,6.27l-1.16,1.4-3.74,6.35,4.2,6.6-1.48,6.68-2.4,4.7a9.09,9.09,0,0,0-1.95.11c-.82,0-3-.59-4.16-.59a2.14,2.14,0,0,0-.12.28c-.41-2.48-1.28-4.1,4.93-9.52,2.41-2.1,2-2.07,1.11-3.81a1.38,1.38,0,0,0-.79-.64,2.45,2.45,0,0,0-1.42-.56,4.77,4.77,0,0,0-2.43,1.05c-2.56,1-5.15,3.29-4.88,6.1A16.94,16.94,0,0,0,19,41.8a7.64,7.64,0,0,0-1.06-1.3c-1.18-1.15,1.76-5.4-.54-6.78-1.14-.69-4.32-.49-5.32,0a4.77,4.77,0,0,0-3,2.86c-.55,1.6-2.35,2.77-3.34,2.6-1.79-.3-2.12-3.44-3.31-6.41-.51-1.27,1.79-4.16,1.79-4.16a40.33,40.33,0,0,1,4.17-.37c1.94.11,1.77,1.56,3,1.78.67.12.77,1.23,1.75.94,1.6-.49.52-1.15.6-3.41A20.89,20.89,0,0,0,13,22.44c.45,6.37.17,8.55-.42,8-1.46-1.46-2.76-3-3.71-3-2,0-2-.39-4,0A6.22,6.22,0,0,0,.68,31.07s1.85,9,4.62,9.48c1.41.24,5.48-3,5.48-4.21,0-3,6.53-1.79,6.53-1.79s-.46,4.07-.59,4.76c-.45,2.37,2.34,6,4.74,9.11-1.47-.69-3.86-.4-6.64-.66a12.56,12.56,0,0,0-9.38,3.76c-1,1.1,1,3.85,2.36,3.84,1.67,0,6.86-2.32,8.41-3.43a8.9,8.9,0,0,1,5-1.5,23,23,0,0,0-.29,2.51s.57-2.51,1.19-1.79l.59,4.75.6-3,1.32,5.51.12-1.54,1.09,3.5c.08.24.37.23.51,0l.45-.85c.11-.2.35-.26.47-.1l2.1,2.72a.19.19,0,0,0,.23.06c-1.06,2.36,3.2,7.5,3.2,10.3,0,0-.57,3.35-.58,3.38-.77,2.49,3.32,5.52,5.93,5.52,4.74,0,5.93.2,7.12-1.78C46,79.25,50.52,78,50,77.86c-1.78-.59-7.32-.86-8.91.09-3,1.78-7.05,2.6-7.13.6-.22-5.44,4-6.77,2.38-7.73-3-1.79-3-3.75-3.56-4.23a9.57,9.57,0,0,1-2.94-4.65s0,0,0-.06l.05-.8c0-.26.27-.45.45-.34L34,63c.22.14.52-.17.44-.45l-.14-.5c-.08-.27.2-.57.42-.46l1.81.94c.27.14.58-.32.37-.56s.09-.7.37-.57l1.06.49a.29.29,0,0,0,.33-.12c4,3.1,5.35,7.31,8.72,6.62,4.29-.88,5.5-3.94,6.42-7.38,2.13-7.87,0-7.66,0-10.8,0-4,9.86,5.75,15,4.48a12.94,12.94,0,0,0,8.67-8.06C78.72,42.89,77.24,36.7,74.39,35.15ZM33.59,45.8a70.74,70.74,0,0,1,2.48-7.72,85.61,85.61,0,0,1,5.53-8.39L45,29.06c1.37,2.74,2.77,5.12,3.72,5.72,0,.83-3.87,4.88-5.06,5.79-1.61,1.23-4.49.37-4.52.36l-.29-.09L33.55,51.27a7.81,7.81,0,0,0-1.1-1.6C32.75,48.76,33.12,47.48,33.59,45.8Zm-.74-10.42L28.73,28.9,32.22,23l1.23-1.49A18.23,18.23,0,0,0,39,23c.33,0,.4.12.4.12.13.38-1.54,1.91-2.44,2.73a12.76,12.76,0,0,0-2.47,2.65c-1,2-1.44,8.3-1.49,9.1L31.9,39.66ZM30,45l-.55,2.48-.56-.3Z"/>
        <path class="cls-2" d="M24.3,82.64a2.2,2.2,0,0,0-.23-.25C24.28,82.63,24.38,82.75,24.3,82.64Z"/>
        <path class="cls-2" d="M24.42,58.34c-.37.08-1.26.29-1.44,2.69s2.83,4.43,2.28,5.5c-.24.46-2.39,1.11-4.12,1.71-2.77,1-2.89-4-5.66-.06-.84,1.2-2.57,4.41-.54,5.61,3.2,1.89,1.82,3.48,3.6,4.67a67.19,67.19,0,0,1,5.53,3.93c-.72-.83-2.75-3.29-3.62-4.19-3.14-3.24-4.72-6.5-2.54-9,.56-.65,2.18,2.78,4.09,1.12,2.66-2.31,5.18-1.23,5.42-1.86.1-.27,1.09-3.09-1.78-6.54C23.31,59.11,24.13,58.46,24.42,58.34Z"/>
        <path class="cls-2" d="M24.42,58.34h0C24.53,58.32,24.49,58.31,24.42,58.34Z"/>
      </g>
    </g>
  </g>
</svg>
