<svg xmlns="http://www.w3.org/2000/svg" width="45" height="210" viewBox="0 0 45 210">
  <defs>
    <style>
      .cls-1 {
        fill: #838cd3;
      }

      .cls-2 {
        fill: #0b2463;
      }

      .cls-3 {
        fill: #fff;
      }
    </style>
  </defs>
  <g id="UI">
    <g>
      <path class="cls-1" d="M8.4,5.08A13.64,13.64,0,0,0,1.5,16.67V193.33a13.64,13.64,0,0,0,6.9,11.59C25.2,215,43.5,204.8,43.5,191.1V18.9C43.5,5.2,25.2-5,8.4,5.08ZM37.5,191.82c0,10-13.77,17.48-26,9.27a8.62,8.62,0,0,1-4-7.12V16a8.62,8.62,0,0,1,4-7.12c12.24-8.21,26-.77,26,9.27Z"/>
      <path class="cls-2" d="M22.5,1C11,1,1.5,7.92,1.5,16.38V193.62C1.5,202.08,11,209,22.5,209s21-6.92,21-15.38V16.38C43.5,7.92,34.05,1,22.5,1Zm18,192.62c0,7.25-8.1,13.18-18,13.18s-18-5.93-18-13.18V16.38c0-7.25,8.1-13.18,18-13.18s18,5.93,18,13.18Z"/>
      <rect class="cls-3" x="28.5" y="15.65" width="4" height="178.7" rx="2"/>
    </g>
  </g>
</svg>
