<svg xmlns="http://www.w3.org/2000/svg" width="65" height="65" viewBox="0 0 65 65">
  <defs>
    <style>
      .cls-1 {
        opacity: 0.39;
      }

      .cls-2 {
        fill: #fff;
      }
    </style>
  </defs>
  <g id="UI">
    <g id="unmute">
      <path class="cls-1" d="M49.77,20.82l.28-.27c4-3.71,7.09-6.63,11-10.36,2.24-2.13-1.16-5.52-3.39-3.39-2.6,2.46-5.12,4.85-7.63,7.2.12-2.46.26-5,.43-7.7.11-6.13-18,7.32-26.94,13.36-3.88-4.93-7.68-10-9.49-12.4a2.47,2.47,0,0,0-3.28-.86,2.42,2.42,0,0,0-.86,3.28c4,5.25,6.51,9,9.27,12.65h0c-4.78,3-11.37.88-16.87,1.67A2,2,0,0,0,.35,26.56C3.7,49.67-8.78,46,15.1,46l-.26.23c-4.07,3.58-2.57,3.12-6.71,6.61a2.42,2.42,0,0,0,0,3.39,2.46,2.46,0,0,0,3.39,0c3.89-3.28,6.7-5.85,9.34-8.36,28,14.09,29.33,24.32,28.9,5.5,1.71,1.59,3.37,3.12,5.72,5.35s5.64-1.26,3.39-3.39c-3.36-3.18-6.35-6-9.27-8.68C49.46,40.24,49.38,31.77,49.77,20.82Zm-3.35-11c0,2.57-.09,5.13-.17,7.7-4.49,4.2-9,8.36-13.73,12.72-1.71-1.7-4.07-4.49-6.57-7.58C32.7,18.3,39.51,14,46.42,9.86ZM12,41.73c-2.56.06-5.12.24-7.66.54.36-4.78.95-9.53.34-14.29l10.82-.24c0,4.65.11,9.31,0,14C14.31,41.64,13.08,41.7,12,41.73Zm7.74-14.94,2-1.29a107.43,107.43,0,0,0,7.33,8q-4.62,4.2-9.27,8.36C19.84,36.83,19.74,31.81,19.72,26.79ZM45.41,57.92c-5.24-3.69-10.57-7.24-16.15-10.39q-2.57-1.44-5.2-2.74c2.4-2.32,5-4.8,8.39-7.92,4.09,4,8.23,7.94,12.38,11.87l.47.45C45.29,52.1,45.31,55,45.41,57.92ZM35.94,33.67Q41,29,46,24.3c-.23,6.13-.49,12.27-.63,18.4C42.4,39.9,39.35,37,35.94,33.67Z"/>
      <path class="cls-2" d="M22.52,19c-4.78,3-11.38.89-16.88,1.67A2,2,0,0,0,3.7,23.2C7.14,46.93-6.1,42.38,20.42,42.64,66.11,64.28,49,79.69,53.84,3,54-4.61,26.46,17.54,22.52,19M15.33,38.37c-2.55.07-5.11.24-7.66.55.37-4.79,1-9.53.35-14.29l10.82-.24c0,4.65.1,9.3,0,14C17.66,38.28,16.44,38.35,15.33,38.37Zm17.28,5.81a97,97,0,0,0-9.52-4.74c.13-5.33,0-10.68,0-16,8.79-5.81,17.65-11.52,26.7-16.93-.18,16-1.54,32-1,48.06A191,191,0,0,0,32.61,44.18Z"/>
      <path class="cls-2" d="M39.14,31.27q7.09-6.52,14.11-13.12c4-3.71,7.09-6.63,11-10.36,2.24-2.13-1.15-5.51-3.39-3.39-8.59,8.16-16.43,15.47-25.16,23.48C30.84,23,20.6,9.3,17.25,4.86A2.47,2.47,0,0,0,14,4a2.41,2.41,0,0,0-.86,3.28c7.73,10.23,10,14.79,19.1,23.81q-7,6.42-14.17,12.73c-4.07,3.58-2.57,3.12-6.72,6.61a2.42,2.42,0,0,0,0,3.39,2.46,2.46,0,0,0,3.39,0c9-7.58,12.23-11.41,20.93-19.35,4.09,4,8.24,7.94,12.38,11.87,4.35,4.13,6.31,5.85,10.66,10,2.24,2.12,5.63-1.27,3.39-3.39C53.63,44.93,47.46,39.42,39.14,31.27Z"/>
    </g>
  </g>
</svg>
